<svg width="472" height="440" viewBox="0 0 472 440" fill="none" xmlns="http://www.w3.org/2000/svg">
<g clip-path="url(#clip0_1331_6797)">
<g filter="url(#filter0_d_1331_6797)">
<g filter="url(#filter1_d_1331_6797)">
<rect x="64" y="21" width="162" height="169.364" rx="10" fill="white"/>
</g>
<path d="M93.2909 70.5H87.8909C86.0091 70.5 84.3727 72.0545 84.3727 74.0182V149.209C84.3727 151.091 85.9273 152.727 87.8909 152.727H93.2909C95.1727 152.727 96.8091 151.173 96.8091 149.209V74.0182C96.7272 72.0545 95.1727 70.5 93.2909 70.5Z" fill="#DDF4F6"/>
<path d="M93.2909 115.009H87.8909C86.0091 115.009 84.3727 116.564 84.3727 118.527V149.209C84.3727 151.091 85.9273 152.727 87.8909 152.727H93.2909C95.1727 152.727 96.8091 151.173 96.8091 149.209V118.527C96.7272 116.564 95.1727 115.009 93.2909 115.009Z" fill="#2BB885"/>
<path d="M119.718 70.5H114.318C112.436 70.5 110.8 72.0545 110.8 74.0182V149.209C110.8 151.091 112.355 152.727 114.318 152.727H119.718C121.6 152.727 123.236 151.173 123.236 149.209V74.0182C123.236 72.0545 121.682 70.5 119.718 70.5Z" fill="#FFEEC7"/>
<path d="M119.718 103.227H114.318C112.436 103.227 110.8 104.782 110.8 106.745V149.209C110.8 151.091 112.355 152.727 114.318 152.727H119.718C121.6 152.727 123.236 151.173 123.236 149.209V106.745C123.236 104.782 121.682 103.227 119.718 103.227Z" fill="#FFC542"/>
<path opacity="0.16" d="M146.227 70.5H140.827C138.945 70.5 137.309 72.0545 137.309 74.0182V149.209C137.309 151.091 138.864 152.727 140.827 152.727H146.227C148.109 152.727 149.745 151.173 149.745 149.209V74.0182C149.664 72.0545 148.109 70.5 146.227 70.5Z" fill="#346AF8"/>
<path d="M146.227 95.5364H140.827C138.945 95.5364 137.309 97.0909 137.309 99.0545V149.209C137.309 151.091 138.864 152.727 140.827 152.727H146.227C148.109 152.727 149.745 151.173 149.745 149.209V99.0545C149.664 97.0909 148.109 95.5364 146.227 95.5364Z" fill="#346AF8"/>
<path opacity="0.16" d="M172.655 70.5H167.255C165.373 70.5 163.736 72.0545 163.736 74.0182V149.209C163.736 151.091 165.291 152.727 167.255 152.727H172.655C174.536 152.727 176.173 151.173 176.173 149.209V74.0182C176.173 72.0545 174.536 70.5 172.655 70.5Z" fill="#FFBAC4"/>
<path d="M172.655 125.4H167.255C165.373 125.4 163.736 126.955 163.736 128.918V149.209C163.736 151.091 165.291 152.727 167.255 152.727H172.655C174.536 152.727 176.173 151.173 176.173 149.209V128.918C176.173 126.955 174.536 125.4 172.655 125.4Z" fill="url(#paint0_linear_1331_6797)"/>
<path opacity="0.16" d="M199.082 70.5H193.682C191.8 70.5 190.164 72.0545 190.164 74.0182V149.209C190.164 151.091 191.718 152.727 193.682 152.727H199.082C200.964 152.727 202.6 151.173 202.6 149.209V74.0182C202.6 72.0545 201.045 70.5 199.082 70.5Z" fill="#FF575F"/>
<path d="M199.082 79.009H193.682C191.8 79.009 190.164 80.5636 190.164 82.5272V149.209C190.164 151.091 191.718 152.727 193.682 152.727H199.082C200.964 152.727 202.6 151.173 202.6 149.209V82.5272C202.6 80.5636 201.045 79.009 199.082 79.009Z" fill="#FF575F"/>
</g>
<circle cx="89.3637" cy="172.364" r="2.45455" fill="#2BB885"/>
<circle cx="117.182" cy="172.364" r="2.45455" fill="#FFC542"/>
<circle cx="144.182" cy="172.364" r="2.45455" fill="#346AF8"/>
<circle cx="170.364" cy="172.364" r="2.45455" fill="#FF92A3"/>
<circle cx="198.182" cy="172.364" r="2.45455" fill="#FF575F"/>
<path d="M83.73 40.155L82.26 40.155L82.26 51L83.73 51L83.73 40.155ZM87.429 51L87.429 47.115C87.429 45.69 88.194 44.745 89.514 44.745C90.594 44.745 91.284 45.345 91.284 46.83L91.284 51L92.694 51L92.694 46.515C92.694 44.64 91.809 43.455 89.874 43.455C88.839 43.455 87.909 43.95 87.444 44.79L87.294 43.665L86.019 43.665L86.019 51L87.429 51ZM96.5555 51L97.9505 51L101.01 43.665L99.5405 43.665L97.9055 47.76C97.6505 48.405 97.4105 49.035 97.2905 49.515C97.1705 49.065 96.9605 48.45 96.7055 47.76L95.1005 43.665L93.6005 43.665L96.5555 51ZM101.315 47.325C101.315 49.59 102.935 51.18 105.14 51.18C107.33 51.18 108.95 49.59 108.95 47.325C108.95 45.06 107.33 43.47 105.14 43.47C102.935 43.47 101.315 45.06 101.315 47.325ZM102.74 47.325C102.74 45.795 103.715 44.73 105.14 44.73C106.55 44.73 107.54 45.795 107.54 47.325C107.54 48.855 106.55 49.92 105.14 49.92C103.715 49.92 102.74 48.855 102.74 47.325ZM111.201 41.925C111.711 41.925 112.131 41.505 112.131 40.995C112.131 40.47 111.711 40.065 111.201 40.065C110.691 40.065 110.271 40.47 110.271 40.995C110.271 41.505 110.691 41.925 111.201 41.925ZM110.511 51L111.921 51L111.921 43.665L110.511 43.665L110.511 51ZM113.488 47.34C113.488 49.65 114.913 51.18 117.073 51.18C118.843 51.18 120.208 50.115 120.493 48.525L119.083 48.525C118.828 49.395 118.078 49.92 117.073 49.92C115.738 49.92 114.883 48.9 114.883 47.325C114.883 45.735 115.798 44.715 117.133 44.715C118.078 44.715 118.828 45.21 119.068 46.14L120.478 46.14C120.223 44.505 118.933 43.455 117.088 43.455C114.943 43.455 113.488 45.045 113.488 47.34ZM125.146 51.18C126.961 51.18 128.191 50.295 128.551 48.72L127.231 48.72C126.991 49.56 126.271 50.01 125.176 50.01C123.781 50.01 122.971 49.155 122.866 47.61L128.536 47.595L128.536 47.07C128.536 44.895 127.171 43.455 125.086 43.455C122.956 43.455 121.501 45.045 121.501 47.34C121.501 49.62 122.986 51.18 125.146 51.18ZM125.086 44.64C126.331 44.64 127.126 45.45 127.126 46.665L122.896 46.665C123.076 45.375 123.856 44.64 125.086 44.64ZM137.924 43.08C137.924 44.64 138.839 45.66 140.609 46.065L142.394 46.47C143.429 46.71 143.894 47.25 143.894 48.105C143.894 49.185 142.979 49.86 141.539 49.86C140.174 49.86 139.304 49.2 139.274 48.165L137.774 48.165C137.864 50.025 139.334 51.18 141.539 51.18C143.849 51.18 145.364 49.935 145.364 47.985C145.364 46.455 144.464 45.495 142.694 45.09L140.909 44.67C139.889 44.43 139.394 43.905 139.394 43.035C139.394 41.97 140.279 41.28 141.644 41.28C142.859 41.28 143.624 41.91 143.699 42.99L145.184 42.99C145.064 41.115 143.729 39.96 141.659 39.96C139.424 39.96 137.924 41.22 137.924 43.08ZM149.041 51L149.041 44.85L150.481 44.85L150.481 43.665L149.041 43.665L149.041 41.37L147.631 41.37L147.631 43.665L146.191 43.665L146.191 44.85L147.631 44.85L147.631 51L149.041 51ZM153.804 51.18C154.989 51.18 155.994 50.655 156.369 49.815L156.519 51L157.719 51L157.719 46.395C157.719 44.415 156.489 43.455 154.674 43.455C152.784 43.455 151.524 44.46 151.524 45.99L152.754 45.99C152.754 45.105 153.429 44.58 154.614 44.58C155.604 44.58 156.339 45.015 156.339 46.245L156.339 46.455L154.029 46.635C152.304 46.77 151.299 47.61 151.299 48.96C151.299 50.295 152.229 51.18 153.804 51.18ZM154.209 50.085C153.294 50.085 152.724 49.695 152.724 48.915C152.724 48.195 153.234 47.715 154.479 47.595L156.354 47.445L156.354 47.835C156.354 49.215 155.544 50.085 154.209 50.085ZM161.624 51L161.624 44.85L163.064 44.85L163.064 43.665L161.624 43.665L161.624 41.37L160.214 41.37L160.214 43.665L158.774 43.665L158.774 44.85L160.214 44.85L160.214 51L161.624 51ZM169.4 43.665L169.4 47.535C169.4 49.11 168.695 49.935 167.405 49.935C166.325 49.935 165.65 49.335 165.65 47.76L165.65 43.665L164.24 43.665L164.24 48.225C164.24 50.025 165.2 51.18 166.91 51.18C167.99 51.18 168.965 50.655 169.385 49.89L169.535 51L170.795 51L170.795 43.665L169.4 43.665ZM172.094 48.87C172.094 50.265 173.189 51.18 174.914 51.18C176.654 51.18 177.854 50.295 177.854 48.9C177.854 47.805 177.239 47.235 175.994 46.935L174.704 46.62C173.984 46.44 173.624 46.11 173.624 45.615C173.624 44.94 174.119 44.55 175.004 44.55C175.859 44.55 176.354 45.015 176.384 45.75L177.734 45.75C177.704 44.355 176.654 43.455 175.049 43.455C173.429 43.455 172.289 44.31 172.289 45.66C172.289 46.74 172.904 47.385 174.209 47.7L175.499 48C176.264 48.195 176.504 48.495 176.504 48.99C176.504 49.665 175.934 50.07 174.944 50.07C174.014 50.07 173.444 49.62 173.444 48.87L172.094 48.87Z" fill="#3D4066"/>
<path d="M426.049 132.444L420.662 137.831L415.276 143.217L409.89 148.603H409.889L404.503 153.989L399.116 159.376H399.115L393.729 164.762L388.343 170.148L382.956 175.534L377.569 180.92V180.919L372.182 186.307L366.795 191.693L361.409 197.079L361.407 197.078L356.021 202.465L350.635 207.851H350.634L345.248 213.238L339.861 218.624V218.623L334.474 224.01V224.009L334.007 224.476C334.277 224.536 334.543 224.604 334.815 224.662L335.757 223.72L341.143 218.334L346.53 212.948L351.916 207.563L357.304 202.176V202.177L362.691 196.789L368.077 191.403L368.078 191.404L373.465 186.018L378.851 180.631L378.852 180.632L384.238 175.244V175.246L389.624 169.859L395.012 164.472L400.398 159.086L405.785 153.7V153.701L411.171 148.315L416.559 142.927V142.928L421.945 137.542H421.946L427.332 132.156L431.845 127.642C431.787 127.372 431.719 127.106 431.659 126.837L431.436 127.058L426.049 132.444" fill="#81A4FF"/>
<path d="M432.538 131.343L431.436 132.445L426.049 137.831L420.662 143.217L415.276 148.603L409.89 153.989H409.889L404.503 159.376L399.116 164.762H399.115L393.729 170.148L388.343 175.534L382.956 180.921V180.919L377.569 186.307L372.182 191.693L366.796 197.079L366.795 197.078L361.409 202.465H361.407L350.635 213.238H350.634L345.248 218.624V218.623L339.861 224.009L338.516 225.356C338.797 225.402 339.075 225.462 339.358 225.507L346.53 218.334L351.916 212.948L357.304 207.562V207.563L362.691 202.177L368.077 196.789H368.078L373.465 191.404L378.851 186.017L378.852 186.018L384.238 180.631V180.632L389.624 175.246L395.012 169.858V169.86L400.398 164.472L405.785 159.086L411.171 153.701L416.559 148.314V148.315L421.946 142.927V142.928L427.332 137.542L432.688 132.185C432.644 131.902 432.585 131.626 432.538 131.343" fill="#81A4FF"/>
<path d="M433.189 136.079L431.436 137.831L426.05 143.217H426.049L420.662 148.603L415.276 153.989L409.89 159.376H409.889L404.503 164.762L399.116 170.148H399.115L393.729 175.534L388.343 180.921V180.919L382.956 186.307L377.569 191.693L372.182 197.079V197.078L366.795 202.465L361.409 207.852H361.407L350.635 218.624L350.634 218.623L345.248 224.01V224.009L343.251 226.007C343.552 226.039 343.856 226.063 344.159 226.092L346.53 223.72L351.916 218.334L357.304 212.948L362.69 207.563H362.691L368.077 202.176L368.078 202.177L373.465 196.789L378.851 191.403L378.852 191.404L384.238 186.017V186.018L389.624 180.632L395.01 175.245L395.012 175.246L400.398 169.859L405.785 164.472L411.171 159.086L416.559 153.7V153.701L421.946 148.315L427.332 142.928L432.718 137.541L432.72 137.542L433.272 136.988C433.244 136.685 433.22 136.381 433.189 136.079" fill="#81A4FF"/>
<path d="M433.556 141.098L431.436 143.217L426.049 148.603L420.662 153.989L415.276 159.376L409.89 164.762H409.889L404.503 170.148L399.116 175.534H399.115L393.729 180.92V180.919L388.343 186.307L382.956 191.693L377.569 197.079V197.078L372.182 202.465L361.409 213.238H361.407L356.021 218.624V218.623L350.635 224.01L350.634 224.009L348.268 226.376C348.59 226.39 348.915 226.39 349.238 226.4L357.304 218.334L362.691 212.948L368.077 207.562L368.078 207.563L373.465 202.177L378.851 196.789H378.852L384.238 191.403V191.404L389.624 186.018L395.012 180.631V180.632L400.398 175.246L405.785 169.858V169.859L411.171 164.472L416.559 159.086L421.945 153.7L421.946 153.701L427.332 148.315L432.718 142.927L432.72 142.928L433.58 142.066C433.57 141.744 433.57 141.419 433.556 141.098" fill="#81A4FF"/>
<path d="M433.605 146.435L431.436 148.603L426.049 153.99L420.662 159.376L415.276 164.762L409.89 170.148H409.889L404.503 175.534L399.116 180.921L399.115 180.919L393.729 186.307L388.343 191.693L382.956 197.079V197.078L377.569 202.465L372.182 207.852L361.409 218.624L361.407 218.623L356.021 224.009L353.607 226.425C353.947 226.418 354.285 226.41 354.625 226.399L357.304 223.721L362.69 218.334H362.691L368.077 212.948H368.078L373.465 207.563L378.851 202.176L378.852 202.177L384.238 196.79L389.624 191.404L395.012 186.017V186.018L400.398 180.632L405.785 175.245V175.246L411.171 169.86L416.559 164.472L421.946 159.086L427.332 153.701L432.718 148.314L432.72 148.315L433.579 147.455C433.59 147.115 433.598 146.775 433.605 146.435" fill="#81A4FF"/>
<path d="M433.299 152.126L431.436 153.989L426.049 159.376L420.662 164.762L415.276 170.148L409.89 175.534H409.889L404.503 180.92V180.919L399.116 186.307H399.115L393.729 191.693L388.343 197.079V197.078L382.956 202.465L372.182 213.238L366.796 218.624L366.795 218.623L361.409 224.01L361.407 224.009L359.297 226.119C359.658 226.087 360.021 226.068 360.379 226.031L368.077 218.334H368.078L373.465 212.948L378.851 207.562L378.852 207.563L384.238 202.176V202.177L389.624 196.789L395.011 191.403L395.012 191.404L400.398 186.018L405.785 180.631V180.632L411.171 175.246L416.559 169.858V169.859L421.946 164.472L427.332 159.086L432.718 153.7L432.72 153.701L433.211 153.208C433.248 152.851 433.267 152.486 433.299 152.126" fill="#81A4FF"/>
<path d="M426.231 110.718L426.049 110.9L420.662 116.287V116.286L415.276 121.673L409.89 127.059L409.889 127.058L404.503 132.445L399.116 137.831H399.115L393.729 143.217L388.343 148.603L382.956 153.989L377.569 159.376L372.182 164.762L366.795 170.148L361.409 175.534H361.407L356.021 180.92V180.919L350.635 186.307H350.634L345.248 191.693L339.861 197.079V197.078L334.474 202.465L323.701 213.238L318.314 218.624V218.623L317.891 219.046C318.118 219.15 318.346 219.253 318.574 219.356L319.596 218.334H319.597L324.983 212.948L330.369 207.562L330.37 207.563L335.757 202.176V202.177L341.143 196.789L346.53 191.403V191.404L351.916 186.018L357.304 180.631V180.632L362.69 175.246H362.691L368.077 169.858L368.078 169.859L373.465 164.472L378.851 159.086H378.852L384.238 153.7V153.701L389.624 148.315L395.012 142.927V142.928L400.398 137.542L405.785 132.155V132.156L411.171 126.77L416.559 121.382V121.384L421.946 115.997L426.54 111.403C426.437 111.174 426.335 110.947 426.231 110.718" fill="#81A4FF"/>
<path d="M427.845 114.491L426.049 116.286L420.662 121.673L415.276 127.058L409.89 132.446L409.889 132.444L404.503 137.831L399.116 143.217H399.115L393.729 148.603L388.343 153.989L382.956 159.376L377.569 164.762L372.182 170.148L366.795 175.534L361.409 180.92L361.407 180.919L356.021 186.307L350.635 191.693H350.634L345.248 197.079V197.078L339.861 202.465L334.474 207.851L323.701 218.624V218.623L321.663 220.661C321.9 220.755 322.137 220.849 322.376 220.941L324.983 218.334L330.369 212.948H330.37L335.757 207.562V207.563L341.143 202.177L346.53 196.789L351.916 191.404L357.304 186.017V186.018L362.691 180.632L368.077 175.244L368.078 175.246L373.465 169.859L378.851 164.472H378.852L384.238 159.086L389.624 153.701L395.012 148.313V148.315L400.398 142.928L405.785 137.541V137.542L411.171 132.156L416.559 126.769V126.77L421.945 121.383H421.946L427.332 115.997L428.127 115.203C428.034 114.965 427.939 114.728 427.845 114.491" fill="#81A4FF"/>
<path d="M429.547 119.167C429.466 118.92 429.38 118.674 429.297 118.425L426.049 121.673L420.662 127.06V127.058L415.276 132.445L409.89 137.831H409.889L404.503 143.217L399.116 148.603H399.115L393.729 153.99L388.343 159.376L382.956 164.762L377.569 170.148L372.182 175.534L366.796 180.921L366.795 180.919L361.409 186.307H361.407L356.021 191.693L350.635 197.079L350.634 197.078L345.248 202.465L334.474 213.238L329.088 218.624V218.623L325.598 222.113C325.846 222.197 326.092 222.282 326.34 222.365L330.369 218.334H330.37L335.757 212.948L341.143 207.563L346.53 202.176V202.177L351.916 196.789L357.304 191.403V191.404L362.691 186.018L368.077 180.631L368.078 180.632L373.465 175.246L378.851 169.858L378.852 169.86L384.238 164.472L389.624 159.086L395.01 153.7L395.012 153.701L400.398 148.315L405.785 142.927V142.929L411.171 137.542L416.559 132.155V132.156L421.946 126.769V126.77L427.332 121.384L429.547 119.167" fill="#81A4FF"/>
<path d="M426.049 170.148L420.662 175.534L415.276 180.92V180.919L409.89 186.307H409.889L404.503 191.693L399.116 197.079L399.115 197.078L393.729 202.465L382.956 213.238L377.569 218.624V218.623L372.286 223.906C372.75 223.788 373.206 223.645 373.667 223.518L378.851 218.334H378.852L384.238 212.948L389.624 207.563L395.012 202.176V202.177L400.398 196.789L405.785 191.403V191.404L411.171 186.018L416.559 180.631V180.632L421.945 175.245L421.946 175.246L427.332 169.859L430.695 166.496C430.823 166.033 430.967 165.577 431.086 165.112L426.049 170.148" fill="#81A4FF"/>
<path d="M420.496 100.294L415.277 105.514H415.276L409.889 110.901V110.9L404.503 116.286L399.116 121.674L399.115 121.672L393.729 127.059L388.343 132.445L382.956 137.831L377.569 143.217L372.182 148.603L366.795 153.99L361.409 159.376H361.407L356.021 164.762L350.635 170.148H350.634L345.248 175.534L339.861 180.921V180.92L334.474 186.307L329.088 191.693L323.701 197.079V197.078L318.314 202.466L312.927 207.852L307.54 213.238L307.467 213.311C307.667 213.442 307.87 213.57 308.072 213.699L308.822 212.947L308.823 212.948L314.21 207.562L319.596 202.176H319.597L324.983 196.79L330.369 191.403L330.37 191.404L335.757 186.017V186.018L341.143 180.632L346.53 175.245V175.246L351.916 169.86L357.304 164.472L362.691 159.086L368.077 153.7L368.078 153.701L373.465 148.315L378.851 142.928L378.852 142.929L384.238 137.542L389.624 132.156L395.012 126.769V126.77L400.398 121.384L405.785 115.996V115.998L411.171 110.611L416.559 105.224V105.225L420.885 100.899C420.755 100.697 420.627 100.495 420.496 100.294" fill="#81A4FF"/>
<path d="M422.912 104.259C422.792 104.048 422.671 103.838 422.55 103.628L420.662 105.515V105.513L415.276 110.9L409.889 116.287V116.286L404.503 121.672L399.116 127.059L399.115 127.058L393.729 132.444L388.343 137.831L382.956 143.217L377.569 148.603L372.182 153.989L366.795 159.376L361.409 164.762H361.407L356.021 170.148L350.635 175.534H350.634L345.248 180.92V180.919L339.861 186.307L334.474 191.693L329.088 197.079V197.078L323.701 202.465L312.927 213.238L310.8 215.364C311.01 215.486 311.22 215.606 311.431 215.727L314.21 212.948L319.596 207.562H319.597L324.983 202.176L330.369 196.789H330.37L335.757 191.403V191.404L341.143 186.018L346.53 180.631V180.632L351.916 175.246L357.304 169.858V169.859L362.691 164.472L368.077 159.086H368.078L373.465 153.701L378.851 148.313L378.852 148.315L384.238 142.927V142.928L389.624 137.542L395.012 132.155V132.156L400.398 126.77L405.785 121.382V121.383L411.171 115.997L416.559 110.61V110.611L421.946 105.224V105.225L422.912 104.259" fill="#81A4FF"/>
<path d="M414.008 91.6158C413.855 91.4375 413.701 91.2603 413.548 91.0843L409.889 94.7423V94.7412L404.503 100.127L399.116 105.515L399.115 105.514L393.729 110.9L388.343 116.286L382.956 121.673V121.672L377.569 127.058L372.182 132.446V132.445L366.795 137.831L361.409 143.217H361.407L356.021 148.603L350.635 153.989H350.634L345.248 159.376L339.861 164.762L334.474 170.148L329.088 175.534L323.701 180.921V180.919L318.314 186.307L312.927 191.693L307.541 197.079L307.54 197.078L302.154 202.465L298.258 206.361C298.434 206.516 298.611 206.669 298.791 206.822L303.436 202.176L308.822 196.789H308.823L314.21 191.404L319.596 186.017L319.597 186.018L324.983 180.632L330.369 175.245L330.37 175.246L335.757 169.86L341.143 164.472L346.53 159.086L351.916 153.701L357.304 148.314V148.315L362.691 142.928L368.077 137.541L368.078 137.542L373.465 132.156L378.851 126.769L378.852 126.77L384.238 121.384L389.624 115.997L395.012 110.61V110.611L400.398 105.225L405.785 99.8377V99.8388L411.171 94.4526L414.008 91.6158" fill="#81A4FF"/>
<path d="M410.976 88.2684L409.889 89.3559V89.3548L404.503 94.741L399.116 100.128L399.115 100.127L393.729 105.513L388.343 110.9L382.956 116.287V116.286L377.569 121.672L372.182 127.059V127.058L366.795 132.444L361.409 137.831H361.407L356.021 143.217L350.635 148.603H350.634L345.248 153.989L339.862 159.375L334.475 164.762H334.474L329.088 170.148L323.701 175.534L318.314 180.92V180.919L312.927 186.307L307.54 191.693L302.154 197.079V197.078L296.767 202.465H296.766L295.443 203.79C295.611 203.952 295.779 204.114 295.951 204.275L298.05 202.175L303.436 196.789L308.822 191.403L308.823 191.404L314.21 186.018L319.596 180.631L319.597 180.632L324.983 175.246L330.369 169.858L330.37 169.859L335.757 164.472L341.143 159.086L346.53 153.7V153.701L351.916 148.314L357.304 142.927V142.928L362.69 137.542H362.691L368.077 132.155L368.078 132.156L373.465 126.77L378.851 121.382L378.852 121.383L384.238 115.997L389.624 110.611L395.012 105.224V105.225L400.398 99.8386L405.785 94.4524L411.171 89.0662L411.462 88.7765C411.301 88.606 411.139 88.4366 410.976 88.2684" fill="#81A4FF"/>
<path d="M416.429 94.5818C416.285 94.3946 416.139 94.2096 415.992 94.0247L415.276 94.7411L409.889 100.128V100.127L404.503 105.514L399.116 110.901L399.115 110.9L393.729 116.286L388.343 121.672L382.956 127.059V127.058L377.569 132.445L372.182 137.831L366.796 143.217H366.795L361.409 148.603H361.407L356.021 153.989L350.635 159.376H350.634L345.248 164.762L339.861 170.148L334.474 175.534L329.088 180.92V180.919L323.701 186.307L318.314 191.693L312.927 197.079V197.078L307.54 202.465L301.199 208.806C301.384 208.952 301.569 209.098 301.755 209.243L303.435 207.562H303.436L308.822 202.176H308.823L314.21 196.789L319.596 191.403L319.597 191.404L324.983 186.018L330.369 180.631L330.37 180.632L335.757 175.245V175.246L341.143 169.859L346.53 164.472L351.916 159.086L357.304 153.7V153.701L362.691 148.315L368.077 142.927L368.078 142.928L373.465 137.542L378.851 132.155L378.852 132.156L384.238 126.769V126.77L389.624 121.384L395.012 115.996V115.997L400.398 110.611L405.785 105.224V105.225L411.171 99.8387L416.429 94.5818" fill="#81A4FF"/>
<path d="M408.789 86.0614C408.622 85.8987 408.452 85.7394 408.281 85.5767L404.503 89.3551L399.116 94.7424L399.115 94.7413L393.729 100.129V100.127L388.343 105.514L382.956 110.901V110.9L377.569 116.286L372.182 121.673V121.672L366.796 127.059H366.795L361.409 132.446L361.407 132.445L356.021 137.831L350.635 143.217H350.634L345.248 148.603L339.861 153.99L334.474 159.376L329.088 164.762L323.701 170.148L318.314 175.534L312.927 180.921V180.92L307.54 186.307L302.154 191.693L296.767 197.079L296.766 197.078L292.752 201.094C292.913 201.264 293.074 201.435 293.236 201.603L298.05 196.79L303.435 191.404H303.436L308.822 186.017L308.823 186.018L314.21 180.632L319.596 175.245L319.597 175.246L324.983 169.86L330.369 164.472H330.37L335.757 159.086L341.143 153.701L346.53 148.314V148.315L351.916 142.929L357.304 137.541V137.542L362.691 132.156L368.077 126.769L368.078 126.77L373.463 121.384H373.465L378.851 115.996L378.852 115.998L384.238 110.611L389.624 105.225L395.01 99.8378L395.012 99.8389L400.398 94.4527L405.785 89.0665L408.789 86.0614" fill="#81A4FF"/>
<path d="M399.116 83.9696H399.115L393.729 89.3547L388.343 94.7409L382.956 100.128V100.127L377.569 105.513L372.182 110.901V110.9L366.795 116.286L361.409 121.673L361.407 121.672L356.021 127.058L350.635 132.445L350.634 132.444L345.248 137.831L339.861 143.217L334.474 148.603L329.088 153.989L323.701 159.375L318.314 164.762L312.927 170.148L307.54 175.534L302.154 180.92V180.919L296.767 186.306H296.766L291.38 191.693L287.745 195.327C287.891 195.512 288.035 195.699 288.182 195.883L292.664 191.403V191.404L298.05 186.017V186.018L303.436 180.632L308.822 175.244L308.823 175.245L314.21 169.859L319.596 164.472H319.597L324.983 159.086L330.369 153.699L330.37 153.701L335.757 148.314L341.143 142.928L346.53 137.541V137.542L351.916 132.156L357.304 126.768V126.77L362.69 121.383H362.691L368.077 115.996L368.078 115.997L373.465 110.611L378.851 105.224L378.852 105.225L384.238 99.8385L389.624 94.4523L395.012 89.0661L400.398 83.6799L403.071 81.0069C402.887 80.8598 402.699 80.716 402.514 80.5701L399.116 83.9696" fill="#81A4FF"/>
<path d="M389.829 217.137C390.564 216.752 391.289 216.355 392.011 215.949L395.012 212.948L400.398 207.563L405.785 202.176V202.177L411.171 196.789L416.559 191.403V191.404L421.946 186.017V186.018L423.123 184.839C423.532 184.118 423.928 183.391 424.314 182.655L420.662 186.307L415.276 191.693L409.89 197.079L409.889 197.078L404.503 202.465L399.115 207.851L393.729 213.238L389.829 217.137" fill="#81A4FF"/>
<path d="M380.105 221.473C380.658 221.269 381.2 221.041 381.747 220.826L384.238 218.334L389.624 212.948L395.011 207.562L395.012 207.563L400.398 202.177L405.785 196.789L411.171 191.404L416.559 186.017V186.018L421.946 180.631V180.632L427.332 175.246L428.003 174.574C428.218 174.027 428.447 173.486 428.649 172.934L426.049 175.534L420.662 180.92V180.919L415.276 186.307L409.89 191.693H409.889L404.503 197.079V197.078L399.117 202.465H399.115L393.729 207.851L382.956 218.624V218.623L380.105 221.473" fill="#81A4FF"/>
<path d="M377.569 73.1962L372.182 78.5836V78.5824L366.795 83.9698L361.409 89.356L361.407 89.3549L356.021 94.741L350.635 100.128L350.634 100.127L345.248 105.513L339.862 110.9L334.474 116.287V116.286L329.088 121.673L323.701 127.059V127.058L318.314 132.445L312.927 137.831L307.541 143.217H307.54L302.154 148.603L296.767 153.989H296.766L291.38 159.376L285.994 164.762H285.993L280.607 170.148L275.925 174.83C276.019 175.067 276.109 175.306 276.205 175.542L276.503 175.246L281.89 169.858V169.859L287.276 164.472L292.664 159.086L298.05 153.7V153.701L303.436 148.315L308.822 142.927L308.823 142.928L314.21 137.542L319.596 132.155L319.597 132.156L324.983 126.77L330.369 121.382L330.37 121.384L335.757 115.997L341.143 110.611L346.53 105.224V105.225L351.916 99.8387L357.304 94.4525L362.691 89.0663L368.077 83.6801H368.078L373.465 78.2939L378.851 72.9065L378.852 72.9076L382.732 69.0279C382.495 68.9321 382.256 68.8407 382.019 68.7471L377.569 73.1962" fill="#81A4FF"/>
<path d="M366.795 67.8111L361.409 73.1973L361.407 73.1962L356.021 78.5824L350.635 83.9697H350.634L345.248 89.3548L339.861 94.741L334.474 100.128V100.127L329.088 105.513L323.701 110.901V110.9L318.314 116.286L312.927 121.673L307.541 127.058H307.54L302.154 132.444L296.767 137.831H296.766L291.38 143.217L285.994 148.603H285.993L280.607 153.989L275.219 159.375L272.131 162.465C272.191 162.735 272.254 163.003 272.317 163.272L276.503 159.086L281.889 153.7L281.89 153.701L287.276 148.314L292.664 142.927V142.928L298.05 137.542L303.436 132.156L308.822 126.769L308.823 126.77L314.208 121.383H314.21L319.596 115.996L319.597 115.997L324.983 110.611L330.369 105.224L330.37 105.225L335.757 99.8386L341.143 94.4524L346.53 89.0662L351.916 83.68L357.304 78.2927V78.2938L362.691 72.9076L368.077 67.5203L368.078 67.5214L370.462 65.138C370.193 65.0756 369.924 65.0121 369.654 64.952L366.795 67.8111" fill="#81A4FF"/>
<path d="M368.078 223.72L373.465 218.334L378.851 212.948H378.852L384.238 207.562V207.563L389.624 202.177L395.012 196.789L400.398 191.404L405.785 186.017V186.018L411.171 180.632L416.559 175.244V175.246L421.946 169.859L427.332 164.472L432.289 159.515C432.362 159.113 432.438 158.711 432.505 158.307L431.436 159.376L426.05 164.762H426.049L420.662 170.148L415.276 175.534L409.89 180.92L409.889 180.919L404.503 186.307L399.116 191.693H399.115L393.729 197.079V197.078L388.343 202.465L382.956 207.851L372.182 218.624V218.623L366.795 224.009L365.479 225.326C365.882 225.258 366.286 225.183 366.688 225.11L368.077 223.72H368.078" fill="#81A4FF"/>
<path d="M356.021 67.8111L350.635 73.1973L350.634 73.1962L345.248 78.5824L339.862 83.9697L334.475 89.356L334.474 89.3548L329.088 94.741L323.701 100.128V100.127L318.314 105.513L312.927 110.901V110.9L307.54 116.286L302.154 121.673L296.767 127.059L296.766 127.058L291.38 132.445L285.994 137.831H285.993L280.607 143.217L275.219 148.603L270.615 153.207C270.646 153.502 270.694 153.793 270.728 154.087L271.116 153.7L271.117 153.701L276.503 148.315L281.89 142.927V142.928L287.276 137.542L292.664 132.155V132.156L298.05 126.769V126.77L303.436 121.384L308.822 115.996L308.823 115.997L314.21 110.611L319.596 105.224L319.597 105.225L324.983 99.8387L330.369 94.4525H330.371L335.757 89.0663L341.143 83.6801L346.53 78.2927V78.2938L351.916 72.9076L357.304 67.5203V67.5214L361.278 63.5481C360.983 63.5135 360.692 63.4667 360.397 63.4355L356.021 67.8111" fill="#81A4FF"/>
<path d="M345.248 67.8111L339.861 73.1962L334.474 78.5836V78.5825L329.088 83.9698L323.701 89.356V89.3549L318.314 94.7411L312.927 100.128V100.127L307.541 105.513H307.54L302.154 110.9L296.767 116.287L296.766 116.286L291.38 121.673L285.994 127.059L285.993 127.058L280.607 132.445L275.219 137.831L270.227 142.823C270.22 143.162 270.204 143.501 270.201 143.842L271.117 142.927V142.928L276.503 137.542L281.89 132.155V132.156L287.276 126.77L292.664 121.382V121.384L298.05 115.997L303.436 110.611L308.822 105.224L308.823 105.225L314.21 99.8387L319.596 94.4525H319.597L324.983 89.0663L330.369 83.6801H330.37L335.757 78.2939L341.143 72.9076L346.53 67.5203V67.5215L351.032 63.021C350.691 63.0244 350.352 63.0389 350.012 63.0467L345.248 67.8111Z" fill="#81A4FF"/>
<path d="M334.474 67.8111L329.088 73.1962L323.701 78.5835V78.5824L318.314 83.9697L312.927 89.3559V89.3548L307.54 94.7421V94.741L302.154 100.127L296.767 105.515L296.766 105.513L291.38 110.9L285.994 116.287L285.993 116.286L280.607 121.673L275.22 127.059L275.219 127.058L271.365 130.912C271.297 131.316 271.214 131.716 271.15 132.121L276.503 126.77L281.889 121.382L281.89 121.383L287.276 115.997L292.664 110.61V110.611L298.05 105.224V105.225L303.436 99.8386L308.822 94.4524H308.823L314.21 89.0662L319.596 83.68H319.597L324.983 78.2938L330.369 72.9065L330.37 72.9076L335.757 67.5214L339.311 63.9681C338.905 64.0305 338.505 64.114 338.102 64.1831L334.474 67.8111" fill="#81A4FF"/>
<path d="M335.757 218.334L341.143 212.948L346.53 207.562V207.563L351.916 202.177L357.304 196.789L362.69 191.404H362.691L368.077 186.017L368.078 186.018L373.465 180.632L378.851 175.244L378.852 175.246L384.238 169.859L389.624 164.472L395.012 159.086L400.398 153.701L405.785 148.313V148.315L411.171 142.928L416.559 137.541V137.542L421.946 132.156L427.332 126.77L430.791 123.309C430.722 123.05 430.644 122.794 430.572 122.536L426.05 127.058H426.049L420.662 132.446V132.444L415.276 137.831L409.89 143.217H409.889L404.503 148.603L399.116 153.989H399.115L393.729 159.376L388.343 164.762L382.956 170.148L377.569 175.534L372.182 180.92V180.919L366.795 186.307L361.409 191.693H361.407L356.021 197.079V197.078L350.635 202.465H350.634L345.248 207.851L334.474 218.624V218.623L329.709 223.389C329.966 223.462 330.223 223.539 330.482 223.609L335.757 218.334" fill="#81A4FF"/>
<path d="M332.571 65.321C332.135 65.4269 331.696 65.5216 331.264 65.6352L329.088 67.8113L323.701 73.1975V73.1964L318.314 78.5826L312.927 83.9699L307.541 89.355H307.54L302.154 94.7412L296.767 100.129L296.766 100.127L291.38 105.514L285.994 110.901L285.993 110.9L280.606 116.286L275.219 121.673L272.818 124.073C272.704 124.507 272.61 124.947 272.504 125.382L276.503 121.384L281.89 115.996V115.997L287.276 110.611L292.664 105.224V105.225L298.05 99.8389L303.436 94.4527L308.822 89.0665H308.823L314.21 83.6803L319.596 78.2929L319.597 78.294L324.983 72.9078L330.369 67.5205L330.37 67.5216L332.571 65.321" fill="#81A4FF"/>
<path d="M324.924 67.5803C324.41 67.7608 323.895 67.9347 323.386 68.1252L318.314 73.1961L312.927 78.5834V78.5823L307.54 83.9696L302.154 89.3547L296.767 94.742L296.766 94.7409L291.38 100.127L285.994 105.514L285.993 105.513L280.607 110.9L275.308 116.198C275.119 116.707 274.944 117.222 274.765 117.735L276.503 115.997L281.89 110.61V110.611L287.276 105.225L292.664 99.8374V99.8385L298.05 94.4523L303.436 89.0661L308.822 83.6799H308.823L314.21 78.2937L319.596 72.9064L319.597 72.9075L324.924 67.5803" fill="#81A4FF"/>
<path d="M319.596 212.948H319.597L324.983 207.563L330.369 202.176L330.37 202.177L335.757 196.789L341.143 191.404L346.53 186.017V186.018L351.916 180.632L357.304 175.245V175.246L362.691 169.86L368.077 164.472H368.078L373.465 159.086L378.851 153.7L378.852 153.701L384.238 148.315L389.624 142.928L395.011 137.541L395.012 137.542L400.398 132.156L405.785 126.769V126.77L411.171 121.384L416.559 115.996V115.997L421.946 110.611L424.798 107.758C424.688 107.538 424.576 107.319 424.463 107.1L420.662 110.901V110.9L415.276 116.286L409.89 121.673H409.889L404.503 127.058L399.116 132.446L399.115 132.445L393.729 137.831L388.343 143.217L382.956 148.603L377.569 153.99L372.182 159.376L366.796 164.762H366.795L361.409 170.148H361.407L356.021 175.534L350.635 180.921L350.634 180.919L345.248 186.307L339.862 191.693L334.475 197.079L334.474 197.078L329.088 202.465L323.701 207.852L314.273 217.278C314.49 217.392 314.711 217.503 314.929 217.615L319.596 212.948" fill="#81A4FF"/>
<path d="M313.585 72.5401L312.927 73.1975V73.1963L307.54 78.5826L302.154 83.9699L296.767 89.3561L296.766 89.355L291.38 94.7412L285.994 100.129L285.993 100.127L280.606 105.514L279.725 106.395C279.367 107.067 279.022 107.748 278.683 108.431L281.89 105.224V105.225L287.276 99.8388L292.664 94.4526L298.05 89.0664L303.436 83.6802L308.822 78.2929L308.823 78.294L314.21 72.9078L315.619 71.4983C314.936 71.837 314.256 72.1824 313.585 72.5401" fill="#81A4FF"/>
<path d="M308.822 207.562H308.823L314.21 202.176L319.596 196.789H319.597L324.983 191.404L330.369 186.017L330.37 186.018L335.757 180.631V180.632L341.143 175.246L346.53 169.858V169.86L351.916 164.472L357.304 159.086L362.69 153.701H362.691L368.077 148.314L368.078 148.315L373.465 142.929L378.851 137.541L378.852 137.542L384.238 132.156L389.624 126.77L395.011 121.383L395.012 121.384L400.398 115.997L405.785 110.61V110.611L411.171 105.225L416.559 99.8377V99.8388L418.723 97.675C418.586 97.4811 418.447 97.2872 418.309 97.0945L415.276 100.127L409.889 105.515V105.514L404.503 110.9L399.117 116.287L399.115 116.286L393.729 121.672L388.343 127.058L382.956 132.446V132.445L377.569 137.831L372.182 143.217L366.795 148.603L361.409 153.99H361.407L356.021 159.376L350.635 164.762H350.634L345.248 170.148L339.862 175.534L334.475 180.921L334.474 180.919L329.088 186.307L323.701 191.693L318.314 197.079V197.078L312.927 202.465L307.54 207.852L304.268 211.124C304.46 211.262 304.654 211.399 304.848 211.536L308.822 207.562" fill="#81A4FF"/>
<path d="M300.6 81.1308C296.083 84.7777 291.966 88.8959 288.316 93.4119L292.664 89.0664L298.05 83.6802L300.6 81.1308" fill="#81A4FF"/>
<path d="M290.186 198.274C290.339 198.451 290.491 198.629 290.647 198.806L292.664 196.789L298.05 191.403V191.404L303.436 186.018L308.822 180.631L308.823 180.632L314.21 175.246L319.596 169.858L319.597 169.859L324.983 164.472L330.369 159.086H330.37L335.757 153.7V153.701L341.143 148.315L346.53 142.927V142.928L351.916 137.542L357.304 132.155V132.156L362.691 126.77L368.077 121.382L368.078 121.384L373.465 115.997L378.851 110.61L378.852 110.611L384.238 105.224V105.225L389.624 99.8387L395.012 94.4525L400.398 89.0663L405.785 83.6801L405.992 83.4718C405.817 83.3169 405.638 83.1642 405.461 83.0105L404.503 83.9698L399.116 89.356L399.115 89.3549L393.729 94.7422V94.7411L388.343 100.127L382.956 105.515V105.514L377.569 110.9L372.182 116.287V116.286L366.795 121.672L361.409 127.059L361.407 127.058L356.021 132.445L350.635 137.831H350.634L345.248 143.217L339.861 148.603L334.474 153.989L329.088 159.376L323.701 164.762L318.314 170.148L312.927 175.534L307.541 180.92L307.54 180.919L302.154 186.307L296.767 191.693H296.766L291.38 197.079V197.078L290.186 198.274" fill="#81A4FF"/>
<path d="M285.432 192.252C285.57 192.446 285.705 192.641 285.846 192.834L287.276 191.404L292.664 186.017V186.018L298.05 180.631V180.632L303.435 175.246H303.436L308.822 169.858L308.823 169.86L314.21 164.472L319.596 159.086H319.597L324.983 153.701L330.369 148.314L330.37 148.315L335.757 142.927V142.929L341.143 137.542L346.53 132.155V132.156L351.916 126.77L357.304 121.383V121.384L362.691 115.997L368.077 110.61L368.078 110.611L373.465 105.225L378.851 99.8378L378.852 99.8389L384.238 94.4527L389.624 89.0665L395.01 83.6803H395.012L400.021 78.6707C399.83 78.5303 399.633 78.3966 399.442 78.2584L399.116 78.5838L399.115 78.5827L393.729 83.97L388.343 89.3551L382.956 94.7424V94.7413L377.569 100.127L372.182 105.515V105.514L366.795 110.9L361.409 116.287L361.407 116.286L356.021 121.672L350.635 127.06L350.634 127.059L345.248 132.445L339.861 137.831L334.475 143.217H334.474L329.088 148.603L323.701 153.99L318.314 159.376L312.927 164.762L307.54 170.148L302.154 175.534L296.767 180.921L296.766 180.919L291.38 186.307L285.994 191.693H285.993L285.432 192.252" fill="#81A4FF"/>
<path d="M279.295 182.232C279.409 182.45 279.517 182.671 279.632 182.888L281.89 180.631V180.632L287.276 175.246L292.664 169.858V169.859L298.05 164.472L303.436 159.086L308.822 153.7L308.823 153.701L314.21 148.315L319.596 142.927L319.597 142.928L324.983 137.542L330.369 132.155L330.37 132.156L335.757 126.769V126.77L341.143 121.384L346.53 115.996V115.997L351.916 110.611L357.304 105.224V105.225L362.69 99.8387H362.691L368.077 94.4525H368.078L373.465 89.0663L378.851 83.6801H378.852L384.238 78.2939L389.624 72.9077L390.077 72.4553C389.859 72.3406 389.639 72.2314 389.419 72.1199L388.343 73.1963L382.956 78.5836V78.5825L377.569 83.9698L372.182 89.356V89.3549L366.795 94.7411L361.409 100.128L361.407 100.127L356.022 105.514H356.021L350.635 110.901L350.634 110.9L345.248 116.286L339.861 121.673L334.475 127.059L334.474 127.058L329.088 132.445L323.701 137.831L318.314 143.217L312.927 148.603L307.54 153.989L302.154 159.376L296.767 164.762H296.766L291.38 170.148L285.994 175.534H285.993L280.606 180.92V180.919L279.295 182.232" fill="#81A4FF"/>
<path d="M281.889 175.245L281.89 175.246L287.276 169.86L292.664 164.472L298.05 159.086L303.436 153.701L308.822 148.314L308.823 148.315L314.21 142.928L319.596 137.541L319.597 137.542L324.983 132.156L330.369 126.769L330.37 126.77L335.757 121.384L341.143 115.997L346.53 110.61V110.611L351.916 105.225L357.304 99.8377V99.8388L362.691 94.4526L368.077 89.0664H368.078L373.465 83.6802L378.851 78.2929L378.852 78.294L384.238 72.9078L386.48 70.6659C386.254 70.5601 386.024 70.4598 385.796 70.3573L382.956 73.1975V73.1964L377.569 78.5826L372.182 83.9699L366.796 89.355H366.795L361.409 94.7423L361.407 94.7412L356.021 100.127L350.635 105.515L350.634 105.514L345.248 110.9L339.861 116.286L334.474 121.673L329.088 127.058L323.701 132.446V132.445L318.314 137.831L312.927 143.217L307.54 148.603L302.154 153.989L296.767 159.376H296.766L291.38 164.762L285.994 170.148H285.993L280.607 175.534L277.532 178.607C277.637 178.836 277.736 179.065 277.842 179.292L281.889 175.245" fill="#81A4FF"/>
<path d="M287.276 180.632L292.664 175.245V175.246L298.05 169.859L303.436 164.472L308.822 159.086H308.823L314.21 153.701L319.596 148.314L319.597 148.315L324.983 142.928L330.369 137.541L330.37 137.542L335.757 132.156L341.143 126.77L346.53 121.382V121.384L351.916 115.997L357.304 110.61V110.611L362.691 105.225L368.077 99.8376L368.078 99.8387L373.465 94.4525L378.851 89.0663H378.852L384.238 83.6801L389.624 78.2939L393.529 74.3896C393.319 74.266 393.107 74.149 392.898 74.0275L388.343 78.5825L382.956 83.9698L377.569 89.3549L372.182 94.7422V94.7411L366.795 100.127L361.409 105.515L361.407 105.514L356.021 110.9L350.635 116.287L350.634 116.286L345.248 121.673L339.861 127.058L334.474 132.446V132.445L329.088 137.831L323.701 143.217L318.314 148.603L312.927 153.989L307.54 159.376L302.154 164.762L296.767 170.148H296.766L291.38 175.534L285.994 180.92L285.993 180.919L281.203 185.709C281.325 185.919 281.442 186.132 281.567 186.34L281.89 186.017V186.018L287.276 180.632" fill="#81A4FF"/>
<path d="M283.251 189.049C283.381 189.249 283.508 189.454 283.639 189.654L287.276 186.018L292.664 180.631V180.632L298.05 175.245V175.246L303.436 169.859L308.822 164.472H308.823L314.21 159.086L319.596 153.7L319.597 153.701L324.983 148.315L330.369 142.927L330.37 142.928L335.757 137.542L341.143 132.156L346.53 126.769V126.77L351.916 121.384L357.304 115.996V115.997L362.691 110.611L368.077 105.224L368.078 105.225L373.465 99.8387L378.851 94.4525H378.852L384.238 89.0663L389.624 83.6801L395.012 78.2928V78.2939L396.842 76.4632C396.642 76.3318 396.438 76.2058 396.236 76.0755L393.729 78.5825L388.343 83.9698L382.956 89.356V89.3549L377.569 94.7411L372.182 100.128V100.127L366.796 105.514H366.795L361.409 110.901L361.407 110.9L356.021 116.286L350.635 121.673H350.634L345.248 127.058L339.861 132.445L334.474 137.831L329.088 143.217L323.701 148.603L318.314 153.989L312.927 159.376L307.541 164.762H307.54L302.154 170.148L296.767 175.534H296.766L291.38 180.92V180.919L285.994 186.307H285.993L283.251 189.049" fill="#81A4FF"/>
<path d="M270.544 137.12C270.512 137.476 270.49 137.836 270.463 138.194L271.115 137.541L271.117 137.542L276.503 132.156L281.89 126.768V126.77L287.276 121.383L292.664 115.996V115.997L298.05 110.611L303.436 105.225L308.822 99.8374L308.823 99.8385L314.21 94.4523L319.596 89.0661H319.597L324.983 83.6799L330.369 78.2926L330.37 78.2937L335.757 72.9075L341.143 67.5213L345.384 63.2816C345.026 63.3095 344.665 63.3295 344.308 63.363L339.861 67.811L334.475 73.1972L334.474 73.1961L329.088 78.5823L323.701 83.9696L318.314 89.3547L312.927 94.742V94.7409L307.54 100.128V100.127L302.154 105.513L296.767 110.901L296.766 110.9L291.38 116.286L285.994 121.673H285.993L280.606 127.058L275.219 132.446V132.444L270.544 137.12" fill="#81A4FF"/>
<path d="M270.265 148.171C270.28 148.489 270.283 148.811 270.3 149.13L271.117 148.313V148.314L276.503 142.928L281.889 137.541L281.89 137.542L287.276 132.156L292.664 126.769V126.77L298.05 121.383L303.436 115.997L308.822 110.61L308.823 110.611L314.21 105.225L319.596 99.8375L319.597 99.8386L324.983 94.4524L330.369 89.0662H330.37L335.757 83.68L341.143 78.2938L346.53 72.9065V72.9076L351.916 67.5214L356.319 63.1202C356 63.1034 355.679 63.099 355.36 63.0845L350.635 67.8111H350.634L345.248 73.1973V73.1962L339.861 78.5824L334.474 83.9697L329.088 89.3548L323.701 94.7421V94.741L318.314 100.127L312.927 105.515V105.513L307.54 110.9L302.154 116.286L296.767 121.673H296.766L291.38 127.058L285.994 132.446L285.993 132.444L280.607 137.831L275.22 143.217H275.219L270.265 148.171" fill="#81A4FF"/>
<path d="M271.258 157.95C271.305 158.233 271.359 158.512 271.408 158.794L276.503 153.701L281.89 148.313V148.315L287.276 142.928L292.664 137.541V137.542L298.05 132.156L303.436 126.77L308.822 121.382L308.823 121.384L314.21 115.997L319.596 110.61L319.597 110.611L324.983 105.225L330.369 99.8376L330.37 99.8387L335.757 94.4525L341.143 89.0663L346.53 83.6801L351.916 78.2939L357.304 72.9065V72.9076L362.691 67.5215L365.982 64.23C365.701 64.181 365.422 64.1252 365.14 64.0796L361.409 67.8111H361.407L356.021 73.1962L350.635 78.5836L350.634 78.5825L345.248 83.9698L339.861 89.3549L334.474 94.7422V94.7411L329.088 100.127L323.701 105.515V105.513L318.314 110.9L312.927 116.287V116.286L307.54 121.673L302.154 127.058L296.767 132.446L296.766 132.445L291.38 137.831L285.994 143.217H285.993L280.606 148.603L275.219 153.989L271.258 157.95" fill="#81A4FF"/>
<path d="M274.731 171.631L276.503 169.859L281.89 164.472L287.276 159.086L292.664 153.699V153.701L298.05 148.314L303.436 142.928L308.822 137.541L308.823 137.542L314.21 132.156L319.596 126.768L319.597 126.77L324.983 121.383L330.369 115.996L330.37 115.997L335.757 110.611L341.143 105.225L346.53 99.8374V99.8385L351.916 94.4523L357.304 89.0661L362.69 83.6799H362.691L368.077 78.2926L368.078 78.2937L373.465 72.9075L378.82 67.5525C378.573 67.4667 378.325 67.3853 378.077 67.3018L377.569 67.811L372.182 73.1972V73.1961L366.795 78.5823L361.409 83.9696H361.407L356.021 89.3547L350.635 94.742L350.634 94.7409L345.248 100.128V100.127L339.861 105.513L334.474 110.901V110.9L329.088 116.286L323.701 121.673L318.314 127.058L312.927 132.445V132.444L307.54 137.831L302.154 143.217L296.767 148.603H296.766L291.38 153.989L285.994 159.375H285.993L280.606 164.762L275.219 170.148L274.479 170.888C274.562 171.136 274.645 171.383 274.731 171.631" fill="#81A4FF"/>
<path d="M276.503 164.472L281.89 159.086L287.276 153.701L292.664 148.313V148.315L298.05 142.927V142.928L303.436 137.542L308.822 132.155L308.823 132.156L314.21 126.77L319.596 121.382L319.597 121.384L324.983 115.997L330.369 110.61L330.37 110.611L335.757 105.224V105.225L341.143 99.8387L346.53 94.4525L351.916 89.0663L357.304 83.6801L362.691 78.2939L368.077 72.9066L368.078 72.9077L373.465 67.5215L374.735 66.2512C374.477 66.1766 374.22 66.1042 373.96 66.0317L372.182 67.8112L366.796 73.1963H366.795L361.409 78.5836L361.407 78.5825L356.021 83.9698L350.635 89.356L350.634 89.3549L345.248 94.7422V94.7411L339.861 100.127L334.475 105.515L334.474 105.514L329.088 110.9L323.701 116.287V116.286L318.314 121.673L312.927 127.059V127.058L307.54 132.445L302.154 137.831L296.767 143.217H296.766L291.38 148.603L285.994 153.989H285.993L280.606 159.376L275.22 164.762H275.219L273.21 166.772C273.282 167.03 273.354 167.288 273.43 167.545L276.503 164.472" fill="#81A4FF"/>
<path d="M406.326 71.6665C406.242 71.6208 406.173 71.535 406.146 71.4013C406.12 71.2643 406.204 71.1205 406.326 71.0659V71.6665" fill="#3D4066"/>
<path d="M406.326 75.5217C406.181 75.4682 406.064 75.3089 406.132 75.0805C406.16 74.9869 406.236 74.9167 406.326 74.8844V75.5217" fill="#3D4066"/>
<path d="M404.987 75.7234C404.801 75.7234 404.601 75.544 404.685 75.261C404.723 75.1317 404.855 75.046 404.983 75.046C405.035 75.046 405.088 75.0604 405.132 75.0927C405.269 75.1886 405.254 75.4025 405.25 75.4504C405.234 75.6398 405.114 75.7234 404.987 75.7234Z" fill="#3D4066"/>
<path d="M406.259 73.6665C406.073 73.6665 405.872 73.4882 405.956 73.2052C405.995 73.0771 406.126 72.9913 406.254 72.9913C406.279 72.9913 406.302 72.9935 406.326 73.0002V73.6587C406.303 73.6643 406.281 73.6665 406.259 73.6665Z" fill="#3D4066"/>
<path d="M404.513 73.8325C404.27 73.8325 404.087 73.4581 404.397 73.2286C404.447 73.1918 404.508 73.174 404.57 73.174C404.692 73.174 404.816 73.2442 404.855 73.3634C404.906 73.5228 404.766 73.6843 404.733 73.72C404.662 73.8002 404.585 73.8325 404.513 73.8325Z" fill="#3D4066"/>
<path d="M404.952 71.9072C404.733 71.9072 404.525 71.6142 404.75 71.3412C404.808 71.2721 404.897 71.2365 404.985 71.2365C405.081 71.2365 405.176 71.2777 405.228 71.3613C405.316 71.5028 405.219 71.6944 405.197 71.7367C405.132 71.8571 405.042 71.9072 404.952 71.9072Z" fill="#3D4066"/>
<path d="M403.393 75.1997C403.241 75.1997 403.079 75.0939 403.058 74.861C403.042 74.6927 403.19 74.5323 403.353 74.5323C403.372 74.5323 403.391 74.5345 403.41 74.539C403.573 74.5769 403.639 74.7819 403.653 74.8275C403.725 75.0649 403.566 75.1997 403.393 75.1997" fill="#3D4066"/>
<path d="M406.482 71.7053C406.428 71.7053 406.375 71.6931 406.326 71.6663V71.0658C406.359 71.0513 406.395 71.0424 406.433 71.0424C406.443 71.0424 406.454 71.0435 406.464 71.0446C406.63 71.0658 406.717 71.2619 406.735 71.3064C406.837 71.5505 406.667 71.7053 406.482 71.7053Z" fill="#3D4066"/>
<path d="M406.435 75.5417C406.398 75.5417 406.361 75.535 406.326 75.5217V74.8843C406.359 74.8732 406.395 74.8665 406.43 74.8665C406.483 74.8665 406.534 74.8799 406.578 74.9111C406.716 75.008 406.701 75.2219 406.697 75.2699C406.681 75.4593 406.561 75.5417 406.435 75.5417" fill="#3D4066"/>
<path d="M406.326 73.6587V73.0002C406.352 73.008 406.379 73.0191 406.402 73.037C406.541 73.1328 406.525 73.3467 406.521 73.3946C406.507 73.5495 406.425 73.6342 406.326 73.6587Z" fill="#3D4066"/>
<path d="M14.8376 92.6564L14.5747 186.745Z" fill="white"/>
<path d="M152.246 80.0912L152.099 144.122Z" fill="#E9EAE1"/>
<path d="M401.928 3.48866H401.371C401.368 4.80234 400.305 5.86645 398.992 5.86868C397.678 5.86645 396.615 4.80234 396.613 3.48866C396.615 2.17498 397.678 1.11201 398.992 1.10979C400.305 1.11201 401.368 2.17498 401.371 3.48866H401.928H402.485C402.485 1.55992 400.922 -0.00444896 398.992 -0.00444896C397.062 -0.00444896 395.499 1.55992 395.499 3.48866C395.499 5.41851 397.062 6.98291 398.992 6.98291C400.922 6.98291 402.485 5.41851 402.485 3.48866H401.928Z" fill="#171938"/>
<path d="M261.567 28.9996H261.134C261.134 30.1433 260.672 31.1736 259.923 31.9231C259.174 32.6717 258.143 33.1335 257 33.1335C255.858 33.1335 254.826 32.6717 254.077 31.9231C253.328 31.1736 252.866 30.1425 252.866 28.9996C252.866 27.8576 253.328 26.8265 254.077 26.077C254.826 25.3283 255.858 24.8665 257 24.8665C258.143 24.8665 259.174 25.3283 259.923 26.077C260.672 26.8265 261.134 27.8567 261.134 28.9996H261.567H262C262 26.2381 259.762 24 257 24C254.239 24 252 26.2381 252 28.9996C252 31.7619 254.239 34 257 34C259.762 34 262 31.7619 262 28.9996H261.567Z" fill="#171938"/>
<path d="M143.845 255.507H143.287C143.286 256.976 142.692 258.301 141.73 259.265C140.766 260.229 139.441 260.823 137.971 260.823C136.502 260.823 135.176 260.229 134.212 259.265C133.249 258.301 132.655 256.976 132.655 255.507C132.655 254.037 133.249 252.711 134.212 251.747C135.176 250.784 136.502 250.191 137.971 250.191C139.441 250.191 140.766 250.784 141.73 251.747C142.692 252.711 143.286 254.037 143.287 255.507H143.845H144.402C144.401 251.955 141.523 249.076 137.971 249.076C134.419 249.076 131.541 251.955 131.541 255.507C131.541 259.058 134.419 261.937 137.971 261.937C141.523 261.937 144.401 259.058 144.402 255.507H143.845Z" fill="#171938"/>
<path d="M463.354 148.767H462.797C462.795 150.174 461.657 151.313 460.249 151.315C458.842 151.313 457.703 150.174 457.701 148.767C457.703 147.36 458.842 146.221 460.249 146.219C461.657 146.221 462.795 147.36 462.797 148.767H463.354H463.911C463.911 146.745 462.272 145.104 460.249 145.104C458.225 145.104 456.586 146.743 456.586 148.767C456.586 150.79 458.225 152.429 460.249 152.429C462.272 152.429 463.911 150.79 463.911 148.767H463.354Z" fill="#171938"/>
<path opacity="0.3" d="M0 437.331H471.365V436.414H0V437.331Z" fill="#171938"/>
<path d="M419.487 389.758C419.487 389.758 430.353 402.103 430.196 407.227L423.626 419.585C421.051 424.579 423.338 428.371 423.338 428.371L457.964 413.442L437.686 379.215L419.487 389.758Z" fill="#171938"/>
<path d="M413.76 231.517C411.498 235.072 420.884 321.275 420.884 321.275L450.933 385.91L417.807 402.474L384.344 330.218L388.869 231.517H413.76" fill="#346AF8"/>
<path d="M413.76 231.517L413.29 231.218C413.165 231.421 413.111 231.619 413.057 231.865C412.907 232.59 412.853 233.74 412.851 235.322C412.853 244.028 414.722 265.501 416.591 284.837C418.461 304.168 420.33 321.334 420.33 321.335L420.378 321.509L450.199 385.654L418.071 401.718L384.907 330.107L389.402 232.074H413.76V231.517L413.29 231.218L413.76 231.517V230.959H388.869C388.571 230.959 388.326 231.193 388.313 231.491L383.787 330.192L383.838 330.451L417.301 402.707C417.364 402.844 417.48 402.949 417.623 402.999C417.765 403.049 417.92 403.039 418.056 402.972L451.181 386.409C451.451 386.274 451.565 385.948 451.438 385.675L421.389 321.04L420.884 321.275L421.438 321.215C421.437 321.211 421.321 320.142 421.117 318.232C420.402 311.544 418.613 294.587 417.003 277.413C415.394 260.244 413.964 242.834 413.965 235.322C413.965 234.29 413.993 233.446 414.047 232.83C414.075 232.524 414.11 232.273 414.148 232.094L414.202 231.883L414.223 231.829L414.23 231.815C414.339 231.645 414.346 231.426 414.248 231.248C414.151 231.071 413.963 230.959 413.76 230.959V231.517Z" fill="#171938"/>
<path d="M383.986 400.296C383.986 400.296 389.238 415.881 387.112 420.547L376.277 429.406C371.971 433.016 372.614 437.397 372.614 437.397L410.32 437.012L403.168 399.075L383.986 400.296Z" fill="#171938"/>
<path d="M366.079 232.066L358.136 292.323C354.891 320.485 357.384 349.011 365.465 376.184L375.83 411.032H413.76L394.875 323.052L408.648 232.066H366.079" fill="#346AF8"/>
<path d="M366.079 232.066L365.527 231.994L357.585 292.25L357.583 292.259C356.66 300.273 356.2 308.317 356.2 316.35C356.2 336.621 359.129 356.831 364.932 376.344L375.296 411.191C375.367 411.429 375.583 411.589 375.83 411.589H413.76C413.929 411.589 414.087 411.515 414.193 411.383C414.299 411.252 414.34 411.081 414.305 410.915L395.441 323.036L409.199 232.15C409.224 231.988 409.177 231.827 409.07 231.703C408.964 231.579 408.811 231.509 408.648 231.509H366.079C365.801 231.509 365.564 231.717 365.527 231.994L366.079 232.066V232.623H408L394.324 322.97L394.33 323.169L413.07 410.475H376.246L366 376.025C360.227 356.616 357.314 336.514 357.314 316.35C357.314 308.359 357.772 300.359 358.69 292.387L358.136 292.323L358.689 292.396L366.632 232.14L366.079 232.066V232.623V232.066" fill="#171938"/>
<path d="M370.009 158.431L365.461 133.838L375.681 124.18L389.457 157.002L370.009 158.431" fill="white"/>
<path d="M370.009 158.431L370.556 158.329L366.065 134.036L375.479 125.137L388.643 156.503L369.968 157.876L370.009 158.431L370.556 158.329L370.009 158.431L370.049 158.987L389.497 157.557C389.676 157.544 389.838 157.446 389.932 157.293C390.025 157.14 390.04 156.951 389.971 156.786L376.194 123.964C376.124 123.796 375.975 123.672 375.797 123.634C375.617 123.596 375.431 123.65 375.299 123.775L365.079 133.434C364.942 133.563 364.879 133.755 364.914 133.94L369.461 158.532C369.512 158.812 369.766 159.008 370.049 158.987L370.009 158.431Z" fill="#171938"/>
<path d="M367.529 141.856L372.795 136.266L366.536 136.745L367.529 141.856Z" fill="#171938"/>
<path d="M367.529 141.856L367.935 142.239L373.2 136.649C373.358 136.48 373.397 136.234 373.297 136.026C373.197 135.817 372.982 135.693 372.751 135.71L366.494 136.189C366.336 136.202 366.19 136.281 366.094 136.408C365.997 136.534 365.959 136.695 365.989 136.851L366.982 141.963C367.022 142.168 367.172 142.333 367.374 142.392C367.576 142.45 367.791 142.391 367.935 142.239L367.529 141.856L368.076 141.751L367.203 137.254L371.402 136.932L367.123 141.474L367.529 141.856L368.076 141.751L367.529 141.856" fill="#171938"/>
<path d="M351.627 114.421C350.078 119.528 347.156 133.761 361.914 137.215C370.519 139.228 377.505 134.488 382.888 124.549C388.487 114.212 381.467 101.165 371.882 98.1195C362.299 95.0754 355.089 103.014 351.627 114.421" fill="#FEF3DE"/>
<path d="M351.627 114.421L351.094 114.259C350.517 116.162 349.753 119.301 349.751 122.724C349.751 125.685 350.326 128.872 352.138 131.623C353.949 134.375 357.002 136.642 361.787 137.757C363.131 138.072 364.443 138.228 365.719 138.228C369.29 138.23 372.574 137.002 375.515 134.711C378.457 132.42 381.068 129.077 383.378 124.814C384.801 122.187 385.436 119.386 385.436 116.62C385.435 112.378 383.951 108.223 381.545 104.826C379.138 101.43 375.802 98.7825 372.052 97.5892C370.603 97.129 369.198 96.9084 367.844 96.9084C363.875 96.9062 360.401 98.8115 357.593 101.916C354.779 105.021 352.59 109.33 351.094 114.259L351.627 114.421L351.094 116.62C352.554 111.807 355.755 105.599 358.419 102.663C361.088 99.7252 364.244 98.0249 367.844 98.0226C369.077 98.0226 370.366 98.2221 371.714 98.6511C375.189 99.753 378.353 102.246 380.636 105.47C382.921 108.695 384.323 112.641 384.322 116.62C384.321 119.216 383.729 121.827 382.397 124.284C380.141 128.452 377.609 131.67 374.829 133.832C372.048 135.994 369.032 137.111 365.719 137.113C364.534 137.113 363.308 136.968 362.041 136.672C357.472 135.598 354.722 133.51 353.068 131.01C351.417 128.508 350.866 125.545 350.866 122.724C350.865 119.467 350.536 118.458 351.094 116.62L351.627 114.421Z" fill="#171938"/>
<path d="M382.888 124.549C377.505 134.488 370.519 139.228 361.914 137.215C348.146 133.992 349.765 121.394 351.302 115.57C358.036 116.58 369.382 124.286 369.382 124.286C377.009 130.145 381.149 116.23 373.972 113.789C366.858 111.371 362.35 105.02 360.575 99.9658C363.79 97.6059 367.597 96.759 371.882 98.1195C381.467 101.165 388.486 114.212 382.888 124.549Z" fill="#FEF3DE"/>
<mask id="mask0_1331_6797" style="mask-type:alpha" maskUnits="userSpaceOnUse" x="359" y="82" width="46" height="42">
<ellipse cx="381.92" cy="102.96" rx="23.76" ry="19.36" transform="rotate(35.2322 381.92 102.96)" fill="#D9D9D9"/>
</mask>
<g mask="url(#mask0_1331_6797)">
<path d="M382.888 124.549C377.505 134.488 370.519 139.228 361.914 137.215C348.146 133.992 349.765 121.394 351.302 115.57C358.036 116.58 380.6 124.549 380.6 124.549C388.227 130.408 381.149 116.23 373.972 113.789C366.858 111.371 362.35 105.02 360.575 99.9658C363.79 97.6059 367.597 96.759 371.882 98.1195C381.467 101.165 388.486 114.212 382.888 124.549Z" fill="#171938"/>
</g>
<path d="M354.477 122.793C354.524 122.816 355.381 123.275 356.615 123.278C357.737 123.287 359.185 122.859 360.419 121.4C360.62 121.166 360.592 120.815 360.358 120.615C360.124 120.415 359.772 120.443 359.572 120.677C358.529 121.886 357.481 122.156 356.615 122.163C356.142 122.165 355.727 122.072 355.435 121.98C355.29 121.934 355.176 121.888 355.101 121.856L355.018 121.818L355.002 121.81L354.998 121.817L355.002 121.81L354.998 121.817L355.002 121.81C354.731 121.665 354.393 121.768 354.247 122.039C354.103 122.311 354.205 122.648 354.477 122.793" fill="#ECECDD"/>
<path d="M354.5 125C355.167 126.833 357.8 130.2 363 129" stroke="#171938" stroke-linecap="round"/>
<path d="M369.184 123.926C369.995 124.235 370.882 124.398 371.797 124.398C372.708 124.398 373.65 124.236 374.572 123.897C377.554 122.802 379.497 120.171 379.504 117.417C379.504 116.764 379.392 116.107 379.158 115.469C378.767 114.395 378.089 113.589 377.232 113.078C376.376 112.567 375.363 112.345 374.288 112.345C374.175 112.345 374.062 112.347 373.948 112.353C373.641 112.365 373.402 112.626 373.416 112.932C373.428 113.24 373.687 113.479 373.995 113.466L374.288 113.459C375.213 113.459 376.02 113.651 376.659 114.034C377.3 114.421 377.793 114.992 378.112 115.854C378.3 116.365 378.389 116.891 378.389 117.417C378.395 119.63 376.781 121.903 374.188 122.851C373.388 123.145 372.578 123.283 371.797 123.283C371.013 123.283 370.26 123.144 369.58 122.886C369.293 122.775 368.971 122.92 368.862 123.208C368.752 123.495 368.896 123.817 369.184 123.926" fill="#171938"/>
<path d="M371.71 119.657C371.71 119.657 374.105 117.712 375.873 119.748Z" fill="white"/>
<path d="M372.061 120.09L372.064 120.087C372.135 120.02 373.06 119.361 373.952 119.376C374.451 119.385 374.938 119.531 375.454 120.113C375.655 120.345 376.007 120.371 376.239 120.168C376.472 119.966 376.496 119.615 376.295 119.382C375.595 118.567 374.718 118.254 373.952 118.261C372.485 118.279 371.406 119.2 371.359 119.224C371.119 119.418 371.083 119.769 371.277 120.009C371.471 120.247 371.822 120.284 372.061 120.09" fill="#171938"/>
<path d="M338.854 196.389C335.664 197.752 332.262 198.624 328.794 198.721C299.86 199.535 297.405 153.227 277.79 130.074C275.081 126.877 272.64 124.074 271.031 124.246C268.328 124.536 267.99 121.985 271.268 120.709C271.268 120.709 266.968 122.197 266.481 120.825C265.89 119.161 271.478 117.218 271.478 117.218C271.478 117.218 265.862 119.459 266.256 117.332C266.653 115.205 271.665 114.08 271.665 114.08C271.665 114.08 261.576 115.298 261.101 113.388C260.715 111.834 268.696 111.274 275.73 111.677C279.887 111.916 283.871 113.424 287.091 116.065C290.169 118.591 294.207 122.709 299.014 129.406C299.014 129.406 316.036 155.141 329.204 177.403L370.702 155.671C375.812 152.994 382.082 153.317 386.676 156.805C390.267 159.531 393.092 163.615 391.235 169.39C389.92 173.485 386.682 176.682 382.705 178.32L338.854 196.389Z" fill="#FEF3DE"/>
<path d="M338.854 196.389L338.635 195.877C335.498 197.217 332.163 198.07 328.778 198.164C328.532 198.171 328.288 198.174 328.046 198.174C321.145 198.169 315.865 195.405 311.418 190.844C304.754 184 300.092 173.064 295.307 161.669C290.513 150.273 285.586 138.42 278.214 129.715C276.898 128.16 275.639 126.692 274.484 125.589C273.904 125.038 273.351 124.577 272.811 124.24C272.271 123.907 271.737 123.684 271.175 123.681L270.972 123.692C270.847 123.706 270.73 123.712 270.621 123.712C270.156 123.712 269.85 123.598 269.685 123.472C269.522 123.341 269.469 123.224 269.463 123.046C269.462 122.851 269.564 122.55 269.883 122.214C270.198 121.878 270.719 121.521 271.471 121.229C271.754 121.118 271.897 120.803 271.792 120.518C271.687 120.233 271.374 120.083 271.087 120.183C271.087 120.183 270.971 120.224 270.767 120.286C270.161 120.478 268.772 120.854 267.827 120.849C267.54 120.851 267.3 120.813 267.167 120.758C267.026 120.698 267.021 120.672 267.006 120.638L266.994 120.572C266.993 120.522 267.016 120.424 267.113 120.284C267.278 120.036 267.652 119.711 268.118 119.411C268.817 118.956 269.712 118.532 270.424 118.23C270.78 118.079 271.091 117.956 271.313 117.873C271.533 117.789 271.66 117.744 271.66 117.744L271.478 117.219L271.272 116.702C271.27 116.702 271.119 116.762 270.86 116.855C270.471 116.997 269.849 117.21 269.192 117.385C268.539 117.561 267.843 117.693 267.356 117.692C267.081 117.694 266.883 117.643 266.827 117.605L266.801 117.588L266.8 117.587L266.793 117.534L266.805 117.435C266.859 117.109 267.137 116.728 267.609 116.368C268.308 115.827 269.367 115.372 270.239 115.075C270.675 114.925 271.065 114.811 271.345 114.735C271.485 114.697 271.597 114.669 271.674 114.65L271.786 114.623C272.077 114.558 272.264 114.278 272.214 113.985C272.163 113.692 271.893 113.491 271.598 113.527C271.597 113.527 271.405 113.55 271.066 113.585C270.051 113.692 267.742 113.906 265.626 113.906C264.521 113.906 263.466 113.846 262.706 113.693C262.329 113.62 262.024 113.519 261.845 113.42L261.671 113.295L261.642 113.253L261.532 113.281H261.645L261.642 113.253L261.532 113.281H261.645H261.533L261.633 113.334L261.645 113.281H261.533L261.633 113.334L261.669 113.295C261.776 113.186 262.17 112.989 262.743 112.838C264.474 112.363 267.767 112.105 271.292 112.109C272.746 112.109 274.243 112.15 275.698 112.233C279.741 112.465 283.612 113.933 286.737 116.496C289.771 118.986 293.778 123.066 298.561 129.731L299.014 129.406L298.549 129.714C298.549 129.715 298.814 130.115 299.305 130.862C302.741 136.088 317.211 158.223 328.725 177.687C328.875 177.941 329.201 178.033 329.462 177.896L370.961 156.164C373.133 155.027 375.521 154.452 377.893 154.452C380.9 154.452 383.872 155.377 386.338 157.25C387.703 158.285 388.941 159.514 389.829 160.94C390.719 162.367 391.264 163.984 391.266 165.848C391.266 166.89 391.094 168.01 390.705 169.22C389.447 173.139 386.335 176.222 382.493 177.805L338.641 195.873L338.635 195.877L338.854 196.389L339.066 196.904L382.918 178.835C387.029 177.141 390.392 173.832 391.766 169.561C392.187 168.252 392.38 167.013 392.38 165.848C392.381 163.762 391.758 161.924 390.775 160.351C389.793 158.775 388.456 157.457 387.013 156.362C384.342 154.334 381.127 153.338 377.893 153.338C375.342 153.338 372.776 153.956 370.444 155.177L328.945 176.909L329.204 177.403L329.684 177.12C316.505 154.841 299.481 129.103 299.478 129.1L299.466 129.082C294.637 122.353 290.568 118.198 287.445 115.635C284.131 112.916 280.032 111.365 275.762 111.121C274.284 111.036 272.767 110.994 271.292 110.994C268.574 110.994 266.005 111.137 264.082 111.431C263.119 111.579 262.321 111.762 261.715 112.005C261.411 112.13 261.152 112.266 260.935 112.457C260.722 112.642 260.529 112.931 260.53 113.281L260.56 113.523C260.67 113.947 260.985 114.222 261.314 114.4C261.818 114.669 262.453 114.804 263.193 114.896C263.931 114.987 264.767 115.019 265.626 115.02C268.542 115.019 271.719 114.633 271.732 114.632L271.665 114.08L271.542 113.536C271.524 113.54 270.25 113.826 268.894 114.395C268.215 114.68 267.514 115.036 266.929 115.486C266.35 115.934 265.852 116.492 265.709 117.23C265.69 117.332 265.679 117.432 265.679 117.534C265.679 117.747 265.729 117.965 265.84 118.151C266.005 118.434 266.275 118.602 266.535 118.689C266.798 118.778 267.071 118.805 267.356 118.806C268.242 118.802 269.293 118.529 270.157 118.266C271.019 118.002 271.675 117.74 271.684 117.736C271.965 117.624 272.105 117.308 271.999 117.024C271.893 116.741 271.58 116.593 271.295 116.693C271.282 116.697 270.007 117.139 268.705 117.798C268.054 118.129 267.396 118.51 266.87 118.942C266.607 119.161 266.374 119.391 266.194 119.653C266.016 119.915 265.881 120.222 265.88 120.572C265.88 120.719 265.905 120.869 265.955 121.011C266.095 121.411 266.432 121.675 266.763 121.798C267.099 121.926 267.455 121.962 267.827 121.963C268.629 121.962 269.514 121.777 270.221 121.597C270.925 121.418 271.441 121.24 271.451 121.236L271.268 120.709L271.066 120.19C270.193 120.531 269.532 120.962 269.073 121.448C268.616 121.933 268.351 122.483 268.349 123.046C268.343 123.557 268.595 124.052 269.013 124.361C269.431 124.674 269.981 124.825 270.621 124.827C270.772 124.827 270.928 124.818 271.091 124.8L271.175 124.795C271.416 124.792 271.783 124.911 272.223 125.188C273.56 126.008 275.404 128.111 277.364 130.434C286.987 141.778 292.5 158.903 299.118 173.243C302.432 180.415 306.028 186.896 310.62 191.62C315.204 196.345 320.834 199.295 328.046 199.289C328.299 199.289 328.553 199.285 328.809 199.279C332.362 199.178 335.831 198.287 339.073 196.901L338.854 196.389L339.066 196.904L338.854 196.389" fill="#171938"/>
<path d="M330.37 175.246L341.675 202.472C341.675 202.472 400.467 188.684 395.095 163.347C389.624 137.542 366.795 153.989 330.37 175.246Z" fill="#FFD74B"/>
<path d="M330.37 175.246L329.857 175.459L341.161 202.686C341.265 202.938 341.537 203.077 341.803 203.015C341.823 203.009 355.287 199.854 368.788 193.768C375.539 190.724 382.302 186.949 387.41 182.437C392.511 177.932 395.997 172.646 396 166.602C396 165.5 395.883 164.375 395.64 163.232C394.631 158.472 393.031 155.069 390.798 152.834C388.567 150.598 385.709 149.594 382.396 149.599C376.607 149.609 369.352 152.548 360.61 157.139C351.873 161.736 341.664 168.01 330.09 174.764C329.849 174.905 329.749 175.201 329.857 175.459L330.37 175.246L330.651 175.726C342.238 168.965 352.443 162.694 361.129 158.126C369.81 153.552 376.987 150.705 382.396 150.714C385.497 150.72 387.993 151.614 390.01 153.623C392.026 155.634 393.569 158.826 394.55 163.463C394.778 164.532 394.886 165.579 394.886 166.602C394.888 172.188 391.652 177.201 386.673 181.602C379.213 188.199 367.916 193.304 358.497 196.733C353.787 198.449 349.546 199.749 346.485 200.619C344.954 201.055 343.718 201.382 342.865 201.602C342.013 201.82 341.55 201.929 341.548 201.929L341.675 202.472L342.19 202.258L330.885 175.032L330.37 175.246L330.651 175.726L330.37 175.246" fill="#171938"/>
<path d="M366.795 148.603L382.956 137.831C382.956 137.831 418.177 182.332 421.841 235.586H361.278L366.795 148.603" fill="#FFD74B"/>
<path d="M366.795 148.603L367.103 149.067L383.264 138.295L382.956 137.831L382.519 138.177C382.519 138.177 382.653 138.346 382.909 138.682C386.767 143.723 417.875 185.906 421.285 235.625L421.841 235.586V235.029H361.871L367.351 148.639L366.795 148.603L367.103 149.067L366.795 148.603L366.239 148.568L360.722 235.551C360.712 235.704 360.767 235.856 360.871 235.968C360.976 236.08 361.124 236.143 361.278 236.143H421.841C421.996 236.143 422.143 236.08 422.249 235.967C422.355 235.853 422.407 235.703 422.397 235.548C418.705 182.074 383.417 137.529 383.392 137.485C383.212 137.258 382.889 137.207 382.646 137.367L366.485 148.14C366.341 148.236 366.25 148.395 366.239 148.568L366.795 148.603Z" fill="#171938"/>
<path d="M409.391 207.826C410.8 210.996 411.723 214.384 411.871 217.851C413.112 246.768 366.846 249.908 343.985 269.863C340.828 272.62 337.722 275.181 338.258 276.708C341.399 285.671 337.417 282.464 334.718 276.523C334.718 276.523 337.171 283.84 335.806 284.347C334.15 284.963 331.224 276.366 331.224 276.366C331.224 276.366 334.323 286.545 332.191 286.181C330.059 285.817 328.083 276.224 328.083 276.224C328.083 276.224 329.449 286.294 327.547 286.796C326.001 287.206 325.322 279.234 325.621 272.195C325.798 268.035 327.248 264.028 329.841 260.771C332.322 257.656 336.379 253.556 343.004 248.651C343.004 248.651 368.485 231.25 390.549 217.755L368.207 176.584C365.456 171.514 365.686 165.24 369.105 160.595C371.779 156.962 375.82 154.077 381.622 155.849C385.736 157.105 388.979 160.295 390.676 164.247L409.391 207.826" fill="#FEF3DE"/>
<path d="M409.391 207.826L408.882 208.053C410.269 211.171 411.17 214.491 411.315 217.874C411.331 218.248 411.339 218.617 411.339 218.982C411.333 225.793 408.592 231.054 404.066 235.525C397.279 242.223 386.439 247.017 375.163 251.95C363.888 256.889 352.176 261.979 343.619 269.443C342.164 270.714 340.711 271.949 339.6 273.084C339.044 273.654 338.572 274.198 338.226 274.727C337.883 275.256 337.645 275.776 337.64 276.34C337.64 276.525 337.669 276.712 337.732 276.893C338.543 279.195 338.86 280.687 338.854 281.402C338.857 281.652 338.81 281.792 338.802 281.799L338.864 281.832L338.812 281.785L338.802 281.799L338.864 281.832L338.812 281.785L338.96 281.918V281.717L338.812 281.785L338.96 281.918V281.717V281.769L338.969 281.717H338.96V281.769L338.969 281.717C338.954 281.726 338.712 281.615 338.436 281.349C337.581 280.56 336.285 278.636 335.225 276.292C335.103 276.023 334.79 275.896 334.514 276.004C334.239 276.113 334.095 276.419 334.19 276.7C334.19 276.7 334.282 276.972 334.421 277.421C334.629 278.095 334.942 279.158 335.202 280.248C335.463 281.334 335.664 282.461 335.662 283.193C335.663 283.462 335.632 283.675 335.595 283.781L335.561 283.858L335.65 283.929L335.611 283.825L335.561 283.858L335.65 283.929L335.611 283.825L335.629 283.874V283.821L335.611 283.825L335.629 283.874V283.821L335.619 283.819C335.575 283.813 335.405 283.713 335.212 283.499C334.869 283.13 334.452 282.47 334.054 281.705C333.454 280.558 332.874 279.171 332.449 278.078C332.236 277.531 332.061 277.057 331.939 276.72C331.819 276.384 331.752 276.186 331.752 276.186C331.653 275.898 331.343 275.742 331.054 275.835C330.764 275.929 330.602 276.237 330.691 276.529C330.691 276.529 330.796 276.874 330.956 277.44C331.195 278.29 331.555 279.631 331.853 281.004C332.151 282.375 332.385 283.793 332.383 284.736C332.385 285.136 332.335 285.448 332.277 285.584L332.244 285.651L332.237 285.66L332.299 285.724V285.633L332.237 285.66L332.299 285.724V285.633L332.285 285.632C332.217 285.626 332.036 285.533 331.824 285.283C331.447 284.855 331.02 284.043 330.638 283.09C330.06 281.658 329.554 279.906 329.196 278.519C329.018 277.824 328.875 277.222 328.777 276.793C328.68 276.364 328.629 276.113 328.629 276.112C328.568 275.818 328.286 275.625 327.989 275.675C327.693 275.726 327.49 276.001 327.53 276.299C327.53 276.3 327.559 276.513 327.604 276.884C327.737 277.996 328.002 280.512 328.001 282.702C328.002 283.715 327.943 284.662 327.8 285.334C327.731 285.669 327.638 285.934 327.55 286.086L327.44 286.233L327.406 286.258L327.435 286.366V286.255L327.406 286.258L327.435 286.366V286.255V286.357L327.487 286.266L327.435 286.255V286.357L327.487 286.266C327.484 286.267 327.4 286.199 327.311 286.035C327.147 285.751 326.967 285.224 326.816 284.543C326.356 282.49 326.108 279.041 326.109 275.48C326.109 274.394 326.131 273.295 326.177 272.219C326.349 268.173 327.76 264.28 330.277 261.118C332.72 258.048 336.742 253.981 343.336 249.099L343.004 248.651L343.318 249.112C343.319 249.111 343.716 248.84 344.456 248.338C349.63 244.825 371.549 230.029 390.84 218.231C391.093 218.076 391.18 217.749 391.04 217.49L368.696 176.318C367.491 174.098 366.88 171.637 366.88 169.197C366.88 166.262 367.762 163.36 369.554 160.924C370.582 159.527 371.81 158.258 373.245 157.346C374.683 156.433 376.319 155.871 378.219 155.87C379.221 155.87 380.297 156.027 381.459 156.382C385.397 157.582 388.526 160.648 390.164 164.467L408.878 208.047L408.882 208.053L409.391 207.826L409.902 207.606L391.188 164.026C389.434 159.941 386.074 156.627 381.785 155.317C380.527 154.932 379.338 154.756 378.219 154.756C376.094 154.755 374.232 155.396 372.647 156.405C371.06 157.415 369.744 158.786 368.657 160.264C366.716 162.9 365.765 166.04 365.765 169.197C365.765 171.823 366.423 174.465 367.716 176.849L390.06 218.021L390.549 217.755L390.258 217.28C368.177 230.786 342.694 248.189 342.69 248.191L342.673 248.204C336.015 253.133 331.922 257.263 329.406 260.424C326.737 263.776 325.246 267.898 325.063 272.172C325.018 273.264 324.994 274.378 324.994 275.48C324.994 278.419 325.156 281.27 325.479 283.417C325.642 284.492 325.84 285.389 326.1 286.063C326.231 286.401 326.375 286.685 326.572 286.922C326.762 287.154 327.059 287.369 327.435 287.369L327.69 287.335C328.084 287.23 328.348 286.94 328.52 286.636C328.778 286.171 328.908 285.595 328.997 284.924C329.083 284.256 329.115 283.495 329.115 282.702C329.114 279.671 328.636 276.162 328.635 276.15L328.083 276.224L327.537 276.337C327.539 276.347 328.035 278.756 328.805 281.232C329.192 282.471 329.644 283.725 330.153 284.725C330.41 285.225 330.678 285.663 330.982 286.014C331.285 286.358 331.633 286.645 332.098 286.73L332.299 286.747C332.531 286.75 332.777 286.664 332.951 286.515C333.215 286.289 333.329 286.003 333.401 285.712C333.471 285.417 333.497 285.093 333.497 284.736C333.494 283.264 333.055 281.166 332.624 279.393C332.19 277.626 331.759 276.21 331.757 276.203L331.224 276.366L330.697 276.545C330.7 276.554 331.385 278.568 332.288 280.599C332.742 281.616 333.246 282.636 333.767 283.432C334.029 283.83 334.292 284.173 334.578 284.442C334.864 284.703 335.187 284.928 335.629 284.935C335.752 284.937 335.88 284.914 336 284.87C336.176 284.805 336.325 284.687 336.43 284.554C336.734 284.149 336.766 283.703 336.776 283.193C336.772 281.982 336.385 280.308 336.006 278.891C335.626 277.48 335.249 276.352 335.246 276.346L334.718 276.523L334.211 276.752C334.976 278.435 335.838 279.901 336.635 280.969C337.035 281.502 337.417 281.937 337.781 282.258C338.152 282.569 338.479 282.813 338.96 282.832C339.12 282.833 339.297 282.789 339.446 282.695C339.673 282.551 339.804 282.329 339.873 282.115C339.943 281.898 339.967 281.666 339.969 281.402C339.963 280.416 339.609 278.891 338.784 276.523L338.754 276.34C338.75 276.127 338.871 275.769 339.157 275.336C340.009 274.02 342.163 272.187 344.352 270.283C355.501 260.539 372.44 254.781 386.641 247.993C393.742 244.593 400.165 240.931 404.848 236.318C409.531 231.712 412.458 226.106 412.453 218.982C412.453 218.602 412.445 218.216 412.428 217.827C412.276 214.277 411.333 210.821 409.899 207.6L409.391 207.826L409.902 207.606L409.391 207.826" fill="#171938"/>
<path d="M409.436 207.757L382.791 220.377C382.791 220.377 352.904 164.472 373.169 153.99C393.978 143.224 409.436 207.757 409.436 207.757Z" fill="#FFD74B"/>
<path d="M409.436 207.757L409.197 207.253L382.552 219.873L382.791 220.377L383.282 220.114C383.282 220.113 383.025 219.632 382.571 218.743C380.982 215.635 377.001 207.57 373.423 198.095C369.843 188.624 366.676 177.731 366.679 169.043C366.679 165.678 367.154 162.651 368.232 160.171C369.314 157.69 370.979 155.752 373.425 154.484C374.958 153.692 376.435 153.336 377.876 153.336C380.032 153.336 382.135 154.139 384.189 155.595C387.785 158.139 391.173 162.684 394.181 168.073C398.699 176.156 402.385 186.12 404.932 194.054C406.206 198.022 407.197 201.483 407.869 203.95C408.205 205.183 408.462 206.169 408.633 206.845C408.806 207.522 408.893 207.886 408.893 207.887L409.436 207.757L409.197 207.253L409.436 207.757L409.977 207.628C409.973 207.612 406.678 193.85 401.068 180.058C398.261 173.16 394.88 166.255 391.013 161.037C389.078 158.428 387.022 156.238 384.834 154.686C382.649 153.135 380.317 152.22 377.876 152.221C376.248 152.22 374.585 152.629 372.913 153.495C370.228 154.881 368.369 157.054 367.211 159.727C366.048 162.402 365.566 165.574 365.565 169.043C365.572 179.266 369.763 192.128 373.941 202.475C378.119 212.819 382.294 220.627 382.301 220.639C382.44 220.902 382.761 221.007 383.029 220.879L409.674 208.261C409.912 208.148 410.038 207.884 409.977 207.628L409.436 207.757" fill="#FFD74B"/>
<path d="M266.06 21.136C267.594 23.6225 270.489 24.7576 273.411 24.7559C275.256 24.7551 277.128 24.3082 278.73 23.4432C282.833 21.2227 285.353 17.1352 287.413 13.1708C287.921 12.1878 288.147 11.3906 288.148 10.7405C288.149 10.2589 288.017 9.84417 287.747 9.54596C287.478 9.24609 287.084 9.10153 286.694 9.10401C285.923 9.11227 285.122 9.58314 284.486 10.4051C283.854 11.2312 283.4 12.4323 283.4 13.9614C283.4 15.1419 283.67 16.5173 284.332 18.072C285.114 19.9084 286.207 21.7754 287.634 23.2458C289.059 24.7146 290.838 25.7926 292.961 25.9719C293.184 25.9909 293.403 26 293.621 26C295.028 26.0008 296.308 25.6084 297.464 24.9624C299.2 23.9909 300.672 22.4602 302.018 20.775C303.363 19.0889 304.58 17.2418 305.773 15.626C306.938 14.0457 308.191 11.7285 309.606 9.74175C310.311 8.74962 311.055 7.84257 311.829 7.16022C312.603 6.47705 313.399 6.02517 314.207 5.89382C314.487 5.84756 314.749 5.8261 314.996 5.8261C316.063 5.83105 316.827 6.21435 317.458 6.84796C318.401 7.79796 318.971 9.36422 319.329 10.8908C319.692 12.4216 319.847 13.8796 320.075 14.7098V14.7107C320.389 15.8341 320.916 16.9907 321.683 17.9242C322.448 18.8535 323.475 19.5689 324.751 19.7151C324.919 19.7349 325.084 19.744 325.247 19.744C326.652 19.7424 327.838 19.0592 328.884 18.1968C329.933 17.3319 330.873 16.2678 331.79 15.4005C334.438 12.8933 338.158 11.5534 341.861 11.5542C344.126 11.5542 346.381 12.0548 348.379 13.0833C348.585 13.1898 348.842 13.1122 348.951 12.9106C349.06 12.709 348.981 12.4588 348.774 12.3522C346.644 11.256 344.253 10.7281 341.861 10.7281C337.953 10.7297 334.028 12.1341 331.201 14.8073C330.247 15.7119 329.318 16.7602 328.338 17.5656C327.356 18.3752 326.352 18.9196 325.247 18.9179C325.117 18.9179 324.985 18.9105 324.85 18.8948C323.849 18.78 323.019 18.2224 322.344 17.4062C321.672 16.5925 321.18 15.5285 320.892 14.4934V14.4942C320.762 14.0316 320.639 13.1964 320.467 12.2332C320.204 10.7843 319.824 9.02717 319.027 7.58565C318.628 6.86613 318.12 6.22095 317.452 5.75091C316.788 5.28087 315.962 4.99836 314.996 5.00001C314.699 5.00001 314.39 5.02561 314.066 5.07931C313.036 5.24948 312.108 5.80131 311.261 6.5481C309.99 7.67158 308.876 9.25188 307.856 10.838C306.839 12.4232 305.917 14.0184 305.087 15.1435C303.473 17.331 301.853 19.8688 300.001 21.8348C299.076 22.8187 298.097 23.6572 297.043 24.2454C295.989 24.8327 294.866 25.1731 293.621 25.1739C293.428 25.1739 293.233 25.1656 293.034 25.1491C291.17 24.9905 289.581 24.048 288.248 22.6775C286.919 21.3095 285.866 19.5226 285.114 17.7548C284.489 16.286 284.247 15.0188 284.247 13.9614C284.247 12.5918 284.651 11.5707 285.164 10.8999C285.676 10.2242 286.31 9.92184 286.694 9.9301C286.893 9.9334 287.014 9.98792 287.113 10.0937C287.211 10.2011 287.301 10.3977 287.302 10.7405C287.303 11.1973 287.129 11.8912 286.657 12.7974C284.62 16.7305 282.157 20.6544 278.32 22.7204C276.856 23.5118 275.115 23.9298 273.411 23.9298C270.697 23.9282 268.119 22.8815 266.787 20.7106C266.667 20.5156 266.407 20.452 266.206 20.5693C266.005 20.6866 265.94 20.941 266.06 21.136" fill="#171938"/>
<path d="M61.8814 326.055C55.0269 323.318 49.808 316.747 48.6923 309.451C48.3412 307.164 48.3936 304.824 48.809 302.546C49.7176 297.554 52.3701 292.861 56.2933 289.655C58.1988 288.094 60.5044 286.886 62.7973 287.089C62.9334 287.101 63.0696 287.119 63.2053 287.144C64.2513 287.332 65.2753 287.914 65.9773 288.699C66.6818 289.487 67.0583 290.443 66.9268 291.43L66.9028 291.58C66.7631 292.354 66.3302 293.106 65.7744 293.769C64.7294 295.017 63.4162 295.814 61.9496 296.236C60.484 296.658 58.8641 296.698 57.2465 296.402C53.552 295.734 49.9027 293.308 48.1701 289.963C46.0732 285.935 45.9011 281.298 46.7435 276.673C47.2353 273.975 48.0724 271.287 49.0615 268.749C57.2495 247.731 75.3832 230.809 96.9167 224.091C97.2108 224 97.3742 223.688 97.2828 223.393C97.1914 223.099 96.8781 222.936 96.585 223.027C74.7162 229.856 56.3451 246.999 48.0233 268.344C47.0151 270.932 46.1561 273.684 45.6477 276.474C44.7777 281.245 44.9323 286.15 47.1817 290.478C49.1182 294.184 53.0299 296.762 57.0468 297.498C58.8097 297.819 60.5996 297.783 62.2575 297.307C63.9142 296.832 65.4379 295.909 66.6289 294.484C67.2613 293.726 67.8074 292.822 67.999 291.78L68.031 291.578C68.2139 290.205 67.679 288.923 66.8063 287.954C65.9306 286.982 64.7106 286.288 63.4051 286.048C63.2355 286.017 63.0642 285.994 62.892 285.979C60.137 285.751 57.6049 287.148 55.5883 288.792C51.4441 292.181 48.6696 297.103 47.7128 302.346C47.2763 304.741 47.2203 307.204 47.5908 309.621C48.7798 317.325 54.2311 324.189 61.4677 327.09C61.753 327.204 62.0775 327.065 62.1919 326.779C62.3058 326.494 62.1672 326.169 61.8814 326.055" fill="#171938"/>
<path d="M80.1226 217.79C81.6564 218.342 85.7705 219.917 89.4914 221.351C91.352 222.067 93.1167 222.75 94.4158 223.253C95.715 223.756 96.5475 224.078 96.5497 224.079L96.7509 223.559L96.2028 223.459L92.8099 242.077C92.7548 242.379 92.9555 242.67 93.2581 242.725C93.5606 242.78 93.8509 242.579 93.9061 242.277L97.2989 223.659C97.3469 223.396 97.2017 223.136 96.952 223.04C96.9487 223.039 83.6134 217.862 80.5 216.741C80.2102 216.637 79.8912 216.788 79.7867 217.077C79.6825 217.367 79.8329 217.685 80.1226 217.79" fill="#171938"/>
<path d="M135.491 372.17L135.804 372.167L135.669 355.88C135.668 355.783 135.624 355.694 135.548 355.635C135.472 355.576 135.374 355.556 135.281 355.579C134.24 355.837 133.224 356.202 132.242 356.58C117.66 362.202 105.005 371.76 91.0998 378.683C89.4651 379.499 87.7878 380.268 86.0423 380.345C85.986 380.348 85.9284 380.349 85.8689 380.349C85.0124 380.35 83.8905 380.074 82.9977 379.484C82.1017 378.89 81.4356 378.018 81.3667 376.765L81.0543 376.782H81.3673L81.3798 357.485C81.3798 357.381 81.3279 357.283 81.2421 357.225C81.1563 357.167 81.0461 357.156 80.9497 357.195C68.9014 362.05 57.3147 368.057 46.401 375.113L46.571 375.376H46.884V335.285H46.571L46.741 335.548C59.3531 327.395 72.867 320.644 86.9551 315.461C88.2511 314.983 89.7807 314.6 91.1493 314.6C91.8974 314.6 92.5943 314.714 93.1822 314.975C93.7707 315.238 94.2528 315.639 94.6034 316.247C94.8876 316.743 95.0091 317.248 95.0097 317.77C95.011 318.697 94.6115 319.684 93.998 320.629C93.3863 321.574 92.568 322.472 91.7729 323.227C89.3424 325.535 86.9119 327.842 84.4821 330.15C83.5906 330.996 82.6639 331.993 81.9521 333.077C81.2421 334.16 80.7394 335.336 80.7381 336.543C80.7375 337.145 80.8665 337.752 81.1538 338.341C81.5727 339.198 82.2808 339.836 83.1053 340.256C83.9305 340.677 84.8753 340.886 85.8 340.886C85.8902 340.886 85.9803 340.884 86.0705 340.88C87.9832 340.792 89.7337 339.971 91.3784 339.153C105.352 332.191 117.993 322.649 132.467 317.074C134.286 316.373 136.177 315.743 138.043 315.744C138.411 315.744 138.779 315.768 139.146 315.821C140.244 315.978 141.342 316.478 142.173 317.21C143.006 317.942 143.566 318.893 143.641 319.968C143.648 320.061 143.651 320.152 143.651 320.244C143.651 321.487 143.052 322.586 142.155 323.599C141.259 324.61 140.077 325.516 138.983 326.352C138.049 327.067 137.107 327.964 136.39 328.966C135.675 329.969 135.176 331.083 135.174 332.236C135.174 332.789 135.291 333.346 135.552 333.887C135.94 334.694 136.596 335.288 137.362 335.674C138.131 336.06 139.013 336.246 139.891 336.246C140.341 336.246 140.79 336.197 141.223 336.099C143.31 335.623 145.035 334.319 146.733 333.191C154.786 327.823 164.466 324.984 174.132 324.985C177.656 324.985 181.178 325.362 184.619 326.131L184.687 325.825H184.374V365.915H184.687L184.755 365.609C181.269 364.83 177.702 364.449 174.133 364.449C164.344 364.449 154.548 367.321 146.386 372.76C144.669 373.907 142.998 375.149 141.085 375.578C140.699 375.666 140.296 375.71 139.891 375.71C139.102 375.71 138.31 375.541 137.644 375.205C136.977 374.868 136.436 374.371 136.116 373.706C135.897 373.25 135.801 372.791 135.8 372.328L135.804 372.184L135.804 372.167L135.491 372.17L135.178 372.157C135.176 372.214 135.174 372.271 135.174 372.328C135.174 372.879 135.291 373.437 135.552 373.977C135.94 374.784 136.596 375.378 137.362 375.764C138.131 376.151 139.013 376.336 139.891 376.336C140.341 376.336 140.79 376.287 141.223 376.189C143.31 375.714 145.035 374.41 146.733 373.281C154.786 367.913 164.467 365.074 174.133 365.075C177.657 365.075 181.178 365.452 184.619 366.22C184.712 366.241 184.809 366.218 184.883 366.159C184.957 366.099 185 366.01 185 365.915V325.825C185 325.679 184.899 325.552 184.755 325.52C181.269 324.741 177.7 324.359 174.132 324.359C164.344 324.359 154.547 327.231 146.386 332.67C144.669 333.817 142.998 335.059 141.085 335.488C140.699 335.575 140.296 335.62 139.891 335.62C139.102 335.62 138.31 335.451 137.644 335.115C136.977 334.778 136.436 334.281 136.116 333.615C135.897 333.159 135.801 332.701 135.8 332.236C135.799 331.271 136.229 330.267 136.899 329.331C137.567 328.395 138.469 327.533 139.363 326.849C140.457 326.012 141.67 325.089 142.623 324.015C143.574 322.943 144.277 321.699 144.278 320.244C144.278 320.138 144.274 320.031 144.266 319.924C144.177 318.653 143.515 317.554 142.587 316.739C141.657 315.923 140.457 315.378 139.234 315.201C138.836 315.144 138.439 315.118 138.043 315.118C136.036 315.12 134.078 315.784 132.242 316.49C117.66 322.112 105.005 331.67 91.0998 338.593C89.4651 339.409 87.7878 340.178 86.0423 340.255C85.9622 340.258 85.8808 340.26 85.8 340.26C84.9698 340.261 84.1158 340.07 83.3896 339.699C82.6627 339.327 82.0654 338.781 81.7167 338.066C81.4713 337.563 81.3648 337.057 81.3642 336.543C81.3629 335.516 81.8031 334.444 82.4755 333.421C83.1467 332.398 84.0432 331.429 84.9128 330.604C87.3433 328.296 89.7738 325.989 92.2036 323.682C93.0231 322.903 93.8721 321.975 94.5239 320.969C95.1738 319.964 95.6339 318.877 95.6358 317.77C95.6364 317.15 95.4862 316.526 95.1462 315.936C94.7305 315.21 94.1294 314.709 93.4357 314.403C92.742 314.096 91.9594 313.975 91.1493 313.974C89.6661 313.975 88.0821 314.38 86.7385 314.873C72.6072 320.073 59.0524 326.844 46.401 335.022C46.3115 335.081 46.2579 335.179 46.2579 335.285V375.376C46.2579 375.491 46.3205 375.596 46.4213 375.651C46.5223 375.705 46.6446 375.701 46.741 375.638C57.6211 368.605 69.1724 362.615 81.1839 357.775L81.0668 357.484H80.7538L80.7412 376.781V376.798C80.8164 378.274 81.6372 379.343 82.6533 380.007C83.6719 380.675 84.8853 380.973 85.8689 380.975C85.9371 380.975 86.0047 380.973 86.0705 380.971C87.9832 380.882 89.7337 380.061 91.3791 379.243C105.352 372.282 117.993 362.739 132.467 357.165C133.439 356.79 134.433 356.435 135.432 356.186L135.356 355.882L135.043 355.885L135.178 372.173L135.491 372.17L135.178 372.157L135.491 372.17" fill="#171938"/>
<path d="M80.7412 336.383L80.7443 371.47C80.7443 371.643 80.8846 371.783 81.0574 371.783C81.2302 371.783 81.3704 371.643 81.3704 371.47L81.3673 336.383C81.3673 336.21 81.2271 336.07 81.0543 336.07C80.8815 336.07 80.7412 336.21 80.7412 336.383Z" fill="#171938"/>
<path d="M135.102 332.465L135.043 355.882C135.043 356.054 135.182 356.195 135.355 356.195C135.528 356.196 135.669 356.056 135.669 355.883L135.728 332.467C135.728 332.294 135.588 332.153 135.415 332.152C135.243 332.152 135.102 332.292 135.102 332.465Z" fill="#171938"/>
<ellipse cx="380.16" cy="163.68" rx="1.76" ry="1.76" fill="#171938"/>
<ellipse cx="374" cy="178.64" rx="1.76" ry="1.76" fill="#171938"/>
<ellipse cx="392.48" cy="183.04" rx="1.76" ry="1.76" fill="#171938"/>
<ellipse cx="381.04" cy="199.76" rx="1.76" ry="1.76" fill="#171938"/>
<ellipse cx="398.64" cy="205.92" rx="1.76" ry="1.76" fill="#171938"/>
</g>
<defs>
<filter id="filter0_d_1331_6797" x="24" y="-15" width="242" height="249.364" filterUnits="userSpaceOnUse" color-interpolation-filters="sRGB">
<feFlood flood-opacity="0" result="BackgroundImageFix"/>
<feColorMatrix in="SourceAlpha" type="matrix" values="0 0 0 0 0 0 0 0 0 0 0 0 0 0 0 0 0 0 127 0" result="hardAlpha"/>
<feOffset dy="4"/>
<feGaussianBlur stdDeviation="20"/>
<feColorMatrix type="matrix" values="0 0 0 0 0.133333 0 0 0 0 0.352941 0 0 0 0 1 0 0 0 0.1 0"/>
<feBlend mode="normal" in2="BackgroundImageFix" result="effect1_dropShadow_1331_6797"/>
<feBlend mode="normal" in="SourceGraphic" in2="effect1_dropShadow_1331_6797" result="shape"/>
</filter>
<filter id="filter1_d_1331_6797" x="44" y="7" width="202" height="209.364" filterUnits="userSpaceOnUse" color-interpolation-filters="sRGB">
<feFlood flood-opacity="0" result="BackgroundImageFix"/>
<feColorMatrix in="SourceAlpha" type="matrix" values="0 0 0 0 0 0 0 0 0 0 0 0 0 0 0 0 0 0 127 0" result="hardAlpha"/>
<feOffset dy="6"/>
<feGaussianBlur stdDeviation="10"/>
<feColorMatrix type="matrix" values="0 0 0 0 0 0 0 0 0 0 0 0 0 0 0 0 0 0 0.06 0"/>
<feBlend mode="normal" in2="BackgroundImageFix" result="effect1_dropShadow_1331_6797"/>
<feBlend mode="normal" in="SourceGraphic" in2="effect1_dropShadow_1331_6797" result="shape"/>
</filter>
<linearGradient id="paint0_linear_1331_6797" x1="160.925" y1="156.226" x2="211.145" y2="60.5698" gradientUnits="userSpaceOnUse">
<stop offset="6.8e-07" stop-color="#FFACB0"/>
<stop offset="1" stop-color="#FF3F7A"/>
</linearGradient>
<clipPath id="clip0_1331_6797">
<rect width="471.366" height="440" fill="white"/>
</clipPath>
</defs>
</svg>
