<svg width="519" height="408" viewBox="0 0 519 408" fill="none" xmlns="http://www.w3.org/2000/svg">
<g clip-path="url(#clip0_1405_710)">
<path d="M200.463 406.48C200.473 406.475 234.781 388.487 269.044 365.216C290.701 350.505 313.62 330.504 334.822 314.196C345.421 306.042 355.59 298.811 364.941 293.629C374.291 288.446 382.823 285.321 390.111 285.324C395.597 285.328 400.365 287.071 404.361 291.023C407.293 293.938 409.114 297.714 409.12 302.848C409.129 309.979 405.507 319.818 395.96 333.147C393.858 336.086 390.507 341.599 387.663 347.733C384.825 353.87 382.48 360.591 382.473 366.059C382.472 368.307 382.877 370.365 383.858 372.044C384.837 373.725 386.387 374.983 388.538 375.657C389.318 375.902 390.122 376.018 390.943 376.018C394.715 376.007 398.838 373.64 403.257 370.182C409.881 364.985 417.174 357.251 424.581 350.831C431.983 344.403 439.494 339.341 446.391 339.356C452.298 339.364 456.712 342.625 460.333 347.839C465.754 355.656 469.206 367.849 472.525 379.289C474.187 385.011 475.821 390.544 477.681 395.268C479.543 399.989 481.622 403.913 484.243 406.395C484.474 406.612 484.813 406.573 485.002 406.307C485.19 406.04 485.156 405.647 484.925 405.429C481.715 402.409 479.181 396.707 476.893 389.848C473.449 379.558 470.518 366.707 466.134 356.375C463.94 351.209 461.38 346.661 458.172 343.381C454.969 340.1 451.092 338.105 446.391 338.109C441.486 338.113 436.456 340.461 431.439 343.926C423.915 349.128 416.388 356.878 409.411 363.307C405.925 366.523 402.579 369.405 399.463 371.47C396.347 373.541 393.467 374.776 390.943 374.772C390.208 374.772 389.502 374.669 388.822 374.454C386.863 373.834 385.578 372.757 384.75 371.346C383.925 369.934 383.551 368.14 383.551 366.059C383.542 360.999 385.807 354.361 388.613 348.321C391.414 342.276 394.746 336.797 396.791 333.942C406.404 320.502 410.189 310.475 410.198 302.848C410.206 297.358 408.188 293.159 405.062 290.076C400.861 285.912 395.791 284.073 390.111 284.077C382.557 284.081 373.904 287.283 364.476 292.506C336.208 308.18 300.876 342.155 268.497 364.141C251.397 375.757 234.274 386.059 221.429 393.457C215.005 397.155 209.651 400.128 205.904 402.175C204.03 403.2 202.558 403.993 201.555 404.528C200.551 405.066 200.019 405.344 200.018 405.345C199.747 405.487 199.627 405.856 199.749 406.17C199.872 406.482 200.192 406.622 200.463 406.48" fill="#171938"/>
<path d="M177.958 106.721C177.867 106.542 177.777 106.36 177.69 106.178C177.738 106.051 177.837 105.943 177.958 105.889V106.721Z" fill="#3D4066"/>
<path d="M178.21 106.926C178.156 106.926 178.101 106.918 178.048 106.901C178.018 106.841 177.988 106.782 177.958 106.721V105.889C178.012 105.864 178.071 105.85 178.13 105.85C178.147 105.85 178.165 105.851 178.182 105.853C178.451 105.889 178.592 106.208 178.621 106.28C178.787 106.676 178.51 106.926 178.21 106.926Z" fill="#3D4066"/>
<path d="M145.46 288.712L143.573 290.598L138.932 295.239H138.931L134.29 299.882L129.649 304.521L125.008 309.162V309.161L120.366 313.804L115.725 318.443H115.725L111.083 323.085L106.442 327.727L106.442 327.725L97.3849 336.782L97.1596 337.008H97.1591L92.5178 341.647L87.8765 346.289L83.2344 350.929L78.5941 355.572V355.571L76.4939 357.671C76.7876 357.665 77.0812 357.656 77.3744 357.646L79.6989 355.323L84.3398 350.682H84.3402L88.9815 346.04V346.041L93.6227 341.4L98.2649 336.759L102.906 332.118V332.119L107.547 327.478L112.188 322.836H112.189L116.83 318.194H116.83L121.471 313.553V313.554L126.112 308.914H126.113L130.753 304.272L130.754 304.274L135.395 299.632L140.036 294.99H140.038L144.679 290.349L145.436 289.593C145.446 289.299 145.454 289.007 145.46 288.712" fill="#99B6FF"/>
<path d="M145.19 293.623L143.573 295.239L138.931 299.882L134.291 304.521H134.29L129.649 309.162V309.161L120.592 318.219L120.367 318.443H120.366L115.725 323.085H115.725L111.084 327.727L111.083 327.725L106.441 332.367L101.801 337.008L97.1595 341.647H97.159L92.5182 346.289H92.5177L87.8764 350.929L83.2353 355.572L83.2343 355.571L81.4049 357.401C81.7192 357.373 82.0349 357.347 82.3483 357.314L88.7557 350.907L88.9814 350.682L93.6226 346.04V346.041L98.2639 341.4H98.2648L102.906 336.759L107.547 332.118V332.119L112.189 327.478L116.83 322.836H116.83L121.471 318.194L126.112 313.554H126.113L130.753 308.914H130.754L135.395 304.272V304.274L140.036 299.632H140.038L144.677 294.99H144.679L145.104 294.566C145.136 294.252 145.161 293.938 145.19 293.623" fill="#99B6FF"/>
<path d="M107.692 349.68C108.323 349.35 108.949 349.009 109.569 348.66L112.189 346.04V346.041L116.83 341.4H116.83L121.471 336.759L126.112 332.118L126.113 332.119L130.753 327.478H130.754L135.395 322.837L136.446 321.787C136.794 321.168 137.135 320.54 137.466 319.908L134.29 323.085L129.649 327.727V327.726L120.592 336.782L120.367 337.008H120.366L115.725 341.648H115.725L111.084 346.289H111.083L107.692 349.68" fill="#99B6FF"/>
<path d="M99.3438 353.387C99.8067 353.217 100.267 353.041 100.725 352.862L102.906 350.682L107.547 346.041L112.188 341.4H112.189L116.83 336.759H116.83L121.471 332.118V332.119L126.112 327.478H126.113L130.753 322.837H130.754L135.395 318.194L140.036 313.554L140.038 313.555L140.648 312.944C140.828 312.484 141.004 312.023 141.174 311.561L138.931 313.804L134.29 318.444L129.649 323.085L125.008 327.726L120.366 332.367L115.725 337.008H115.725L111.083 341.648L106.442 346.289H106.442L99.3438 353.387Z" fill="#99B6FF"/>
<path d="M98.2639 350.682H98.2648L102.906 346.04V346.041L107.546 341.4H107.547L112.189 336.759L116.83 332.118L116.83 332.119L121.471 327.478L126.112 322.836H126.113L130.754 318.194L135.395 313.553V313.554L140.036 308.914H140.038L142.955 305.996C143.063 305.606 143.172 305.216 143.273 304.822L138.932 309.162L138.931 309.161L134.29 313.804L129.649 318.443L125.008 323.085L120.367 327.725H120.366L115.725 332.367L111.083 337.008L106.442 341.647H106.441L101.801 346.289L97.159 350.929L92.6053 355.483C92.9982 355.384 93.3877 355.275 93.7778 355.168L98.2639 350.682" fill="#99B6FF"/>
<path d="M93.6226 350.682L98.2639 346.04L98.2648 346.041L102.905 341.4H102.906L111.962 332.343L112.189 332.118V332.119L116.83 327.478H116.83L121.471 322.837L130.753 313.555H130.754L135.395 308.914L140.036 304.272L140.038 304.274L144.331 299.979C144.394 299.636 144.451 299.291 144.508 298.946L141.252 302.202L138.932 304.522H138.931L134.291 309.162L134.29 309.161L129.649 313.804L125.008 318.444L120.367 323.085H120.366L115.725 327.727L115.725 327.726L111.083 332.367L106.442 337.008H106.441L101.801 341.648L97.1595 346.289H97.159L92.5177 350.93L87.8764 355.572V355.571L86.7262 356.721C87.0717 356.662 87.4176 356.606 87.7613 356.544L88.9814 355.323L93.6226 350.682" fill="#99B6FF"/>
<path d="M30.8975 232.406C26.9601 235.579 23.3724 239.167 20.1985 243.104L24.0024 239.3L28.6437 234.659V234.66L30.8975 232.406" fill="#99B6FF"/>
<path d="M144.531 275.718L143.573 276.676L138.931 281.317L134.29 285.958L129.649 290.599V290.598L125.008 295.239L120.367 299.881H120.366L115.725 304.521H115.725L111.084 309.162L111.083 309.161L106.441 313.803L101.801 318.443L97.1595 323.085H97.159L92.5182 327.727L92.5177 327.725L87.8764 332.367L83.2353 337.007H83.2343L78.594 341.647L73.9527 346.289H73.9518L69.3106 350.929L64.6697 355.572L64.6688 355.571L63.5001 356.741C63.7456 356.781 63.9892 356.824 64.2352 356.861L70.4159 350.682L75.0572 346.039L75.0577 346.041L79.6984 341.4H79.6988L88.7557 332.343L88.9814 332.117V332.119L93.6226 327.478L98.2639 322.836H98.2648L102.906 318.194L107.547 313.554L112.188 308.913H112.189L116.83 304.272L116.83 304.274L121.471 299.632L126.112 294.99H126.113L130.754 290.349L135.395 285.709L140.036 281.068H140.038L144.653 276.452C144.615 276.206 144.572 275.963 144.531 275.718" fill="#99B6FF"/>
<path d="M145.086 279.806L143.573 281.317L138.932 285.958H138.931L134.29 290.6V290.598L129.649 295.24L122.687 302.202L120.367 304.522H120.366L115.725 309.162L115.725 309.161L111.083 313.804L106.442 318.444H106.442L101.801 323.085L97.1595 327.726H97.1591L92.5178 332.367L87.8765 337.008L83.2353 341.648H83.2344L78.594 346.289L73.9519 350.93L69.3115 355.572L69.3106 355.571L67.5867 357.294C67.8464 357.322 68.107 357.346 68.3672 357.371L70.4159 355.323L75.0572 350.682H75.0577L79.6984 346.04L79.6989 346.041L84.3397 341.4H84.3402L88.9815 336.759L93.6226 332.118V332.119L98.2639 327.478H98.2649L102.905 322.836H102.906L112.189 313.554L116.83 308.914H116.83L121.471 304.272V304.274L128.981 296.763L130.753 294.99H130.754L135.395 290.349L140.036 285.709H140.038L144.679 281.068L145.161 280.586C145.137 280.325 145.112 280.064 145.086 279.806" fill="#99B6FF"/>
<path d="M145.406 284.125L143.573 285.958L138.931 290.599V290.598L134.29 295.239L129.649 299.881L125.008 304.521L120.367 309.162L120.366 309.161L115.725 313.803L111.083 318.443L106.442 323.085H106.442L101.801 327.725L97.1591 332.367L92.5178 337.007L87.8765 341.647L83.2354 346.289H83.2344L73.9528 355.572L73.9519 355.571L71.9072 357.616C72.1826 357.627 72.4574 357.637 72.7332 357.646L75.0578 355.323L79.6985 350.682H79.6989L84.3398 346.041H84.3402L88.9811 341.4H88.9815L93.6227 336.759L98.264 332.117L98.2649 332.119L102.906 327.478L107.547 322.836H107.547L112.189 318.194L116.83 313.553L116.83 313.554L121.471 308.913L126.112 304.274H126.113L130.754 299.632L135.395 294.99L140.036 290.349H140.038L144.678 285.709H144.679L145.436 284.952C145.428 284.676 145.418 284.401 145.406 284.125" fill="#99B6FF"/>
<path d="M139.1 257.944L138.932 258.113H138.931L134.29 262.754V262.753L129.649 267.394L125.008 272.035L120.367 276.677L120.366 276.676L115.725 281.317H115.725L111.084 285.958H111.083L106.442 290.6L106.442 290.598L101.801 295.239L97.1595 299.882H97.1591L92.5182 304.521H92.5178L87.8765 309.162V309.161L83.2343 313.804L78.594 318.443L73.9527 323.085H73.9519L69.3115 327.727L69.3106 327.725L64.6698 332.367H64.6688L60.028 337.008L55.3868 341.647H55.3863L50.7455 346.289H50.7451L46.1038 350.929L45.7271 351.307C45.9225 351.397 46.1189 351.487 46.3158 351.575L46.983 350.908L47.2091 350.682L51.8504 346.04V346.041L56.4917 341.4H56.4922L61.1335 336.759L65.7746 332.118V332.119L70.4159 327.478L75.0572 322.836H75.0577L79.6989 318.194L84.3397 313.554H84.3402L88.981 308.914H88.9815L93.6226 304.272V304.274L98.2639 299.632H98.2649L102.906 294.99L107.547 290.349L112.188 285.709H112.189L116.83 281.068H116.83L121.471 276.427V276.428L126.112 271.787H126.113L130.753 267.145H130.754L135.395 262.504L139.367 258.533C139.28 258.335 139.189 258.14 139.1 257.944" fill="#99B6FF"/>
<path d="M140.733 261.807C140.654 261.603 140.574 261.398 140.492 261.193L138.931 262.754V262.753L134.29 267.394L129.649 272.035L125.008 276.676L120.367 281.317H120.366L115.725 285.958H115.725L111.083 290.6V290.598L106.442 295.239H106.442L99.48 302.201L97.1596 304.521H97.1591L92.5183 309.162L92.5178 309.161L87.8765 313.804L83.2353 318.443H83.2344L78.594 323.085L73.9527 327.727L73.9519 327.725L69.3106 332.367L64.6698 337.008H64.6689L60.028 341.647L55.3869 346.289H55.3864L50.7451 350.929L48.9758 352.699C49.1805 352.781 49.3851 352.861 49.5911 352.941L51.8504 350.682L56.4917 346.04L56.4922 346.041L61.1335 341.4L70.416 332.118V332.119L75.0573 327.478H75.0577L79.6984 322.836H79.6989L88.9815 313.554L93.6227 308.914L98.264 304.272L98.2649 304.274L102.906 299.632L107.547 294.99L112.189 290.349L116.83 285.709H116.83L121.471 281.068L126.112 276.427L126.113 276.428L130.754 271.787L135.395 267.145L140.036 262.504H140.038L140.733 261.807" fill="#99B6FF"/>
<path d="M134.158 248.963L129.649 253.472L125.008 258.113L120.367 262.754L120.366 262.753L115.725 267.394H115.725L111.083 272.035L106.442 276.677L106.442 276.676L101.801 281.317L97.1595 285.958H97.159L92.5177 290.6V290.598L87.8764 295.239L83.2353 299.882H83.2343L78.594 304.521L73.9527 309.162L73.9519 309.161L69.3106 313.804L64.6697 318.443H64.6688L60.028 323.085L55.3868 327.725H55.3863L50.745 332.367L46.1037 337.008L41.4626 341.647H41.4621L36.8213 346.289L36.746 346.364C36.9195 346.476 37.092 346.589 37.2663 346.701L37.9261 346.04L37.9266 346.041L42.5679 341.4L47.2091 336.759L51.8504 332.118V332.119L56.4917 327.478H56.4921L61.1334 322.836L70.4159 313.554L75.0572 308.914H75.0577L79.6984 304.272L79.6988 304.274L87.2089 296.763L88.9814 294.99L93.6226 290.349L98.2639 285.709H98.2649L102.906 281.068L107.547 276.427V276.428L112.189 271.787L116.83 267.145H116.83L121.471 262.504L126.112 257.864H126.113L130.754 253.223L134.494 249.483C134.384 249.309 134.27 249.136 134.158 248.963" fill="#99B6FF"/>
<path d="M136.241 252.377C136.138 252.195 136.032 252.016 135.927 251.836L134.29 253.472L129.649 258.113L125.008 262.753L120.367 267.394H120.366L115.725 272.035H115.725L111.084 276.678L111.083 276.676L106.442 281.317H106.442L101.801 285.958L97.1595 290.6L97.1591 290.598L92.5178 295.24L87.8765 299.882L83.2353 304.522H83.2344L78.594 309.162V309.161L73.9519 313.804L69.3115 318.444H69.3106L64.6698 323.085H64.6688L60.028 327.726L55.3864 332.367L50.7455 337.008H50.7451L46.1038 341.648L41.4626 346.289H41.4621L39.6179 348.133C39.7988 348.238 39.9787 348.345 40.1599 348.448L42.5679 346.041L47.2091 341.4L51.8504 336.759L56.4917 332.118L56.4922 332.119L61.1335 327.478L65.7742 322.837H65.7747L70.4159 318.194L75.0572 313.554L75.0577 313.555L79.6984 308.914H79.6989L84.3397 304.274H84.3402L88.9815 299.633L93.6227 294.99L98.2639 290.349H98.2649L102.906 285.709L107.547 281.068L112.188 276.427L112.189 276.429L116.83 271.787H116.83L121.471 267.145L126.113 262.504L130.753 257.864H130.754L135.395 253.223L136.241 252.377Z" fill="#99B6FF"/>
<path d="M128.567 241.486C128.436 241.333 128.305 241.178 128.172 241.027L125.008 244.19L120.367 248.831H120.366L115.725 253.472H115.725L111.084 258.113H111.083L106.442 262.754L106.442 262.753L101.801 267.394L97.1595 272.035H97.1591L92.5183 276.678L92.5178 276.676L87.8765 281.318L83.2353 285.959H83.2344L78.594 290.598L73.9527 295.24H73.9519L69.3106 299.882L64.6698 304.522H64.6688L60.028 309.162V309.162L55.3864 313.804L50.7455 318.444H50.7451L46.1038 323.085L41.4626 327.727L41.4621 327.726L32.18 337.008H32.1795L28.8098 340.377C28.963 340.51 29.1172 340.642 29.271 340.774L33.2854 336.759L37.9262 332.118L37.9267 332.119L42.568 327.478L47.2091 322.837L51.8504 318.194L56.4917 313.554L56.4922 313.555L61.1335 308.914L65.7742 304.274H65.7747L70.416 299.633L75.0573 294.99H75.0577L79.6989 290.349L84.3397 285.71H84.3402L88.9815 281.068L93.6227 276.427V276.429L98.2639 271.788H98.2649L102.906 267.145L107.547 262.504L112.188 257.864H112.189L116.83 253.223H116.83L121.471 248.582L126.113 243.941L128.567 241.486Z" fill="#99B6FF"/>
<path d="M126.372 239.042C126.234 238.894 126.097 238.746 125.958 238.6L125.008 239.55L120.367 244.19H120.366L115.725 248.831H115.725L111.084 253.472H111.083L106.442 258.113H106.441L101.801 262.753L97.1595 267.394H97.159L92.5177 272.035L87.8764 276.678V276.676L83.2353 281.317H83.2343L78.594 285.959L73.9527 290.6L73.9519 290.598L69.3115 295.24H69.3106L64.6697 299.882H64.6688L60.028 304.522L55.3868 309.162L55.3863 309.161L50.745 313.804L46.1037 318.444L41.4626 323.085H41.4621L36.8213 327.726L32.1795 332.367L27.5387 337.008H27.5383L26.3829 338.163C26.5293 338.302 26.6779 338.44 26.8252 338.577L28.6437 336.759L33.2849 332.118L33.2853 332.119L37.9261 327.478H37.9266L42.5679 322.837L47.2091 318.194L51.8504 313.554V313.555L56.4917 308.914H56.4921L61.1334 304.272V304.274L70.0768 295.33L70.4159 294.99L75.0572 290.349H75.0577L79.6984 285.709H79.6988L84.3397 281.068H84.3401L88.9814 276.427V276.429L93.6226 271.787L98.2639 267.145H98.2649L102.906 262.504L107.547 257.864L112.189 253.223L116.83 248.582H116.83L121.471 243.941L126.112 239.3H126.113L126.372 239.042" fill="#99B6FF"/>
<path d="M130.654 244.041C130.529 243.88 130.404 243.72 130.279 243.562L129.649 244.19L125.008 248.831L120.367 253.472H120.366L115.725 258.113H115.725L111.083 262.754V262.753L106.442 267.394H106.442L101.801 272.035L97.1596 276.677L97.1591 276.676L92.5178 281.317L87.8765 285.958L83.2353 290.599L83.2344 290.598L78.594 295.239L73.9519 299.881L69.3116 304.521H69.3106L64.6698 309.162L64.6689 309.161L55.613 318.219L55.3869 318.443H55.3864L50.7456 323.085H50.7451L46.1038 327.727V327.725L41.4626 332.367H41.4622L36.8213 337.007L32.18 341.647H32.1796L31.345 342.482C31.5046 342.61 31.6644 342.735 31.8245 342.86L33.2849 341.4H33.2854L37.9267 336.759L42.568 332.118V332.119L47.2091 327.478L51.8504 322.836L56.4922 318.194L61.1335 313.553V313.554L65.7742 308.914H65.7747L70.4155 304.272L70.416 304.274L75.0577 299.632L79.6984 294.99H79.6989L84.3397 290.349H84.3402L88.9815 285.709L93.6227 281.068L98.264 276.427L98.2649 276.428L102.906 271.787L107.547 267.145L112.189 262.504L116.83 257.863L116.83 257.864L121.471 253.223L126.112 248.582H126.113L130.654 244.041" fill="#99B6FF"/>
<path d="M124.069 236.703C123.925 236.562 123.783 236.419 123.636 236.28L120.367 239.55H120.366L115.725 244.19H115.725L111.083 248.831L106.442 253.472H106.442L101.801 258.113L97.1596 262.754L97.1591 262.753L92.5183 267.394H92.5178L87.8765 272.035L83.2353 276.678L83.2344 276.676L78.594 281.317L73.9527 285.958H73.9519L69.3106 290.6V290.598L64.6698 295.24H64.6688L57.7076 302.202L55.3868 304.522H55.3864L50.7455 309.162L50.7451 309.161L46.1038 313.804L41.4626 318.444H41.4621L36.8213 323.085L32.18 327.727L32.1795 327.726L27.5384 332.367L24.0643 335.841C24.2034 335.987 24.3471 336.129 24.487 336.275L28.6437 332.118V332.119L33.2849 327.478H33.2854L37.9262 322.837H37.9267L47.2091 313.555L51.8504 308.914L56.4917 304.272L56.4922 304.274L61.1335 299.632L65.7747 294.99L70.416 290.349L75.0573 285.709H75.0577L79.6989 281.068L84.3397 276.427L84.3402 276.429L88.9815 271.787L93.6227 267.145L98.264 262.504H98.2649L102.906 257.863V257.864L107.547 253.223L112.188 248.582H112.189L116.83 243.941H116.83L121.471 239.3L124.069 236.703" fill="#99B6FF"/>
<path d="M83.2354 220.986H83.2344L78.5941 225.627L73.9528 230.268H73.9519L69.3116 234.909H69.3107L64.6698 239.55H64.6689L60.0281 244.19L55.3869 248.831H55.3864L50.7456 253.472H50.7451L46.1038 258.113L41.4626 262.754L41.4622 262.753L36.8214 267.394L32.1801 272.035H32.1796L27.5388 276.678L27.5384 276.676L22.8971 281.318L18.2558 285.959L13.6145 290.6V290.598L8.97331 295.24H8.97285L5.55212 298.66C5.59205 298.904 5.63105 299.15 5.67418 299.394L10.0778 294.99H10.0787L14.72 290.349L19.3612 285.71L24.0025 281.068L28.6438 276.427V276.429L33.2849 271.788H33.2854L37.9262 267.145H37.9267L42.568 262.504L47.2092 257.864L51.8505 253.223L56.4918 248.582H56.4922L61.1335 243.941L65.7747 239.3L70.416 234.659V234.66L75.0573 230.018L75.0578 230.019L79.6989 225.378L84.3398 220.737H84.3402L87.1919 217.885C86.9478 217.843 86.7028 217.803 86.4573 217.764L83.2354 220.986" fill="#99B6FF"/>
<path d="M78.594 220.986L73.9527 225.627H73.9519L69.3106 230.268L64.6697 234.909H64.6688L60.028 239.55L55.3868 244.19H55.3863L50.7455 248.831H50.745L46.1037 253.472L41.4626 258.113H41.4621L36.8213 262.753L32.18 267.394H32.1795L27.5383 272.035L22.897 276.678V276.676L18.2557 281.317L13.6144 285.959L8.97322 290.6L8.97276 290.598L5.00464 294.567C5.03124 294.824 5.06337 295.08 5.09228 295.334L5.43642 294.99L10.0777 290.349H10.0786L14.719 285.709H14.7199L19.3611 281.068L24.0024 276.427V276.429L28.6437 271.787L33.2849 267.145H33.2853L37.9266 262.504L42.5679 257.864L47.2091 253.223L51.8504 248.582L56.4921 243.941L61.1334 239.3L65.7746 234.66L70.4159 230.018V230.019L75.0572 225.378H75.0577L79.6984 220.737H79.6988L83.1325 217.303C82.8759 217.274 82.6208 217.242 82.3639 217.215L78.594 220.986" fill="#99B6FF"/>
<path d="M73.9527 220.986H73.9519L69.3115 225.627H69.3106L64.6697 230.268H64.6688L60.028 234.909L55.3868 239.55H55.3863L50.7455 244.19H50.745L46.1037 248.831L41.4626 253.472H41.4621L36.8213 258.113L32.18 262.754L32.1795 262.753L27.5387 267.394H27.5383L22.897 272.035L18.2557 276.676L13.6144 281.317L8.97322 285.958H8.97276L4.69629 290.235C4.70775 290.508 4.7174 290.782 4.73162 291.055L5.43642 290.349L10.0777 285.709H10.0786L14.7199 281.068L19.3611 276.427V276.428L24.0024 271.787L28.6437 267.145L33.2849 262.504H33.2853L37.9261 257.863L37.9266 257.864L42.5679 253.223L47.2091 248.582L51.8504 243.941L56.4917 239.3H56.4921L61.1334 234.659V234.66L65.7746 230.018V230.019L70.4159 225.378L75.0572 220.737H75.0577L78.8523 216.943C78.5798 216.927 78.3054 216.918 78.0319 216.906L73.9527 220.986" fill="#99B6FF"/>
<path d="M69.3106 220.986L64.6697 225.627H64.6688L60.028 230.268L55.3868 234.909H55.3863L50.7455 239.55H50.745L46.1037 244.19L41.4625 248.831H41.4621L36.8213 253.472L32.18 258.113H32.1795L27.5383 262.754V262.753L22.897 267.394L18.2557 272.035L13.6144 276.677V276.676L8.9732 281.317H8.97275L4.65038 285.639C4.64351 285.929 4.64212 286.218 4.63892 286.507L5.4364 285.709L10.0777 281.068H10.0786L14.719 276.427L14.7199 276.428L19.3611 271.787L24.0024 267.145L28.6437 262.504L33.2848 257.863L33.2853 257.864L37.9266 253.223L42.5679 248.582L47.2091 243.941L51.8504 239.3L56.4921 234.659V234.66L61.1334 230.018V230.019L65.7746 225.378L70.4159 220.737L74.3042 216.849C74.0152 216.852 73.7256 216.853 73.437 216.86L69.3106 220.986" fill="#99B6FF"/>
<path d="M60.028 220.986L55.3868 225.627H55.3864L50.7456 230.268H50.7451L46.1038 234.909L41.4626 239.55H41.4621L36.8213 244.19L32.18 248.831H32.1796L27.5387 253.472H27.5384L22.8971 258.113L18.2558 262.753L13.6145 267.394L8.97327 272.035H8.97281L5.63376 275.374C5.57596 275.716 5.51675 276.057 5.46399 276.4L10.0777 271.788H10.0786L14.719 267.145H14.72L19.3611 262.504L24.0024 257.864L28.6437 253.223L33.2849 248.582H33.2854L37.9267 243.941L42.568 239.3L47.2091 234.659V234.66L51.8504 230.018V230.019L56.4922 225.378L61.1335 220.737L64.198 217.674C63.8545 217.726 63.513 217.785 63.1712 217.843L60.028 220.986" fill="#99B6FF"/>
<path d="M61.1335 355.323L65.7747 350.682L70.416 346.039V346.041L75.0573 341.4H75.0577L79.6989 336.759L84.3397 332.117L84.3402 332.119L88.9815 327.478L93.6227 322.836L98.2649 318.194L102.906 313.553V313.554L107.547 308.913H107.547L112.188 304.272L112.189 304.274L116.83 299.632H116.83L121.471 294.99L126.112 290.349H126.113L130.753 285.709H130.754L135.395 281.068L140.036 276.427L140.038 276.428L143.932 272.533C143.881 272.298 143.831 272.064 143.778 271.831L143.573 272.035L138.932 276.677L138.931 276.676L134.29 281.317L129.649 285.958L125.008 290.598L120.367 295.239H120.366L115.725 299.881L111.084 304.521H111.083L106.442 309.162L106.442 309.161L97.3849 318.219L97.1596 318.443H97.1591L92.5178 323.085L87.8765 327.727V327.725L83.2344 332.367L78.594 337.007L73.9527 341.647H73.9519L69.3116 346.289H69.3106L64.6698 350.929H64.6689L60.028 355.572V355.571L59.6128 355.986C59.8468 356.038 60.0817 356.089 60.3162 356.139L61.1335 355.323" fill="#99B6FF"/>
<path d="M61.1334 350.682L65.7746 346.041L70.4154 341.4H70.4159L75.0577 336.759L79.6984 332.118L79.6988 332.119L84.3397 327.478H84.3401L88.981 322.836H88.9814L93.6226 318.194L98.2639 313.553L98.2648 313.554L102.905 308.914H102.906L107.546 304.274H107.547L112.189 299.632L116.83 294.99H116.83L121.471 290.349L126.112 285.709H126.113L130.754 281.068L135.395 276.427V276.428L140.036 271.787H140.038L143.027 268.797C142.966 268.572 142.908 268.347 142.844 268.122L138.931 272.035L134.29 276.677V276.676L129.649 281.317L125.008 285.958L120.367 290.6L120.366 290.598L115.725 295.239H115.725L111.083 299.882L106.442 304.521H106.441L101.801 309.162V309.161L97.159 313.804L92.5177 318.443L87.8764 323.085L83.2353 327.727L83.2343 327.725L73.9527 337.008H73.9518L69.3115 341.647H69.3106L64.6697 346.289H64.6688L55.9053 355.053C56.1292 355.116 56.3549 355.175 56.5793 355.236L61.1334 350.682" fill="#99B6FF"/>
<path d="M56.4918 350.682H56.4922L61.1335 346.04V346.041L65.7742 341.4H65.7747L70.416 336.759L75.0573 332.118L75.0578 332.119L79.6985 327.478H79.6989L84.3398 322.836H84.3402L88.9815 318.194L93.6227 313.554V313.554L98.264 308.914H98.2649L102.905 304.272L102.906 304.274L110.416 296.763L112.188 294.99H112.189L116.83 290.349H116.83L121.471 285.709L126.112 281.068H126.113L130.753 276.427L130.754 276.428L135.395 271.787L140.036 267.145H140.038L141.956 265.227C141.885 265.011 141.817 264.795 141.744 264.582L138.932 267.394H138.931L134.29 272.035L129.649 276.678V276.676L125.008 281.317L120.367 285.958H120.366L115.725 290.6L115.725 290.598L111.083 295.24L106.442 299.882H106.442L101.801 304.522L97.1596 309.162L97.1591 309.161L92.5178 313.804L87.8765 318.444L83.2353 323.085H83.2344L78.5941 327.726L73.9519 332.367L69.3116 337.008H69.3106L64.6698 341.648H64.6689L60.0281 346.289L55.3864 350.93L52.3644 353.953C52.5782 354.025 52.7938 354.094 53.0087 354.164L56.4918 350.682" fill="#99B6FF"/>
<path d="M51.8188 220.767C51.3714 220.925 50.9259 221.083 50.4827 221.249L46.1038 225.627L41.4626 230.268H41.4621L36.8213 234.909L32.18 239.55H32.1795L27.5387 244.19H27.5384L22.8971 248.831L18.2558 253.472L13.6145 258.113L9.04071 262.685C8.87645 263.129 8.71677 263.574 8.5603 264.022L10.0777 262.504H10.0786L14.719 257.863L14.72 257.864L19.3611 253.223L24.0024 248.582L28.6437 243.941L33.2849 239.3H33.2854L37.9267 234.659V234.66L42.568 230.018V230.019L47.2091 225.378L51.8188 220.767Z" fill="#99B6FF"/>
<path d="M47.2091 346.04V346.041L51.8504 341.4L56.4922 336.759L61.1335 332.118V332.119L65.7746 327.478L70.4155 322.836H70.4159L75.0577 318.194L79.6984 313.554L79.6989 313.554L84.3397 308.914H84.3402L88.981 304.272L88.9815 304.274L93.6226 299.632L98.2639 294.99H98.2649L102.906 290.349L107.547 285.709L112.189 281.068L116.83 276.427L116.83 276.428L121.471 271.787L126.112 267.145H126.113L130.754 262.504L135.395 257.863V257.864L137.868 255.392C137.772 255.202 137.673 255.015 137.576 254.828L134.29 258.113L129.649 262.754V262.753L125.008 267.394L120.367 272.035H120.366L115.725 276.677L115.725 276.676L111.083 281.317L106.442 285.958H106.442L101.801 290.598L97.1595 295.239H97.1591L92.5178 299.882L87.8765 304.521L83.2353 309.162L83.2344 309.161L73.9527 318.443H73.9519L69.3115 323.085H69.3106L64.6698 327.727L64.6688 327.725L55.6129 336.782L55.3868 337.008H55.3864L50.7455 341.648H50.7451L46.1038 346.289L42.6101 349.782C42.7983 349.88 42.9859 349.978 43.1745 350.075L47.2091 346.04" fill="#99B6FF"/>
<path d="M42.0458 225.044L41.4626 225.627H41.4622L36.8214 230.268L32.1801 234.909H32.1796L27.5384 239.55L22.8971 244.19L18.2558 248.831L13.6145 253.472L12.8373 254.249C12.528 254.83 12.227 255.417 11.9338 256.008L14.72 253.223L19.3612 248.582L24.0025 243.941L28.6438 239.3L33.2849 234.659L33.2854 234.66L37.9262 230.018L37.9267 230.019L42.568 225.378L43.805 224.141C43.2136 224.434 42.6277 224.734 42.0458 225.044" fill="#99B6FF"/>
<path d="M37.9261 341.4H37.9266L46.9829 332.343L47.2091 332.118V332.119L51.8504 327.478L56.4917 322.837H56.4921L61.1334 318.195L65.7746 313.555L70.4154 308.914H70.4159L75.0572 304.273L75.0577 304.274L79.6988 299.633L84.3397 294.991H84.3401L88.9814 290.35L93.6226 285.71L98.2639 281.069H98.2648L102.906 276.428V276.429L107.547 271.788L112.188 267.145H112.189L116.83 262.504H116.83L121.471 257.863V257.864L126.113 253.223L130.753 248.582H130.754L132.63 246.705C132.513 246.538 132.393 246.373 132.274 246.206L129.649 248.831L125.008 253.472L120.367 258.113H120.366L115.725 262.755L115.725 262.753L111.084 267.394H111.083L106.442 272.035H106.441L101.801 276.677L97.1595 281.318H97.159L92.5182 285.959H92.5177L87.8764 290.6V290.598L83.2352 295.24H83.2343L73.9527 304.522H73.9518L69.3115 309.163L69.3105 309.162L64.6697 313.804H64.6688L60.028 318.444L55.3868 323.085H55.3863L50.7455 327.727L50.745 327.726L46.1037 332.367L41.4625 337.008H41.4621L36.8212 341.648L33.9896 344.48C34.1557 344.6 34.3223 344.718 34.4893 344.837L37.9261 341.4" fill="#99B6FF"/>
<path d="M21.8536 333.408C21.9867 333.561 22.123 333.712 22.2565 333.863L24.0024 332.118V332.119L28.6437 327.478L33.2849 322.836H33.2854L37.9267 318.194L42.568 313.554L47.2091 308.914L51.8504 304.272V304.274L56.4922 299.632L61.1335 294.99L65.7747 290.349L70.416 285.709L75.0573 281.068H75.0577L79.6984 276.427L79.6989 276.428L84.3397 271.787H84.3402L88.9815 267.145L93.6227 262.504L98.264 257.863L98.2649 257.864L102.906 253.223L107.547 248.582L112.189 243.941L116.83 239.3H116.83L121.471 234.659V234.66L121.659 234.472C121.507 234.338 121.358 234.202 121.206 234.069L120.367 234.909H120.366L115.725 239.55H115.725L111.084 244.19H111.083L106.442 248.831H106.442L101.801 253.472L97.1596 258.113H97.1591L92.5178 262.754V262.753L87.8765 267.394L83.2353 272.035H83.2344L78.594 276.676L73.9527 281.317H73.9519L69.3116 285.958H69.3106L64.6698 290.6L64.6688 290.598L60.028 295.239L55.3868 299.882H55.3864L50.7456 304.521H50.7451L46.1038 309.162V309.161L41.4626 313.804H41.4621L36.8213 318.443L32.18 323.085H32.1796L27.5387 327.727L27.5384 327.725L22.8971 332.367L21.8536 333.408" fill="#99B6FF"/>
<path d="M17.7601 328.22C17.879 328.387 18.0011 328.552 18.1213 328.716L19.3611 327.478L24.0024 322.837L28.6437 318.194L33.2848 313.554L33.2853 313.555L37.9261 308.914H37.9266L42.5679 304.274L47.2091 299.633L51.8504 294.99L56.4921 290.349L61.1334 285.709L65.7746 281.068L70.4159 276.427V276.429L75.0572 271.787H75.0577L79.6984 267.145H79.6988L84.3401 262.504L88.9814 257.864L93.6226 253.223L98.2639 248.582H98.2648L102.906 243.941L107.547 239.3L112.189 234.659V234.66L116.512 230.336C116.347 230.215 116.183 230.094 116.018 229.976L115.725 230.268H115.725L111.084 234.909H111.083L106.442 239.55H106.441L101.801 244.19L97.1595 248.831H97.159L92.5182 253.472H92.5177L87.8764 258.113L83.2353 262.754L83.2343 262.753L78.594 267.394L73.9527 272.035H73.9518L69.3115 276.678L69.3105 276.676L64.6697 281.317H64.6688L60.028 285.959L55.3868 290.6L55.3863 290.598L50.7455 295.24H50.745L46.1037 299.882L41.4625 304.522H41.4621L36.8212 309.162V309.161L32.1795 313.804L27.5387 318.444H27.5383L22.897 323.085L18.2562 327.726H18.2557L17.7601 328.22" fill="#99B6FF"/>
<path d="M19.3611 322.836L28.6437 313.554L33.2849 308.914H33.2854L37.9262 304.272L37.9267 304.274L45.4362 296.763L47.2091 294.99L51.8504 290.349L56.4917 285.709H56.4922L61.1335 281.068L65.7747 276.427V276.428L70.4159 271.787L75.0572 267.145H75.0577L79.6989 262.504L84.3397 257.864H84.3402L88.9815 253.223L93.6227 248.582L98.2639 243.941H98.2649L102.906 239.3L107.547 234.66L112.188 230.018L112.189 230.019L113.773 228.434C113.601 228.322 113.429 228.206 113.256 228.095L111.083 230.268L106.442 234.909H106.442L101.801 239.55L97.1595 244.19H97.1591L92.5178 248.831L87.8765 253.472L83.2353 258.113H83.2344L78.594 262.753L73.9527 267.394H73.9519L69.3106 272.035L64.6698 276.677L64.6688 276.676L60.028 281.317L55.3868 285.958H55.3864L50.7455 290.599L50.7451 290.598L46.1038 295.239L41.4626 299.881H41.4621L36.8213 304.521L32.18 309.162L32.1795 309.161L27.5384 313.803L22.8971 318.443L18.2558 323.085L15.8807 325.46C15.9923 325.632 16.107 325.805 16.2208 325.976L19.3611 322.836" fill="#99B6FF"/>
<path d="M20.1343 331.344L24.0024 327.478L28.6437 322.836L33.2854 318.194L37.9262 313.554L37.9267 313.554L42.568 308.914L47.2092 304.272V304.274L51.8504 299.632L56.4917 294.99H56.4922L61.1335 290.349L65.7747 285.709L70.416 281.068L75.0573 276.427L75.0577 276.428L79.6989 271.787L84.3397 267.145H84.3402L88.9815 262.504L93.6227 257.863V257.864L98.264 253.223H98.2649L102.906 248.582L107.547 243.941L112.188 239.3H112.189L116.83 234.659L116.83 234.66L119.141 232.348C118.982 232.222 118.826 232.093 118.666 231.968L115.725 234.909H115.725L111.083 239.55L106.442 244.19H106.442L101.801 248.831L97.1596 253.472H97.1591L92.5183 258.113H92.5178L87.8765 262.754V262.753L83.2353 267.394H83.2344L78.594 272.035L73.9527 276.677L73.9519 276.676L69.3106 281.317L64.6698 285.958H64.6689L60.028 290.598L55.3869 295.239H55.3864L50.7456 299.882H50.7451L46.1043 304.521H46.1038L41.4626 309.162L41.4622 309.161L32.18 318.443H32.1796L27.5387 323.085H27.5384L22.8976 327.727L22.8971 327.725L19.7521 330.87C19.8779 331.03 20.0067 331.186 20.1343 331.344" fill="#99B6FF"/>
<path d="M13.6145 318.443L12.472 319.586C12.5688 319.774 12.6689 319.96 12.7679 320.147L14.72 318.194L19.3612 313.554V313.554L24.0025 308.914L28.6437 304.272V304.274L33.2854 299.632L37.9262 294.99H37.9267L42.568 290.349L47.2092 285.709L51.8505 281.068L56.4918 276.427L56.4922 276.428L61.1335 271.787L65.7747 267.145L70.416 262.504L75.0573 257.863L75.0577 257.864L79.6989 253.223L84.3397 248.582H84.3402L88.9815 243.941L93.6227 239.3L98.264 234.659L98.2649 234.66L102.906 230.018V230.019L107.547 225.378L107.943 224.981C107.757 224.882 107.571 224.782 107.384 224.686L106.442 225.627H106.442L101.801 230.268L97.1596 234.909H97.1591L92.5178 239.55L87.8765 244.19L83.2353 248.831H83.2344L78.594 253.472L73.9528 258.113H73.9519L69.3106 262.754V262.753L64.6698 267.394H64.6689L60.028 272.035L55.3869 276.677L55.3864 276.676L50.7456 281.317H50.7451L46.1038 285.958L41.4626 290.6L41.4622 290.598L36.8213 295.239L32.18 299.882H32.1796L27.5387 304.521H27.5384L22.8976 309.162L22.8971 309.161L13.8403 318.219L13.6145 318.443" fill="#99B6FF"/>
<path d="M14.719 313.554L14.72 313.554L19.3611 308.914L24.0024 304.274L28.6437 299.632L33.2849 294.99H33.2854L37.9267 290.349L42.568 285.709L47.2092 281.068L51.8504 276.427V276.428L56.4922 271.787L61.1335 267.145L65.7747 262.504L70.416 257.863V257.864L75.0573 253.223H75.0577L79.6984 248.582H79.6989L84.3402 243.941L88.9815 239.3L93.6227 234.659V234.66L98.264 230.018L98.2649 230.019L102.906 225.378L104.845 223.439C104.651 223.347 104.458 223.255 104.262 223.166L101.801 225.627L97.1596 230.268H97.1591L92.5183 234.909H92.5178L87.8765 239.55L83.2353 244.19H83.2344L78.594 248.831L73.9527 253.472H73.9519L69.3116 258.113H69.3106L64.6698 262.754L64.6689 262.753L60.028 267.394L55.3869 272.035H55.3864L50.7456 276.677L50.7451 276.676L46.1038 281.317L41.4626 285.958H41.4621L36.8213 290.598L32.18 295.24H32.1796L27.5384 299.882L22.8976 304.522H22.8971L18.2563 309.162L18.2558 309.161L13.6145 313.804L10.9528 316.465C11.0413 316.66 11.134 316.854 11.2249 317.049L14.719 313.554Z" fill="#99B6FF"/>
<path d="M14.4346 323.121L14.7191 322.836H14.72L19.3612 318.194L24.0025 313.554L28.6438 308.914L33.2849 304.272L33.2854 304.274L37.9267 299.632L42.568 294.99L47.2092 290.349L51.8505 285.709L56.4922 281.068L61.1335 276.427V276.428L65.7747 271.787L70.416 267.145L75.0573 262.504H75.0578L79.6985 257.863L79.6989 257.864L84.3402 253.223L88.9815 248.582L93.6227 243.941L98.264 239.3H98.2649L102.906 234.659V234.66L107.547 230.018V230.019L110.918 226.649C110.739 226.542 110.56 226.435 110.38 226.331L106.442 230.268H106.442L101.801 234.909L97.1596 239.55H97.1591L92.5183 244.19H92.5178L87.8765 248.831L83.2354 253.472H83.2344L78.5941 258.113L73.9528 262.754L73.9519 262.753L69.3116 267.394H69.3107L64.6698 272.035H64.6689L60.0281 276.676L55.3869 281.317H55.3864L50.7456 285.958H50.7451L46.1038 290.599V290.598L41.4626 295.239H41.4622L32.1801 304.521H32.1796L27.5388 309.162L27.5384 309.161L22.8971 313.803L18.2558 318.443L14.1166 322.584C14.2208 322.764 14.3281 322.941 14.4346 323.121" fill="#99B6FF"/>
<path d="M10.0777 267.145H10.0786L14.7199 262.504L19.3611 257.863V257.864L24.0024 253.223L28.6437 248.582L33.2849 243.941H33.2853L37.9262 239.3H37.9266L42.5679 234.66L47.2091 230.018V230.019L51.8504 225.378L56.4917 220.737H56.4922L58.4046 218.824C58.0243 218.917 57.6434 219.009 57.2653 219.108L55.3868 220.986H55.3863L50.7455 225.627H50.745L46.1037 230.268L41.4626 234.909H41.4621L36.8213 239.55L32.18 244.19H32.1795L27.5383 248.831L22.897 253.472L18.2557 258.113L13.6145 262.754V262.753L8.97323 267.394H8.97277L6.89969 269.467C6.80103 269.846 6.70881 270.226 6.61658 270.607L10.0777 267.145Z" fill="#99B6FF"/>
<path d="M10.0786 299.632L14.719 294.99H14.7199L19.3611 290.349L24.0024 285.709L28.6437 281.068L33.2849 276.427L33.2853 276.428L37.9266 271.787L42.5679 267.145L47.2091 262.504L51.8504 257.863V257.864L56.4922 253.223L61.1335 248.582L65.7746 243.941L70.4159 239.3L75.0572 234.659L75.0577 234.66L79.6984 230.018L79.6989 230.019L84.3402 225.378L88.9815 220.737L91.0527 218.666C90.82 218.612 90.5856 218.562 90.3521 218.511L87.8765 220.986L83.2353 225.627H83.2344L78.594 230.268L73.9527 234.909H73.9519L69.3106 239.55L64.6698 244.19H64.6688L60.028 248.831L55.3868 253.472H55.3864L50.7455 258.113H50.7451L46.1038 262.754V262.753L41.4626 267.394H41.4621L36.8213 272.035L32.18 276.677L32.1795 276.676L27.5384 281.317L22.8971 285.958L18.2558 290.598L13.6145 295.239L8.97324 299.881H8.97279L6.29907 302.555C6.35092 302.787 6.40002 303.022 6.45416 303.256L10.0786 299.632" fill="#99B6FF"/>
<path d="M8.54053 310.451L10.0777 308.914H10.0786L14.719 304.272L14.7199 304.274L19.3611 299.632L24.0024 294.99L28.6437 290.349L33.2849 285.709H33.2853L37.9266 281.068L42.5679 276.427V276.428L47.2091 271.787L51.8504 267.145L56.4922 262.504L61.1334 257.863V257.864L65.7746 253.223L70.4159 248.582L75.0572 243.941H75.0577L79.6984 239.3H79.6989L84.3402 234.66L88.9814 230.018V230.019L93.6226 225.378L98.2475 220.753C98.0364 220.679 97.8267 220.603 97.6142 220.531L97.1595 220.986H97.159L92.5182 225.627H92.5177L87.8764 230.268L83.2353 234.909H83.2343L78.594 239.55L73.9527 244.19H73.9519L69.3106 248.831L64.6697 253.472H64.6688L60.028 258.113L55.3868 262.754L55.3863 262.753L50.7455 267.394H50.745L46.1037 272.035L41.4626 276.677L41.4621 276.676L36.8213 281.317L32.18 285.958H32.1795L27.5383 290.6V290.598L22.897 295.239L15.9349 302.201L13.6145 304.521L8.97323 309.162L8.97277 309.161L8.31799 309.817C8.39003 310.028 8.46666 310.238 8.54053 310.451" fill="#99B6FF"/>
<path d="M10.0777 304.272L10.0786 304.274L14.7199 299.633L19.3611 294.99L24.0024 290.349L28.6437 285.709L33.2849 281.068H33.2854L37.9262 276.427L37.9266 276.429L42.5679 271.787L47.2091 267.145L51.8504 262.504L56.4917 257.863L56.4922 257.864L61.1335 253.223L65.7746 248.582L70.4159 243.941L75.0572 239.3H75.0577L79.6989 234.659V234.66L84.3397 230.018L84.3402 230.019L88.9815 225.378L93.6226 220.737L94.7313 219.629C94.5096 219.565 94.2876 219.501 94.0655 219.439L92.5178 220.986L87.8765 225.627L83.2353 230.268H83.2344L78.594 234.909L73.9527 239.55H73.9519L69.3115 244.19H69.3106L64.6698 248.831H64.6688L60.028 253.472L55.3868 258.113H55.3864L50.7455 262.754L50.7451 262.753L46.1038 267.394L41.4626 272.035H41.4621L36.8213 276.676L32.18 281.317H32.1795L27.5387 285.958H27.5384L22.8971 290.6V290.598L18.2558 295.24L13.6145 299.882L8.97325 304.522H8.97279L7.22595 306.268C7.28882 306.489 7.35213 306.712 7.41729 306.933L10.0777 304.272Z" fill="#99B6FF"/>
<path d="M9.81297 313.819L10.0777 313.554L10.0786 313.555L14.719 308.914H14.72L19.3611 304.272V304.274L28.3051 295.33L28.6437 294.99L33.2849 290.349H33.2854L37.9262 285.709H37.9267L42.568 281.068L47.2091 276.427V276.429L51.8504 271.787L56.4917 267.145H56.4922L61.1335 262.504L65.7747 257.864L70.416 253.223L75.0573 248.582H75.0577L79.6989 243.941L84.3397 239.3H84.3402L88.9815 234.659V234.66L93.6227 230.018V230.019L98.264 225.378H98.2649L101.616 222.027C101.414 221.943 101.212 221.859 101.009 221.778L97.1595 225.627H97.1591L92.5178 230.268L87.8765 234.909L83.2353 239.55H83.2344L78.594 244.19L73.9527 248.831H73.9519L69.3115 253.472H69.3106L64.6698 258.113H64.6688L60.028 262.753L55.3868 267.394H55.3864L50.7455 272.035H50.7451L46.1038 276.678V276.676L41.4626 281.317H41.4621L36.8213 285.959L32.18 290.6L32.1795 290.598L27.5387 295.24H27.5384L22.8971 299.882L18.2563 304.522H18.2558L13.6145 309.162V309.161L9.56519 313.21C9.64548 313.415 9.73082 313.617 9.81297 313.819" fill="#99B6FF"/>
<path d="M5.43642 281.068L10.0777 276.427L10.0786 276.428L14.7199 271.787L19.3611 267.145L24.0024 262.504L28.6437 257.863V257.864L33.2848 253.223H33.2853L37.9261 248.582H37.9266L42.5679 243.941L47.2091 239.3L51.8504 234.659V234.66L56.4917 230.018L56.4921 230.019L61.1334 225.378L65.7746 220.737L69.45 217.061C69.1361 217.086 68.8237 217.117 68.5107 217.145L64.6697 220.986H64.6688L60.028 225.627L55.3868 230.268H55.3863L50.7455 234.909H50.745L46.1037 239.55L41.4626 244.19H41.4621L36.8213 248.831L32.18 253.472H32.1795L27.5387 258.113H27.5383L22.897 262.754V262.753L18.2557 267.394L13.6144 272.035L8.97322 276.677L8.97276 276.676L4.93534 280.714C4.90643 281.027 4.87661 281.338 4.85229 281.652L5.43642 281.068" fill="#99B6FF"/>
<path d="M270.215 104.497H269.628C269.626 106.04 268.376 107.289 266.833 107.291C265.289 107.289 264.041 106.04 264.038 104.497C264.041 102.953 265.29 101.705 266.833 101.702C268.376 101.705 269.626 102.953 269.628 104.497H270.215H270.803C270.803 102.305 269.025 100.527 266.833 100.527C264.64 100.527 262.863 102.305 262.863 104.497C262.863 106.69 264.64 108.466 266.833 108.466C269.025 108.466 270.803 106.689 270.803 104.497H270.215Z" fill="#FEF3DE"/>
<path d="M59.6701 272.558H59.0827C59.08 274.1 57.8315 275.349 56.288 275.352C54.7444 275.349 53.4958 274.1 53.4931 272.558C53.4958 271.014 54.7448 269.765 56.288 269.762C57.831 269.765 59.08 271.014 59.0827 272.558H59.6701H60.2574C60.257 270.366 58.4807 268.588 56.288 268.588C54.0951 268.588 52.3188 270.366 52.3185 272.558C52.3188 274.75 54.0955 276.526 56.288 276.527C58.4807 276.526 60.2574 274.75 60.2574 272.558H59.6701Z" fill="#FEF3DE"/>
<path d="M517.51 184.901H516.923C516.921 186.444 515.672 187.693 514.127 187.696C512.585 187.693 511.336 186.444 511.333 184.901C511.336 183.357 512.585 182.109 514.127 182.106C515.672 182.109 516.921 183.357 516.923 184.901H517.51H518.098C518.098 182.709 516.32 180.932 514.127 180.932C511.935 180.932 510.159 182.709 510.159 184.901C510.159 187.094 511.935 188.87 514.127 188.871C516.32 188.87 518.098 187.094 518.098 184.901H517.51Z" fill="#FEF3DE"/>
<path d="M67.0704 181.274H66.4831C66.4827 182.982 65.7926 184.523 64.6739 185.643C63.5543 186.761 62.0135 187.452 60.3057 187.452C58.5982 187.452 57.0579 186.761 55.9378 185.643C54.8192 184.523 54.1291 182.982 54.1286 181.274C54.1291 179.568 54.8192 178.026 55.9378 176.907C57.0579 175.788 58.5982 175.098 60.3057 175.098C62.0135 175.098 63.5543 175.788 64.6739 176.907C65.7926 178.026 66.4827 179.568 66.4831 181.274H67.0704H67.6577C67.6574 177.215 64.3665 173.923 60.3057 173.923C56.2452 173.923 52.9544 177.215 52.954 181.274C52.9544 185.335 56.2457 188.626 60.3057 188.626C64.3665 188.626 67.6574 185.335 67.6577 181.274H67.0704Z" fill="#FEF3DE"/>
<path d="M492.909 305.933H492.321C492.321 307.641 491.63 309.181 490.512 310.301C489.393 311.42 487.852 312.11 486.144 312.111C484.437 312.11 482.896 311.42 481.776 310.301C480.657 309.181 479.967 307.641 479.966 305.933C479.967 304.227 480.657 302.686 481.776 301.566C482.896 300.447 484.437 299.756 486.144 299.756C487.852 299.756 489.392 300.447 490.512 301.566C491.63 302.686 492.321 304.227 492.321 305.933H492.909H493.496C493.496 301.874 490.204 298.581 486.144 298.581C482.084 298.581 478.793 301.874 478.792 305.933C478.793 309.994 482.084 313.284 486.144 313.286C490.204 313.284 493.496 309.994 493.496 305.933H492.909Z" fill="#FEF3DE"/>
<path d="M351.223 184.842L375.562 171.359Z" fill="white"/>
<path d="M351.507 185.357L375.846 171.873C376.129 171.716 376.232 171.358 376.075 171.075C375.918 170.791 375.561 170.689 375.276 170.846L350.939 184.329C350.654 184.486 350.552 184.843 350.708 185.127C350.866 185.411 351.224 185.514 351.507 185.357" fill="#171938"/>
<path d="M351.101 202.364L377.26 204.48Z" fill="white"/>
<path d="M351.054 202.95L377.213 205.066C377.536 205.092 377.819 204.851 377.845 204.528C377.871 204.204 377.63 203.921 377.307 203.895L351.149 201.779C350.825 201.753 350.542 201.994 350.516 202.317C350.49 202.64 350.731 202.925 351.054 202.95Z" fill="#171938"/>
<path d="M349.622 216.843L372.733 229.277Z" fill="white"/>
<path d="M349.343 217.36L372.455 229.793C372.741 229.947 373.097 229.84 373.251 229.554C373.404 229.268 373.297 228.912 373.012 228.759L349.899 216.326C349.614 216.172 349.258 216.279 349.104 216.564C348.95 216.85 349.057 217.207 349.343 217.36" fill="#171938"/>
<mask id="path-58-inside-1_1405_710" fill="white">
<path d="M441.258 176.729C437.509 190.021 430.184 203.15 422.089 216.016C431.601 221.429 441.084 226.892 450.552 232.383C452.88 226.99 454.948 222.149 456.663 218.111C460.361 209.404 463.291 200.408 465.43 191.195C469.593 173.254 474.483 149.365 472.688 143.378C471.955 140.931 467.365 153.164 466.991 154.393C468.773 148.631 471.152 133.811 469.169 133.097C467.233 132.401 461.481 149.849 461.481 149.849C461.481 149.849 463.291 143.991 464.114 135.129C464.672 129.133 463.521 129.2 463.521 129.2C459.611 129.481 455.508 148.622 455.508 148.622C455.508 148.622 455.74 132.192 454.333 132.634C450.569 133.824 449.047 158.101 449.047 158.101C449.047 158.101 449.045 160.653 444.853 154.497C440.661 148.344 438.393 150.891 438.393 150.891C438.393 150.891 442.313 161.303 443.246 165.889C443.303 166.171 442.232 173.279 441.258 176.729"/>
</mask>
<path d="M441.258 176.729C437.509 190.021 430.184 203.15 422.089 216.016C431.601 221.429 441.084 226.892 450.552 232.383C452.88 226.99 454.948 222.149 456.663 218.111C460.361 209.404 463.291 200.408 465.43 191.195C469.593 173.254 474.483 149.365 472.688 143.378C471.955 140.931 467.365 153.164 466.991 154.393C468.773 148.631 471.152 133.811 469.169 133.097C467.233 132.401 461.481 149.849 461.481 149.849C461.481 149.849 463.291 143.991 464.114 135.129C464.672 129.133 463.521 129.2 463.521 129.2C459.611 129.481 455.508 148.622 455.508 148.622C455.508 148.622 455.74 132.192 454.333 132.634C450.569 133.824 449.047 158.101 449.047 158.101C449.047 158.101 449.045 160.653 444.853 154.497C440.661 148.344 438.393 150.891 438.393 150.891C438.393 150.891 442.313 161.303 443.246 165.889C443.303 166.171 442.232 173.279 441.258 176.729" fill="#FEF3DE"/>
<path d="M422.089 216.016L421.594 216.885L420.686 216.368L421.242 215.484L422.089 216.016ZM450.552 232.383L451.47 232.779L451.024 233.812L450.05 233.248L450.552 232.383ZM456.663 218.111L455.743 217.72L455.743 217.72L456.663 218.111ZM465.43 191.195L466.404 191.421L466.404 191.421L465.43 191.195ZM472.688 143.378L471.73 143.665L471.73 143.665L472.688 143.378ZM466.991 154.393L467.946 154.688L466.034 154.102L466.991 154.393ZM469.169 133.097L469.507 132.156L469.508 132.156L469.169 133.097ZM461.481 149.849L462.43 150.162L460.525 149.554L461.481 149.849ZM464.114 135.129L463.119 135.037L463.119 135.037L464.114 135.129ZM463.521 129.2L463.449 128.202L463.463 128.201L463.521 129.2ZM455.508 148.622L456.485 148.831L454.508 148.607L455.508 148.622ZM454.333 132.634L454.031 131.681L454.033 131.681L454.333 132.634ZM449.047 158.101L448.047 158.1L448.047 158.069L448.049 158.038L449.047 158.101ZM444.853 154.497L445.68 153.934L445.68 153.934L444.853 154.497ZM438.393 150.891L437.457 151.243L437.244 150.677L437.646 150.226L438.393 150.891ZM443.246 165.889L444.226 165.689L444.227 165.693L443.246 165.889ZM442.22 177C438.431 190.438 431.04 203.668 422.935 216.549L421.242 215.484C429.329 202.632 436.588 189.604 440.295 176.457L442.22 177ZM422.583 215.147C432.099 220.562 441.584 226.026 451.053 231.517L450.05 233.248C440.584 227.758 431.103 222.296 421.594 216.885L422.583 215.147ZM449.634 231.986C451.961 226.595 454.029 221.756 455.743 217.72L457.584 218.501C455.868 222.541 453.799 227.384 451.47 232.779L449.634 231.986ZM455.743 217.72C459.418 209.066 462.33 200.126 464.456 190.968L466.404 191.421C464.252 200.691 461.304 209.742 457.584 218.501L455.743 217.72ZM464.456 190.968C466.536 182.005 468.794 171.571 470.307 162.637C471.064 158.168 471.632 154.092 471.9 150.772C472.172 147.399 472.118 144.96 471.73 143.665L473.646 143.091C474.155 144.789 474.164 147.581 473.893 150.933C473.619 154.336 473.041 158.476 472.279 162.971C470.756 171.963 468.487 182.443 466.404 191.421L464.456 190.968ZM471.73 143.665C471.707 143.589 471.743 143.792 471.992 143.942C472.322 144.141 472.628 144.028 472.712 143.984C472.774 143.952 472.761 143.941 472.673 144.041C472.596 144.128 472.497 144.26 472.377 144.442C471.887 145.189 471.261 146.461 470.619 147.912C469.342 150.797 468.118 154.122 467.948 154.683L466.034 154.102C466.237 153.434 467.495 150.029 468.79 147.102C469.434 145.647 470.117 144.242 470.705 143.345C470.855 143.117 471.011 142.902 471.171 142.72C471.32 142.551 471.526 142.348 471.785 142.212C472.064 142.066 472.544 141.94 473.023 142.228C473.42 142.467 473.577 142.861 473.646 143.091L471.73 143.665ZM466.036 154.097C466.904 151.29 467.934 146.205 468.5 141.727C468.782 139.488 468.942 137.443 468.916 135.933C468.902 135.172 468.842 134.6 468.747 134.224C468.7 134.035 468.656 133.943 468.637 133.912C468.619 133.881 468.669 133.98 468.83 134.038L469.508 132.156C469.917 132.304 470.181 132.602 470.344 132.87C470.507 133.137 470.614 133.442 470.688 133.738C470.836 134.332 470.901 135.08 470.915 135.898C470.945 137.548 470.771 139.702 470.484 141.977C469.91 146.528 468.86 151.734 467.946 154.688L466.036 154.097ZM468.83 134.038C468.954 134.083 469.071 134.084 469.159 134.067C469.2 134.06 469.231 134.049 469.25 134.041C469.269 134.034 469.279 134.027 469.28 134.027C469.281 134.026 469.275 134.03 469.263 134.039C469.251 134.048 469.235 134.062 469.213 134.082C469.17 134.122 469.116 134.179 469.05 134.258C468.776 134.586 468.432 135.136 468.035 135.888C467.251 137.375 466.366 139.448 465.529 141.578C464.696 143.699 463.921 145.846 463.353 147.464C463.07 148.273 462.839 148.948 462.679 149.421C462.599 149.658 462.536 149.844 462.494 149.97C462.473 150.033 462.457 150.081 462.446 150.114C462.441 150.13 462.437 150.142 462.434 150.15C462.433 150.154 462.432 150.157 462.431 150.159C462.431 150.16 462.431 150.161 462.431 150.162C462.43 150.162 462.43 150.162 462.43 150.162C462.43 150.162 462.43 150.162 461.481 149.849C460.531 149.536 460.531 149.536 460.531 149.536C460.531 149.535 460.531 149.535 460.531 149.535C460.531 149.534 460.532 149.533 460.532 149.532C460.533 149.53 460.534 149.527 460.535 149.522C460.538 149.514 460.542 149.501 460.548 149.484C460.559 149.451 460.576 149.401 460.597 149.337C460.64 149.208 460.703 149.019 460.784 148.78C460.946 148.301 461.18 147.619 461.466 146.803C462.038 145.171 462.822 142.999 463.668 140.846C464.511 138.701 465.428 136.543 466.266 134.954C466.681 134.168 467.104 133.469 467.515 132.976C467.717 132.734 467.961 132.486 468.247 132.314C468.536 132.14 468.995 131.972 469.507 132.156L468.83 134.038ZM461.481 149.849C460.525 149.554 460.525 149.554 460.525 149.554C460.525 149.554 460.525 149.554 460.525 149.554C460.525 149.554 460.525 149.554 460.525 149.554C460.525 149.553 460.526 149.553 460.526 149.552C460.526 149.55 460.528 149.546 460.529 149.541C460.532 149.531 460.537 149.516 460.543 149.495C460.556 149.453 460.574 149.389 460.599 149.303C460.648 149.132 460.72 148.876 460.81 148.539C460.989 147.865 461.237 146.871 461.511 145.601C462.06 143.061 462.711 139.421 463.119 135.037L465.11 135.222C464.694 139.699 464.029 143.419 463.466 146.023C463.185 147.326 462.929 148.35 462.743 149.052C462.65 149.403 462.574 149.673 462.521 149.857C462.495 149.949 462.474 150.019 462.459 150.067C462.452 150.091 462.447 150.11 462.443 150.123C462.441 150.129 462.439 150.134 462.438 150.138C462.438 150.14 462.437 150.141 462.437 150.142C462.437 150.143 462.436 150.143 462.436 150.143C462.436 150.144 462.436 150.144 462.436 150.144C462.436 150.144 462.436 150.144 461.481 149.849ZM463.119 135.037C463.395 132.067 463.23 130.743 463.068 130.201C462.99 129.939 462.94 129.953 463.031 130.033C463.08 130.077 463.156 130.126 463.26 130.16C463.31 130.176 463.363 130.187 463.417 130.194C463.444 130.197 463.471 130.199 463.498 130.199C463.512 130.2 463.525 130.2 463.539 130.2C463.545 130.199 463.552 130.199 463.559 130.199C463.562 130.199 463.566 130.199 463.569 130.199C463.571 130.199 463.573 130.198 463.574 130.198C463.577 130.198 463.579 130.198 463.521 129.2C463.463 128.201 463.465 128.201 463.468 128.201C463.469 128.201 463.471 128.201 463.473 128.201C463.477 128.201 463.48 128.201 463.484 128.2C463.491 128.2 463.498 128.2 463.505 128.2C463.52 128.2 463.535 128.2 463.55 128.2C463.582 128.201 463.615 128.203 463.65 128.207C463.721 128.216 463.798 128.231 463.879 128.258C464.043 128.311 464.205 128.402 464.353 128.533C464.643 128.788 464.845 129.16 464.985 129.631C465.26 130.555 465.392 132.196 465.11 135.222L463.119 135.037ZM463.593 130.197C463.498 130.204 463.231 130.293 462.803 130.777C462.397 131.237 461.96 131.924 461.51 132.807C460.614 134.566 459.754 136.922 459.002 139.316C458.253 141.7 457.623 144.08 457.18 145.867C456.959 146.76 456.785 147.502 456.666 148.021C456.607 148.281 456.562 148.484 456.531 148.622C456.516 148.691 456.504 148.744 456.497 148.779C456.493 148.797 456.49 148.81 456.488 148.819C456.487 148.823 456.486 148.826 456.486 148.828C456.486 148.829 456.486 148.83 456.485 148.831C456.485 148.831 456.485 148.831 456.485 148.831C456.485 148.831 456.485 148.831 455.508 148.622C454.53 148.412 454.53 148.412 454.53 148.412C454.53 148.411 454.53 148.411 454.53 148.411C454.53 148.41 454.53 148.409 454.531 148.408C454.531 148.405 454.532 148.401 454.533 148.397C454.535 148.387 454.538 148.373 454.542 148.354C454.55 148.317 454.562 148.262 454.578 148.191C454.61 148.048 454.656 147.84 454.717 147.576C454.838 147.047 455.015 146.292 455.239 145.386C455.688 143.575 456.328 141.153 457.094 138.716C457.856 136.289 458.756 133.807 459.728 131.899C460.213 130.948 460.739 130.093 461.305 129.453C461.849 128.836 462.566 128.266 463.449 128.202L463.593 130.197ZM455.508 148.622C454.508 148.607 454.508 148.607 454.508 148.607C454.508 148.607 454.508 148.607 454.508 148.607C454.508 148.606 454.508 148.606 454.508 148.605C454.508 148.603 454.508 148.6 454.508 148.596C454.508 148.588 454.508 148.577 454.508 148.562C454.509 148.531 454.509 148.485 454.51 148.426C454.511 148.307 454.513 148.131 454.515 147.908C454.518 147.462 454.522 146.825 454.522 146.061C454.522 144.533 454.507 142.504 454.448 140.491C454.39 138.471 454.288 136.495 454.117 135.064C454.031 134.337 453.933 133.809 453.834 133.495C453.78 133.324 453.754 133.311 453.792 133.36C453.816 133.39 453.898 133.486 454.055 133.556C454.236 133.636 454.445 133.648 454.633 133.588L454.033 131.681C454.309 131.594 454.602 131.61 454.865 131.727C455.104 131.833 455.264 131.996 455.364 132.122C455.553 132.363 455.667 132.657 455.741 132.893C455.899 133.394 456.014 134.076 456.103 134.827C456.285 136.352 456.388 138.401 456.448 140.433C456.507 142.472 456.522 144.522 456.522 146.061C456.522 146.831 456.518 147.474 456.515 147.924C456.513 148.15 456.511 148.327 456.51 148.448C456.509 148.509 456.508 148.556 456.508 148.587C456.508 148.603 456.508 148.615 456.508 148.623C456.508 148.627 456.508 148.63 456.507 148.632C456.507 148.633 456.507 148.634 456.507 148.635C456.507 148.635 456.507 148.635 456.507 148.635C456.507 148.636 456.507 148.636 455.508 148.622ZM454.634 133.588C454.577 133.606 454.302 133.779 453.914 134.529C453.558 135.217 453.212 136.187 452.883 137.381C452.229 139.76 451.693 142.854 451.269 145.95C450.847 149.037 450.54 152.092 450.34 154.377C450.239 155.519 450.166 156.467 450.117 157.129C450.093 157.46 450.075 157.719 450.063 157.896C450.057 157.984 450.052 158.051 450.049 158.096C450.048 158.119 450.047 158.136 450.046 158.147C450.046 158.153 450.045 158.157 450.045 158.16C450.045 158.161 450.045 158.162 450.045 158.163C450.045 158.163 450.045 158.163 450.045 158.163C450.045 158.164 450.045 158.164 449.047 158.101C448.049 158.038 448.049 158.038 448.049 158.038C448.049 158.038 448.049 158.037 448.049 158.037C448.049 158.036 448.049 158.035 448.049 158.033C448.049 158.03 448.05 158.026 448.05 158.02C448.051 158.008 448.052 157.99 448.054 157.966C448.057 157.919 448.061 157.85 448.067 157.76C448.079 157.581 448.098 157.317 448.122 156.982C448.172 156.312 448.246 155.354 448.347 154.202C448.55 151.898 448.859 148.809 449.288 145.678C449.715 142.556 450.265 139.358 450.955 136.85C451.299 135.601 451.689 134.479 452.137 133.611C452.552 132.807 453.148 131.96 454.031 131.681L454.634 133.588ZM449.047 158.101C450.047 158.102 450.047 158.103 450.047 158.104C450.047 158.104 450.047 158.105 450.047 158.105C450.047 158.106 450.047 158.108 450.047 158.109C450.047 158.111 450.047 158.114 450.047 158.117C450.047 158.123 450.047 158.129 450.046 158.137C450.046 158.151 450.045 158.169 450.044 158.189C450.042 158.228 450.037 158.28 450.029 158.34C450.013 158.452 449.977 158.631 449.89 158.821C449.803 159.011 449.633 159.278 449.314 159.456C448.975 159.646 448.605 159.659 448.279 159.578C447.715 159.436 447.152 158.984 446.549 158.343C445.908 157.662 445.088 156.619 444.027 155.06L445.68 153.934C446.714 155.453 447.467 156.4 448.005 156.972C448.581 157.584 448.804 157.647 448.765 157.638C448.701 157.622 448.528 157.604 448.336 157.711C448.165 157.807 448.094 157.94 448.072 157.986C448.06 158.013 448.054 158.032 448.052 158.041C448.05 158.05 448.049 158.055 448.049 158.057C448.048 158.06 448.048 158.063 448.048 158.068C448.048 158.071 448.047 158.074 448.047 158.08C448.047 158.082 448.047 158.085 448.047 158.089C448.047 158.09 448.047 158.092 448.047 158.094C448.047 158.095 448.047 158.096 448.047 158.097C448.047 158.097 448.047 158.098 448.047 158.098C448.047 158.099 448.047 158.1 449.047 158.101ZM444.027 155.06C441.985 152.064 440.588 151.459 439.931 151.379C439.61 151.34 439.395 151.415 439.269 151.479C439.203 151.513 439.157 151.547 439.133 151.567C439.121 151.576 439.116 151.582 439.116 151.581C439.117 151.58 439.119 151.578 439.123 151.574C439.125 151.572 439.127 151.57 439.13 151.567C439.131 151.565 439.133 151.564 439.134 151.562C439.135 151.561 439.136 151.56 439.137 151.559C439.137 151.559 439.138 151.558 439.138 151.558C439.139 151.557 439.14 151.556 438.393 150.891C437.646 150.226 437.647 150.225 437.647 150.224C437.648 150.224 437.648 150.223 437.649 150.223C437.65 150.221 437.651 150.22 437.652 150.219C437.654 150.217 437.657 150.214 437.659 150.211C437.664 150.206 437.67 150.2 437.676 150.193C437.689 150.18 437.704 150.164 437.722 150.147C437.758 150.112 437.806 150.069 437.864 150.02C437.981 149.925 438.145 149.808 438.357 149.699C438.787 149.479 439.401 149.301 440.172 149.394C441.696 149.579 443.529 150.778 445.68 153.934L444.027 155.06ZM438.393 150.891C439.329 150.539 439.329 150.539 439.329 150.539C439.329 150.539 439.329 150.539 439.329 150.539C439.329 150.54 439.329 150.54 439.33 150.541C439.33 150.542 439.331 150.544 439.332 150.547C439.334 150.552 439.337 150.56 439.34 150.57C439.348 150.59 439.359 150.62 439.374 150.659C439.403 150.737 439.446 150.852 439.501 150.999C439.61 151.295 439.768 151.721 439.959 152.247C440.343 153.298 440.864 154.749 441.415 156.344C442.508 159.512 443.744 163.322 444.226 165.689L442.267 166.088C441.815 163.87 440.624 160.181 439.524 156.997C438.978 155.415 438.461 153.976 438.08 152.932C437.89 152.41 437.734 151.987 437.626 151.695C437.571 151.549 437.529 151.436 437.5 151.359C437.486 151.321 437.475 151.292 437.468 151.272C437.464 151.263 437.461 151.255 437.46 151.25C437.459 151.248 437.458 151.246 437.458 151.245C437.457 151.244 437.457 151.244 437.457 151.244C437.457 151.243 437.457 151.243 437.457 151.243C437.457 151.243 437.457 151.243 438.393 150.891ZM444.227 165.693C444.252 165.82 444.249 165.934 444.248 165.954C444.247 166.001 444.245 166.049 444.241 166.092C444.235 166.18 444.224 166.287 444.211 166.407C444.184 166.648 444.141 166.972 444.087 167.357C443.977 168.127 443.817 169.159 443.624 170.289C443.241 172.536 442.723 175.22 442.22 177L440.295 176.457C440.767 174.787 441.271 172.193 441.653 169.953C441.843 168.839 442 167.825 442.106 167.076C442.16 166.701 442.199 166.397 442.223 166.182C442.236 166.073 442.243 165.996 442.247 165.946C442.249 165.921 442.249 165.913 442.249 165.917C442.249 165.918 442.248 165.931 442.249 165.951C442.25 165.963 442.252 166.016 442.266 166.085L444.227 165.693Z" fill="black" mask="url(#path-58-inside-1_1405_710)"/>
<path d="M452.758 156.525C452.759 156.526 452.973 156.7 453.335 157.01C454.42 157.937 456.805 160.072 458.372 162.091C459.088 163.011 460.179 163.523 461.295 163.523C461.834 163.523 462.38 163.402 462.888 163.147C463.614 162.782 464.512 162.504 465.592 162.502C466.523 162.504 467.596 162.71 468.82 163.274C469.115 163.409 469.463 163.28 469.599 162.986C469.735 162.692 469.606 162.343 469.311 162.206C467.949 161.579 466.701 161.328 465.592 161.328C464.307 161.328 463.219 161.664 462.359 162.098C462.022 162.268 461.659 162.349 461.295 162.349C460.54 162.35 459.784 161.996 459.3 161.371C457.076 158.513 453.514 155.628 453.499 155.613C453.247 155.409 452.877 155.447 452.673 155.699C452.469 155.951 452.506 156.32 452.758 156.525" fill="#F4F6FF"/>
<mask id="path-61-inside-2_1405_710" fill="white">
<path d="M140.671 331.003C142.134 312.865 144.103 294.605 150.257 279.281C152.865 272.791 155.255 267.065 157.892 266.492C162.329 265.527 168.476 264.738 169.002 262.973C169.605 260.955 161.52 261.31 155.656 261.015C155.656 261.015 172.258 260.833 172.308 258.402C172.368 255.455 153.486 255.595 153.486 255.595C153.486 255.595 173.458 253.82 171.712 250.659C169.967 247.499 151.536 250.724 151.536 250.724C151.536 250.724 168.156 247.339 167.903 244.063C167.697 241.403 154.761 244.716 143.833 249.058C137.375 251.623 131.857 256.113 128.15 261.991C124.604 267.613 120.376 276.262 116.289 289.4C116.289 289.4 112.18 304.64 106.962 325.399C118.216 327.15 129.441 329.089 140.671 331.003"/>
</mask>
<path d="M140.671 331.003C142.134 312.865 144.103 294.605 150.257 279.281C152.865 272.791 155.255 267.065 157.892 266.492C162.329 265.527 168.476 264.738 169.002 262.973C169.605 260.955 161.52 261.31 155.656 261.015C155.656 261.015 172.258 260.833 172.308 258.402C172.368 255.455 153.486 255.595 153.486 255.595C153.486 255.595 173.458 253.82 171.712 250.659C169.967 247.499 151.536 250.724 151.536 250.724C151.536 250.724 168.156 247.339 167.903 244.063C167.697 241.403 154.761 244.716 143.833 249.058C137.375 251.623 131.857 256.113 128.15 261.991C124.604 267.613 120.376 276.262 116.289 289.4C116.289 289.4 112.18 304.64 106.962 325.399C118.216 327.15 129.441 329.089 140.671 331.003" fill="#FEF3DE"/>
<path d="M150.257 279.281L149.329 278.908L149.329 278.908L150.257 279.281ZM157.892 266.492L158.105 267.469L158.105 267.469L157.892 266.492ZM169.002 262.973L168.044 262.687L168.044 262.687L169.002 262.973ZM155.656 261.015L155.606 262.013L155.645 260.015L155.656 261.015ZM172.308 258.402L171.308 258.382V258.382L172.308 258.402ZM153.486 255.595L153.494 256.595L153.398 254.599L153.486 255.595ZM171.712 250.659L172.587 250.175L172.588 250.176L171.712 250.659ZM151.536 250.724L151.709 251.709L151.337 249.744L151.536 250.724ZM167.903 244.063L166.906 244.14L166.906 244.14L167.903 244.063ZM143.833 249.058L144.202 249.987L144.202 249.987L143.833 249.058ZM128.15 261.991L128.996 262.524L128.996 262.524L128.15 261.991ZM116.289 289.4L115.324 289.14L115.329 289.121L115.335 289.103L116.289 289.4ZM106.962 325.399L106.809 326.387L105.725 326.218L105.993 325.155L106.962 325.399ZM139.674 330.923C141.137 312.796 143.111 294.391 149.329 278.908L151.185 279.653C145.095 294.818 143.132 312.935 141.668 331.084L139.674 330.923ZM149.329 278.908C150.628 275.675 151.899 272.565 153.184 270.191C153.827 269.004 154.497 267.957 155.204 267.157C155.902 266.369 156.72 265.723 157.68 265.515L158.105 267.469C157.746 267.547 157.277 267.833 156.703 268.482C156.139 269.119 155.553 270.017 154.943 271.144C153.722 273.398 152.494 276.396 151.185 279.653L149.329 278.908ZM157.68 265.515C159.989 265.012 162.516 264.6 164.672 264.062C165.732 263.797 166.613 263.522 167.244 263.226C167.558 263.079 167.774 262.943 167.909 262.828C168.047 262.712 168.052 262.66 168.044 262.687L169.961 263.258C169.821 263.727 169.519 264.086 169.202 264.354C168.884 264.624 168.498 264.847 168.093 265.037C167.284 265.416 166.252 265.729 165.156 266.003C162.997 266.542 160.233 267.006 158.105 267.469L157.68 265.515ZM168.044 262.687C168.011 262.798 168.061 262.951 168.117 263.01C168.122 263.015 168.098 262.99 168.019 262.947C167.942 262.905 167.831 262.856 167.679 262.806C167.042 262.593 166.013 262.445 164.679 262.345C163.368 262.247 161.849 262.201 160.275 262.161C158.709 262.121 157.088 262.088 155.606 262.013L155.706 260.016C157.156 260.089 158.744 260.122 160.325 260.162C161.896 260.201 163.461 260.248 164.829 260.35C166.174 260.451 167.42 260.611 168.312 260.908C168.748 261.054 169.223 261.271 169.567 261.633C169.974 262.06 170.144 262.643 169.96 263.259L168.044 262.687ZM155.656 261.015C155.645 260.015 155.645 260.015 155.645 260.015C155.645 260.015 155.645 260.015 155.645 260.015C155.646 260.015 155.646 260.015 155.647 260.015C155.649 260.015 155.652 260.015 155.656 260.015C155.663 260.015 155.675 260.014 155.69 260.014C155.721 260.014 155.766 260.013 155.826 260.012C155.946 260.01 156.123 260.007 156.348 260.002C156.798 259.993 157.442 259.976 158.215 259.949C159.764 259.894 161.823 259.796 163.88 259.623C165.946 259.45 167.969 259.204 169.461 258.861C170.216 258.688 170.772 258.504 171.118 258.324C171.55 258.101 171.314 258.075 171.308 258.382L173.308 258.423C173.289 259.337 172.523 259.849 172.038 260.1C171.467 260.396 170.718 260.625 169.909 260.81C168.274 261.186 166.137 261.441 164.047 261.616C161.947 261.793 159.852 261.892 158.286 261.948C157.502 261.975 156.849 261.992 156.391 262.002C156.162 262.007 155.981 262.01 155.858 262.012C155.796 262.013 155.749 262.014 155.717 262.014C155.701 262.014 155.688 262.014 155.68 262.014C155.676 262.015 155.673 262.015 155.67 262.015C155.669 262.015 155.668 262.015 155.668 262.015C155.668 262.015 155.667 262.015 155.667 262.015C155.667 262.015 155.667 262.015 155.656 261.015ZM171.308 258.382C171.303 258.616 171.489 258.559 171.038 258.314C170.648 258.101 170.021 257.889 169.17 257.695C167.485 257.311 165.193 257.057 162.849 256.891C160.516 256.726 158.176 256.652 156.417 256.619C155.538 256.603 154.806 256.596 154.294 256.595C154.038 256.594 153.837 256.594 153.7 256.594C153.632 256.594 153.58 256.594 153.545 256.595C153.528 256.595 153.515 256.595 153.506 256.595C153.502 256.595 153.499 256.595 153.496 256.595C153.495 256.595 153.495 256.595 153.494 256.595C153.494 256.595 153.494 256.595 153.494 256.595C153.494 256.595 153.494 256.595 153.486 255.595C153.479 254.595 153.479 254.595 153.479 254.595C153.479 254.595 153.48 254.595 153.48 254.595C153.481 254.595 153.482 254.595 153.483 254.595C153.485 254.595 153.489 254.595 153.494 254.595C153.503 254.595 153.517 254.595 153.536 254.595C153.572 254.594 153.626 254.594 153.696 254.594C153.836 254.594 154.041 254.594 154.301 254.595C154.822 254.597 155.564 254.603 156.454 254.619C158.233 254.652 160.61 254.727 162.99 254.896C165.359 255.063 167.775 255.326 169.614 255.745C170.525 255.953 171.363 256.213 171.995 256.557C172.565 256.868 173.327 257.451 173.308 258.423L171.308 258.382ZM153.486 255.595C153.398 254.599 153.398 254.599 153.398 254.599C153.398 254.599 153.398 254.599 153.398 254.599C153.399 254.599 153.4 254.599 153.401 254.598C153.403 254.598 153.406 254.598 153.411 254.598C153.42 254.597 153.434 254.595 153.452 254.594C153.489 254.59 153.544 254.585 153.616 254.579C153.76 254.565 153.972 254.545 154.241 254.517C154.779 254.463 155.547 254.382 156.463 254.275C158.298 254.06 160.719 253.742 163.081 253.327C165.458 252.91 167.714 252.404 169.249 251.828C170.035 251.532 170.52 251.259 170.751 251.045C170.859 250.945 170.845 250.918 170.83 250.975C170.821 251.007 170.817 251.048 170.823 251.089C170.829 251.129 170.84 251.148 170.837 251.142L172.588 250.176C172.809 250.577 172.885 251.034 172.761 251.496C172.644 251.926 172.381 252.261 172.11 252.512C171.582 253.001 170.793 253.384 169.952 253.7C168.234 254.345 165.824 254.876 163.427 255.297C161.013 255.721 158.551 256.044 156.696 256.261C155.767 256.37 154.988 256.452 154.441 256.507C154.168 256.535 153.952 256.556 153.804 256.57C153.73 256.577 153.673 256.582 153.635 256.585C153.615 256.587 153.601 256.589 153.591 256.589C153.586 256.59 153.582 256.59 153.579 256.591C153.578 256.591 153.577 256.591 153.576 256.591C153.576 256.591 153.575 256.591 153.575 256.591C153.575 256.591 153.575 256.591 153.486 255.595ZM170.837 251.142C170.809 251.091 170.641 250.899 170.04 250.707C169.477 250.527 168.702 250.402 167.751 250.333C165.857 250.197 163.451 250.299 161.055 250.503C158.668 250.706 156.33 251.008 154.586 251.259C153.715 251.384 152.994 251.497 152.491 251.578C152.24 251.619 152.043 251.652 151.91 251.674C151.843 251.685 151.793 251.694 151.759 251.7C151.742 251.703 151.729 251.705 151.721 251.706C151.716 251.707 151.713 251.708 151.711 251.708C151.71 251.708 151.71 251.708 151.709 251.708C151.709 251.709 151.709 251.709 151.709 251.709C151.709 251.709 151.709 251.709 151.536 250.724C151.364 249.738 151.364 249.738 151.364 249.738C151.365 249.738 151.365 249.738 151.365 249.738C151.366 249.738 151.367 249.738 151.368 249.738C151.371 249.737 151.374 249.737 151.379 249.736C151.388 249.734 151.402 249.732 151.42 249.729C151.456 249.723 151.509 249.714 151.577 249.702C151.715 249.679 151.916 249.645 152.172 249.604C152.684 249.521 153.417 249.407 154.301 249.279C156.067 249.025 158.446 248.718 160.885 248.51C163.314 248.303 165.843 248.191 167.895 248.339C168.917 248.412 169.869 248.553 170.648 248.802C171.389 249.038 172.179 249.437 172.587 250.175L170.837 251.142ZM151.536 250.724C151.337 249.744 151.337 249.744 151.337 249.744C151.337 249.744 151.337 249.744 151.337 249.744C151.338 249.743 151.338 249.743 151.339 249.743C151.341 249.743 151.344 249.742 151.347 249.741C151.355 249.74 151.366 249.738 151.381 249.734C151.412 249.728 151.457 249.719 151.517 249.706C151.637 249.681 151.813 249.644 152.037 249.595C152.486 249.497 153.128 249.353 153.899 249.171C155.441 248.805 157.489 248.285 159.523 247.665C161.569 247.042 163.555 246.333 164.998 245.596C165.724 245.225 166.256 244.874 166.586 244.563C166.936 244.232 166.903 244.099 166.906 244.14L168.9 243.986C168.966 244.847 168.469 245.536 167.959 246.017C167.428 246.518 166.704 246.97 165.908 247.377C164.305 248.195 162.184 248.946 160.106 249.579C158.017 250.215 155.926 250.745 154.36 251.117C153.576 251.302 152.922 251.449 152.463 251.549C152.233 251.599 152.053 251.637 151.929 251.663C151.867 251.676 151.819 251.686 151.787 251.693C151.77 251.696 151.758 251.699 151.749 251.701C151.745 251.702 151.742 251.702 151.74 251.703C151.738 251.703 151.738 251.703 151.737 251.703C151.737 251.703 151.736 251.703 151.736 251.703C151.736 251.703 151.736 251.703 151.536 250.724ZM166.906 244.14C166.92 244.329 167.081 244.341 166.891 244.266C166.672 244.18 166.258 244.109 165.595 244.111C164.293 244.115 162.4 244.396 160.108 244.91C155.545 245.935 149.63 247.831 144.202 249.987L143.464 248.129C148.963 245.944 154.981 244.012 159.67 242.959C162.003 242.435 164.066 242.115 165.589 242.111C166.338 242.108 167.054 242.181 167.624 242.406C168.223 242.642 168.834 243.133 168.9 243.986L166.906 244.14ZM144.202 249.987C137.934 252.477 132.586 256.832 128.996 262.524L127.304 261.457C131.128 255.394 136.816 250.769 143.464 248.129L144.202 249.987ZM128.996 262.524C125.505 268.059 121.31 276.625 117.244 289.697L115.335 289.103C119.442 275.898 123.703 267.166 127.304 261.457L128.996 262.524ZM116.289 289.4C117.255 289.661 117.255 289.661 117.255 289.661C117.255 289.661 117.255 289.661 117.255 289.661C117.255 289.662 117.254 289.662 117.254 289.663C117.254 289.665 117.253 289.668 117.252 289.672C117.25 289.679 117.247 289.69 117.243 289.705C117.235 289.734 117.223 289.778 117.208 289.836C117.176 289.953 117.13 290.126 117.069 290.354C116.946 290.811 116.765 291.487 116.532 292.363C116.066 294.115 115.389 296.668 114.55 299.869C112.871 306.271 110.54 315.267 107.932 325.643L105.993 325.155C108.602 314.772 110.935 305.769 112.615 299.361C113.455 296.158 114.132 293.603 114.599 291.848C114.833 290.971 115.014 290.294 115.137 289.837C115.198 289.608 115.245 289.434 115.276 289.317C115.292 289.258 115.304 289.214 115.312 289.185C115.316 289.17 115.319 289.159 115.321 289.151C115.322 289.147 115.323 289.145 115.323 289.143C115.323 289.142 115.324 289.141 115.324 289.141C115.324 289.14 115.324 289.14 115.324 289.14C115.324 289.14 115.324 289.14 116.289 289.4ZM107.116 324.411C118.379 326.163 129.613 328.104 140.839 330.017L140.503 331.989C129.27 330.074 118.053 328.137 106.809 326.387L107.116 324.411Z" fill="black" mask="url(#path-61-inside-2_1405_710)"/>
<mask id="path-63-inside-3_1405_710" fill="white">
<path d="M299.032 265.781L304.388 222.398L283.501 205.292L264.323 264.706L299.032 265.781"/>
</mask>
<path d="M299.032 265.781L304.388 222.398L283.501 205.292L264.323 264.706L299.032 265.781" fill="#FEF3DE"/>
<path d="M304.388 222.398L305.022 221.624L305.448 221.974L305.381 222.521L304.388 222.398ZM283.501 205.292L282.549 204.984L282.999 203.589L284.134 204.518L283.501 205.292ZM264.323 264.706L264.292 265.705L262.963 265.664L263.371 264.398L264.323 264.706ZM298.039 265.659L303.396 222.275L305.381 222.521L300.024 265.904L298.039 265.659ZM303.755 223.172L282.867 206.065L284.134 204.518L305.022 221.624L303.755 223.172ZM284.452 205.599L265.275 265.013L263.371 264.398L282.549 204.984L284.452 205.599ZM264.354 263.706L299.063 264.782L299.001 266.781L264.292 265.705L264.354 263.706Z" fill="black" mask="url(#path-63-inside-3_1405_710)"/>
<path d="M267.301 181.562C267.301 181.562 215.045 216.237 169.057 199.709C156.558 195.218 147.651 183.348 148.64 170.102C149.373 160.285 155.517 148.224 172.682 143.892C177.851 142.587 183.223 142.366 188.526 142.903C202.806 144.349 234.695 151.083 267.301 181.562" fill="white"/>
<mask id="path-66-inside-4_1405_710" fill="white">
<path d="M247.171 191.91C247.171 212.829 274.619 229.789 296.853 229.789C319.085 229.789 329.869 216.697 327.686 195.891C325.329 173.403 309.662 154.029 287.429 154.029C265.195 154.029 247.171 170.989 247.171 191.91"/>
</mask>
<path d="M247.171 191.91C247.171 212.829 274.619 229.789 296.853 229.789C319.085 229.789 329.869 216.697 327.686 195.891C325.329 173.403 309.662 154.029 287.429 154.029C265.195 154.029 247.171 170.989 247.171 191.91" fill="#FEF3DE"/>
<path d="M327.686 195.891L326.692 195.995V195.995L327.686 195.891ZM248.171 191.91C248.171 201.915 254.748 211.121 264.254 217.879C273.744 224.626 285.965 228.789 296.853 228.789V230.789C285.507 230.789 272.887 226.471 263.095 219.509C253.318 212.558 246.171 202.824 246.171 191.91H248.171ZM296.853 228.789C307.779 228.789 315.72 225.576 320.677 219.979C325.637 214.378 327.764 206.216 326.692 195.995L328.681 195.786C329.791 206.372 327.618 215.159 322.174 221.305C316.727 227.456 308.16 230.789 296.853 230.789V228.789ZM326.692 195.995C324.368 173.833 308.985 155.029 287.429 155.029V153.029C310.34 153.029 326.289 172.973 328.681 195.786L326.692 195.995ZM287.429 155.029C265.689 155.029 248.171 171.598 248.171 191.91H246.171C246.171 170.38 264.701 153.029 287.429 153.029V155.029Z" fill="black" mask="url(#path-66-inside-4_1405_710)"/>
<path d="M247.171 191.91C247.171 170.989 265.195 154.03 287.427 154.03C304.931 154.03 319.782 167.018 325.329 182.746C325.122 182.866 313.102 185.795 303.779 174.678C303.453 174.289 302.816 174.531 302.844 175.038C303.135 180.405 302.183 196.25 281.058 198.104C281.058 198.104 281.723 227.449 280.551 227.086C272.045 224.449 265.966 220.369 262.948 218.152C253.69 211.35 247.171 202.106 247.171 191.91" fill="#171938"/>
<path d="M247.171 191.91H247.758C247.758 181.621 252.187 172.307 259.364 165.552C266.541 158.8 276.461 154.617 287.427 154.617C296.032 154.617 303.992 157.809 310.498 162.951C317.002 168.091 322.04 175.184 324.774 182.941L325.329 182.746L325.033 182.239L325.25 182.61L325.115 182.2L325.033 182.239L325.25 182.61L325.115 182.2C325.099 182.206 324.963 182.243 324.771 182.282C324.181 182.405 322.954 182.595 321.323 182.595C317.072 182.588 310.129 181.329 304.228 174.3C304.008 174.033 303.678 173.894 303.375 173.898C303.091 173.899 302.822 174.002 302.611 174.194C302.4 174.384 302.253 174.684 302.255 175.007L302.257 175.077L302.844 175.038L302.257 175.07C302.279 175.461 302.293 175.91 302.293 176.406C302.295 179.482 301.73 184.363 298.815 188.64C295.896 192.912 290.651 196.664 281.008 197.518L280.459 197.566L280.472 198.117C280.472 198.122 280.518 200.184 280.565 203.216C280.612 206.248 280.659 210.243 280.659 214.093C280.659 217.446 280.624 220.69 280.522 223.084C280.471 224.28 280.404 225.267 280.32 225.929C280.278 226.258 280.229 226.511 280.19 226.64L280.168 226.706L280.165 226.714L280.402 226.827L280.219 226.644L280.165 226.714L280.402 226.827L280.219 226.644L280.572 226.995V226.502C280.395 226.501 280.262 226.596 280.219 226.644L280.572 226.995V226.502V227.016L280.721 226.523L280.572 226.502V227.016L280.721 226.523L280.725 226.525C272.306 223.915 266.286 219.876 263.295 217.678C254.127 210.944 247.751 201.84 247.758 191.91H247.171H246.583C246.591 202.371 253.253 211.758 262.6 218.625C265.647 220.864 271.783 224.982 280.377 227.646L280.379 227.648L280.572 227.677C280.737 227.678 280.887 227.609 280.976 227.538C281.152 227.395 281.198 227.274 281.251 227.162C281.337 226.952 281.384 226.729 281.432 226.44C281.594 225.447 281.689 223.718 281.75 221.542C281.811 219.369 281.834 216.764 281.834 214.093C281.834 206.375 281.646 198.092 281.646 198.09L281.058 198.104L281.11 198.689C291.014 197.829 296.68 193.876 299.785 189.301C302.893 184.729 303.466 179.618 303.467 176.406C303.467 175.886 303.452 175.417 303.431 175.007L303.43 175.004V174.998L303.317 175.007H303.43V174.998L303.317 175.007H303.43H303.355L303.404 175.061L303.43 175.007H303.355L303.404 175.061L303.375 175.029V175.072L303.404 175.061L303.375 175.029V175.072V175.016L303.329 175.055L303.375 175.072V175.016L303.329 175.055C309.485 182.402 316.852 183.775 321.323 183.77C322.547 183.77 323.559 183.669 324.28 183.561C324.639 183.508 324.927 183.451 325.135 183.405L325.389 183.343L325.48 183.316L325.625 183.254L326.044 183.008L325.882 182.55C323.071 174.58 317.91 167.315 311.226 162.03C304.543 156.745 296.327 153.442 287.427 153.442C276.16 153.442 265.952 157.74 258.559 164.697C251.166 171.652 246.582 181.278 246.583 191.91H247.171" fill="#FEF3DE"/>
<path d="M304.388 221.112L317.991 210.313Z" fill="#99B6FF"/>
<path d="M310.23 224.175L319.022 217.252Z" fill="#F4F6FF"/>
<path d="M310.594 224.637L319.385 217.714C319.64 217.513 319.683 217.143 319.484 216.888C319.283 216.633 318.913 216.589 318.658 216.79L309.867 223.714C309.612 223.915 309.568 224.283 309.769 224.538C309.969 224.793 310.339 224.837 310.594 224.637Z" fill="#FEF3DE"/>
<path d="M282.42 216.654C279.937 216.491 277.383 215.382 275.347 213.365C271.275 209.332 270.813 203.195 274.316 199.658C276.697 197.253 279.737 197.261 282.721 198.78" fill="#FEF3DE"/>
<path d="M282.457 216.068C280.122 215.915 277.698 214.867 275.761 212.948C273.631 210.84 272.549 208.135 272.55 205.596C272.552 203.509 273.273 201.547 274.733 200.071C275.963 198.837 277.312 198.322 278.777 198.317C279.946 198.316 281.194 198.662 282.455 199.303C282.744 199.451 283.098 199.336 283.244 199.046C283.391 198.757 283.276 198.403 282.987 198.256C281.6 197.55 280.177 197.143 278.777 197.143C277.023 197.137 275.317 197.804 273.899 199.244C272.2 200.958 271.375 203.24 271.376 205.596C271.377 208.466 272.59 211.459 274.934 213.782C277.068 215.896 279.751 217.067 282.381 217.24C282.704 217.261 282.984 217.016 283.005 216.693C283.027 216.368 282.782 216.089 282.457 216.068" fill="#F4F6FF"/>
<path d="M284.218 209.862C284.218 209.862 282.08 205.547 278.251 207.288Z" fill="#FEF3DE"/>
<path d="M284.744 209.601C284.727 209.569 284.337 208.779 283.566 207.964C282.8 207.156 281.615 206.29 280.034 206.287C279.401 206.286 278.718 206.43 278.008 206.754C277.712 206.888 277.581 207.235 277.716 207.531C277.85 207.826 278.198 207.957 278.494 207.823C279.068 207.562 279.576 207.462 280.034 207.462C281.156 207.459 282.063 208.087 282.713 208.772C283.035 209.113 283.285 209.458 283.451 209.714C283.534 209.843 283.597 209.949 283.637 210.021L283.681 210.102L283.692 210.123C283.835 210.414 284.188 210.533 284.479 210.388C284.769 210.245 284.888 209.892 284.744 209.601Z" fill="#F4F6FF"/>
<path d="M430.456 195.334C430.456 195.334 404.251 238.476 389.3 257.883C384.141 264.577 330.491 260.771 293.671 258.632C279.422 257.807 238.894 255.496 229.551 257.503C206.456 262.469 167.621 311.339 141.895 347.969L149.664 305.558L111.651 300.866C87.9087 367.091 97.3476 409.137 134.494 406.238C161.605 404.122 215.805 332.168 217.578 324.385L198.932 406.238H321.714L325.094 322.169C345.435 320.983 399.469 317.684 409.488 311.26C436.631 293.86 460.117 216.345 460.117 216.345L430.456 195.334Z" fill="#FFD74B"/>
<path d="M430.456 195.334L429.954 195.03C429.953 195.031 429.545 195.702 428.799 196.918C423.586 205.432 401.881 240.594 388.835 257.524C388.434 258.062 387.444 258.641 385.949 259.105C383.709 259.811 380.377 260.312 376.257 260.626C372.135 260.941 367.222 261.075 361.782 261.075C341.898 261.076 314.993 259.283 293.705 258.046C283.56 257.459 260.108 256.119 244.032 256.118C237.51 256.121 232.229 256.331 229.428 256.929C223.496 258.211 216.692 262.246 209.362 268.125C187.394 285.765 160.729 320.138 141.414 347.632L141.895 347.969L142.473 348.076L150.353 305.051L111.257 300.226L111.098 300.669C102.322 325.151 98.0612 346.35 98.0598 363.258C98.0617 376.967 100.86 387.87 106.4 395.392C111.936 402.916 120.241 406.977 130.961 406.967C132.125 406.967 133.319 406.92 134.54 406.824C141.555 406.262 150.064 401.299 159.032 394.109C172.471 383.314 186.88 367.437 198.116 353.515C203.733 346.554 208.554 340.084 212.059 334.98C213.812 332.428 215.235 330.217 216.269 328.451C217.303 326.677 217.944 325.388 218.15 324.515L217.004 324.254L198.197 406.826H322.278L325.68 322.193L325.094 322.169L325.128 322.756C335.3 322.162 353.901 321.041 371.223 319.263C379.883 318.374 388.223 317.322 395.04 316.086C398.45 315.468 401.477 314.804 403.981 314.09C406.487 313.372 408.463 312.612 409.805 311.755C416.72 307.315 423.303 299.148 429.349 289.398C447.465 260.151 460.669 216.539 460.678 216.515L460.802 216.111L430.281 194.49L429.954 195.03L430.456 195.334L430.116 195.813L459.777 216.824L460.117 216.345L459.554 216.175C459.554 216.176 459.464 216.474 459.285 217.045C457.951 221.322 451.726 240.738 442.669 261.102C438.139 271.282 432.901 281.701 427.221 290.575C421.542 299.448 415.411 306.771 409.171 310.766C408.009 311.514 406.105 312.264 403.658 312.96C395.08 315.413 379.85 317.321 364.577 318.73C349.3 320.141 333.957 321.064 325.06 321.583L324.528 321.614L321.149 405.651H199.669L218.15 324.515L217.004 324.254C216.921 324.638 216.62 325.36 216.131 326.29C214.288 329.808 209.806 336.454 203.75 344.422C194.663 356.38 182.012 371.357 169.272 383.51C162.903 389.585 156.512 394.956 150.547 398.886C144.586 402.821 139.045 405.3 134.449 405.653C133.256 405.746 132.093 405.792 130.961 405.792C120.529 405.783 112.678 401.915 107.345 394.694C102.016 387.47 99.2326 376.812 99.2345 363.258C99.2331 346.546 103.458 325.456 112.204 301.065L111.651 300.866L111.579 301.45L148.974 306.065L140.833 350.502L142.375 348.307C155.228 330.006 171.36 308.644 187.145 291.257C195.036 282.564 202.843 274.864 210.098 269.041C217.349 263.215 224.058 259.28 229.674 258.078C232.261 257.519 237.552 257.29 244.032 257.292C260.051 257.292 283.499 258.631 293.637 259.219C314.92 260.454 341.834 262.249 361.782 262.249C369.062 262.249 375.414 262.011 380.247 261.414C382.665 261.116 384.702 260.728 386.303 260.225C387.9 259.715 389.078 259.115 389.766 258.241C404.758 238.781 430.95 195.649 430.957 195.639L430.456 195.334L430.116 195.813L430.456 195.334" fill="#FEF3DE"/>
<path d="M265.921 257.232C265.921 257.232 267.301 263.346 281.235 264.582C293.707 265.687 299.869 258.999 299.869 258.999C291.538 252.181 280.046 250.716 270.27 255.226L265.921 257.232" fill="#FEF3DE"/>
<path d="M222.476 406.238L246.742 256.731C238.423 256.632 232.784 256.81 229.551 257.503C206.456 262.469 167.621 311.339 141.895 347.969L149.663 305.558L111.651 300.866C87.9087 367.091 97.3476 409.137 134.494 406.238C161.605 404.122 215.805 332.168 217.578 324.385L198.932 406.238H222.476Z" fill="#346AF8"/>
<path d="M222.476 406.238L223.055 406.333L247.432 256.152L246.749 256.143C245.363 256.127 244.05 256.119 242.81 256.119C236.595 256.12 232.215 256.334 229.428 256.929C223.496 258.211 216.692 262.246 209.362 268.125C187.394 285.765 160.729 320.138 141.414 347.632L141.895 347.969L142.473 348.076L150.353 305.051L111.257 300.226L111.098 300.669C102.322 325.151 98.0612 346.35 98.0598 363.258C98.0617 376.967 100.86 387.87 106.4 395.392C111.936 402.916 120.241 406.977 130.961 406.967C132.125 406.967 133.319 406.92 134.54 406.824C141.555 406.262 150.064 401.299 159.032 394.109C172.471 383.314 186.88 367.437 198.116 353.515C203.733 346.554 208.554 340.084 212.059 334.98C213.812 332.428 215.235 330.217 216.269 328.451C217.303 326.677 217.944 325.388 218.15 324.515L217.004 324.254L198.197 406.826H222.975L223.055 406.333L222.476 406.238V405.651H199.669L218.15 324.515L217.004 324.254C216.921 324.638 216.62 325.36 216.131 326.29C214.288 329.808 209.806 336.454 203.75 344.422C194.663 356.38 182.012 371.357 169.272 383.51C162.903 389.585 156.512 394.956 150.547 398.886C144.586 402.821 139.045 405.3 134.449 405.653C133.256 405.746 132.093 405.792 130.961 405.792C120.529 405.783 112.678 401.915 107.345 394.694C102.016 387.47 99.2326 376.812 99.2345 363.258C99.2331 346.546 103.458 325.456 112.204 301.065L111.651 300.866L111.579 301.45L148.973 306.065L140.833 350.502L142.375 348.307C155.228 330.006 171.36 308.644 187.145 291.257C195.036 282.564 202.843 274.864 210.098 269.041C217.349 263.215 224.058 259.28 229.674 258.078C232.277 257.517 236.629 257.291 242.81 257.293C244.045 257.293 245.352 257.302 246.735 257.318L246.742 256.731L246.162 256.637L221.896 406.144L222.476 406.238V405.651V406.238Z" fill="#3D4066"/>
<path d="M430.456 195.334C430.456 195.334 404.251 238.477 389.3 257.883C384.831 263.682 350.619 261.601 315.832 259.551L300.723 406.238H321.714L325.094 322.169C345.435 320.983 399.469 317.685 409.488 311.261C436.631 293.859 460.117 216.345 460.117 216.345L430.456 195.334" fill="#346AF8"/>
<path d="M430.456 195.334L429.954 195.03C429.953 195.031 429.545 195.702 428.799 196.918C423.586 205.432 401.881 240.594 388.835 257.524C388.41 258.085 387.521 258.648 386.202 259.111C384.226 259.813 381.327 260.312 377.725 260.626C374.121 260.941 369.811 261.075 364.979 261.075C351.403 261.075 333.712 260.016 315.866 258.964L315.305 258.931L300.071 406.826H322.278L325.68 322.193L325.094 322.169L325.128 322.756C335.3 322.162 353.901 321.041 371.222 319.263C379.883 318.374 388.223 317.322 395.04 316.086C398.45 315.468 401.477 314.804 403.981 314.09C406.487 313.372 408.463 312.612 409.805 311.755C416.72 307.315 423.303 299.148 429.349 289.398C447.465 260.15 460.669 216.539 460.678 216.515L460.802 216.111L430.281 194.49L429.954 195.03L430.456 195.334L430.116 195.813L459.777 216.824L460.117 216.345L459.554 216.175C459.554 216.176 459.464 216.474 459.285 217.045C457.951 221.322 451.726 240.738 442.668 261.102C438.139 271.282 432.901 281.7 427.221 290.573C421.542 299.448 415.411 306.771 409.171 310.766C408.009 311.514 406.105 312.264 403.658 312.96C395.08 315.413 379.85 317.321 364.577 318.73C349.3 320.141 333.957 321.064 325.06 321.583L324.528 321.614L321.149 405.651H301.374L316.415 259.611L315.832 259.551L315.796 260.137C333.644 261.189 351.344 262.249 364.979 262.249C371.452 262.249 377.006 262.011 381.248 261.413C383.371 261.113 385.164 260.725 386.594 260.218C388.021 259.708 389.102 259.092 389.766 258.241C404.758 238.781 430.95 195.649 430.957 195.639L430.456 195.334L430.116 195.813L430.456 195.334" fill="#3D4066"/>
<path opacity="0.3" d="M0 407.058H506.76V406.116H0V407.058Z" fill="#171938"/>
<path d="M302.378 216.725C307.245 217.981 317.45 218.421 319.334 210.131" stroke="#171938" stroke-linecap="round"/>
<path d="M219.483 176.763C221.027 154.436 248.501 164.421 259.988 176.763L258.175 193.542C243.423 202.606 217.939 199.091 219.483 176.763Z" fill="#171938"/>
</g>
<g filter="url(#filter0_d_1405_710)">
<rect x="247" y="14" width="185" height="94" rx="10" fill="white"/>
</g>
<path d="M277.46 85.2238L279.077 85.2238L279.077 83.4388C281.891 83.1238 283.697 81.3598 283.697 78.7978C283.697 76.5718 282.479 75.2698 279.791 74.6818L279.077 74.5138L279.077 69.9988C280.169 70.2298 280.799 70.9648 280.841 72.0988L283.445 72.0988C283.361 69.5788 281.723 67.9198 279.077 67.6468L279.077 65.8618L277.46 65.8618L277.46 67.6468C274.667 67.9408 272.819 69.7048 272.819 72.1618C272.819 74.4718 274.142 75.9418 276.788 76.5088L277.46 76.6558L277.46 81.1288C276.095 80.9608 275.318 80.2048 275.297 79.0078L272.609 79.0078C272.672 81.5698 274.541 83.2708 277.46 83.4808L277.46 85.2238ZM277.376 74.1358C276.032 73.8418 275.444 73.1908 275.444 72.0778C275.444 70.9438 276.2 70.1878 277.46 69.9778L277.46 74.1568L277.376 74.1358ZM279.224 77.0338C280.484 77.3068 281.093 77.9578 281.093 79.0288C281.093 80.0998 280.337 80.8348 279.077 81.0868L279.077 76.9918L279.224 77.0338ZM296.041 83.2078L296.041 80.7088L289.657 80.7088L292.429 78.3358C294.76 76.3408 295.936 74.7238 295.936 72.5818C295.936 69.4738 293.899 67.6048 290.623 67.6048C287.368 67.6048 285.226 69.7888 285.205 73.1488L287.872 73.1488C287.893 71.1748 288.943 69.9988 290.623 69.9988C292.24 69.9988 293.185 70.9858 293.185 72.7288C293.185 74.1988 292.492 75.2068 290.413 76.9708L285.394 81.2128L285.394 83.2288L296.041 83.2078ZM309.357 80.3098L309.357 77.9578L307.488 77.9578L307.488 67.8778L304.107 67.8778L297.156 77.9578L297.156 80.3098L304.947 80.3098L304.947 83.2288L307.488 83.2288L307.488 80.3098L309.357 80.3098ZM300.012 77.9578L304.947 70.7758L304.947 77.9578L300.012 77.9578ZM316.216 83.4808C319.639 83.4808 321.97 81.2128 321.97 77.8948C321.97 74.8708 319.933 72.7918 316.867 72.7918C315.817 72.7918 314.893 73.0648 314.158 73.5478L314.977 70.3558L321.046 70.3558L321.046 67.8778L313.045 67.8778L311.155 75.9208L313.528 76.4248C314.074 75.6268 315.145 75.0388 316.321 75.0388C318.169 75.0388 319.24 76.2568 319.24 78.0418C319.24 79.9108 318.085 81.0868 316.279 81.0868C314.578 81.0868 313.549 80.0578 313.549 78.3148L310.882 78.3148C310.882 81.4228 313.003 83.4808 316.216 83.4808ZM325.33 83.4808C326.254 83.4808 327.031 82.7248 327.031 81.8218C327.031 80.8978 326.254 80.1418 325.33 80.1418C324.406 80.1418 323.629 80.8978 323.629 81.8218C323.629 82.7248 324.406 83.4808 325.33 83.4808ZM328.541 75.5848C328.541 80.3308 330.956 83.5018 335.03 83.5018C339.104 83.5018 341.54 80.3308 341.54 75.5848C341.54 70.8178 338.957 67.5838 335.03 67.5838C331.103 67.5838 328.541 70.8178 328.541 75.5848ZM331.187 75.5848C331.187 71.9518 332.615 69.9568 335.03 69.9568C337.466 69.9568 338.894 71.9518 338.894 75.5848C338.894 79.1338 337.466 81.1288 335.03 81.1288C332.615 81.1288 331.187 79.1338 331.187 75.5848ZM343.347 75.5848C343.347 80.3308 345.762 83.5018 349.836 83.5018C353.91 83.5018 356.346 80.3308 356.346 75.5848C356.346 70.8178 353.763 67.5838 349.836 67.5838C345.909 67.5838 343.347 70.8178 343.347 75.5848ZM345.993 75.5848C345.993 71.9518 347.421 69.9568 349.836 69.9568C352.272 69.9568 353.7 71.9518 353.7 75.5848C353.7 79.1338 352.272 81.1288 349.836 81.1288C347.421 81.1288 345.993 79.1338 345.993 75.5848Z" fill="#171938"/>
<path d="M272.21 42.505L275.48 42.505L275.48 52L276.95 52L276.95 42.505L280.205 42.505L280.205 41.155L272.21 41.155L272.21 42.505ZM279.776 48.325C279.776 50.59 281.396 52.18 283.601 52.18C285.791 52.18 287.411 50.59 287.411 48.325C287.411 46.06 285.791 44.47 283.601 44.47C281.396 44.47 279.776 46.06 279.776 48.325ZM281.201 48.325C281.201 46.795 282.176 45.73 283.601 45.73C285.011 45.73 286.001 46.795 286.001 48.325C286.001 49.855 285.011 50.92 283.601 50.92C282.176 50.92 281.201 49.855 281.201 48.325ZM290.969 52L290.969 45.85L292.409 45.85L292.409 44.665L290.969 44.665L290.969 42.37L289.559 42.37L289.559 44.665L288.119 44.665L288.119 45.85L289.559 45.85L289.559 52L290.969 52ZM295.731 52.18C296.916 52.18 297.921 51.655 298.296 50.815L298.446 52L299.646 52L299.646 47.395C299.646 45.415 298.416 44.455 296.601 44.455C294.711 44.455 293.451 45.46 293.451 46.99L294.681 46.99C294.681 46.105 295.356 45.58 296.541 45.58C297.531 45.58 298.266 46.015 298.266 47.245L298.266 47.455L295.956 47.635C294.231 47.77 293.226 48.61 293.226 49.96C293.226 51.295 294.156 52.18 295.731 52.18ZM296.136 51.085C295.221 51.085 294.651 50.695 294.651 49.915C294.651 49.195 295.161 48.715 296.406 48.595L298.281 48.445L298.281 48.835C298.281 50.215 297.471 51.085 296.136 51.085ZM303.039 52L303.039 40.96L301.629 40.96L301.629 52L303.039 52ZM310.926 41.155L309.456 41.155L309.456 52L310.926 52L310.926 41.155ZM314.625 52L314.625 48.115C314.625 46.69 315.39 45.745 316.71 45.745C317.79 45.745 318.48 46.345 318.48 47.83L318.48 52L319.89 52L319.89 47.515C319.89 45.64 319.005 44.455 317.07 44.455C316.035 44.455 315.105 44.95 314.64 45.79L314.49 44.665L313.215 44.665L313.215 52L314.625 52ZM321.363 48.34C321.363 50.65 322.788 52.18 324.948 52.18C326.718 52.18 328.083 51.115 328.368 49.525L326.958 49.525C326.703 50.395 325.953 50.92 324.948 50.92C323.613 50.92 322.758 49.9 322.758 48.325C322.758 46.735 323.673 45.715 325.008 45.715C325.953 45.715 326.703 46.21 326.943 47.14L328.353 47.14C328.098 45.505 326.808 44.455 324.963 44.455C322.818 44.455 321.363 46.045 321.363 48.34ZM329.376 48.325C329.376 50.59 330.996 52.18 333.201 52.18C335.391 52.18 337.011 50.59 337.011 48.325C337.011 46.06 335.391 44.47 333.201 44.47C330.996 44.47 329.376 46.06 329.376 48.325ZM330.801 48.325C330.801 46.795 331.776 45.73 333.201 45.73C334.611 45.73 335.601 46.795 335.601 48.325C335.601 49.855 334.611 50.92 333.201 50.92C331.776 50.92 330.801 49.855 330.801 48.325ZM339.982 52L339.982 47.65C339.982 46.48 340.687 45.745 341.752 45.745C342.742 45.745 343.372 46.375 343.372 47.53L343.372 52L344.767 52L344.767 47.65C344.767 46.48 345.472 45.73 346.537 45.73C347.527 45.73 348.172 46.39 348.172 47.545L348.172 52L349.552 52L349.552 47.2C349.552 45.505 348.532 44.455 346.852 44.455C345.712 44.455 344.827 45.025 344.482 45.94C344.107 45.025 343.297 44.455 342.157 44.455C341.122 44.455 340.342 44.935 339.967 45.625L339.832 44.665L338.572 44.665L338.572 52L339.982 52ZM354.671 52.18C356.486 52.18 357.716 51.295 358.076 49.72L356.756 49.72C356.516 50.56 355.796 51.01 354.701 51.01C353.306 51.01 352.496 50.155 352.391 48.61L358.061 48.595L358.061 48.07C358.061 45.895 356.696 44.455 354.611 44.455C352.481 44.455 351.026 46.045 351.026 48.34C351.026 50.62 352.511 52.18 354.671 52.18ZM354.611 45.64C355.856 45.64 356.651 46.45 356.651 47.665L352.421 47.665C352.601 46.375 353.381 45.64 354.611 45.64Z" fill="#3D4066"/>
<path d="M407.25 79.8334L407.25 56.9167" stroke="#346AF8" stroke-width="4" stroke-linecap="round" stroke-linejoin="round"/>
<path d="M393.5 79.8334L393.5 43.1667" stroke="#346AF8" stroke-width="4" stroke-linecap="round" stroke-linejoin="round"/>
<path d="M379.75 79.8333L379.75 66.0833" stroke="#346AF8" stroke-width="4" stroke-linecap="round" stroke-linejoin="round"/>
<defs>
<filter id="filter0_d_1405_710" x="227" y="0" width="225" height="134" filterUnits="userSpaceOnUse" color-interpolation-filters="sRGB">
<feFlood flood-opacity="0" result="BackgroundImageFix"/>
<feColorMatrix in="SourceAlpha" type="matrix" values="0 0 0 0 0 0 0 0 0 0 0 0 0 0 0 0 0 0 127 0" result="hardAlpha"/>
<feOffset dy="6"/>
<feGaussianBlur stdDeviation="10"/>
<feColorMatrix type="matrix" values="0 0 0 0 0 0 0 0 0 0 0 0 0 0 0 0 0 0 0.11 0"/>
<feBlend mode="normal" in2="BackgroundImageFix" result="effect1_dropShadow_1405_710"/>
<feBlend mode="normal" in="SourceGraphic" in2="effect1_dropShadow_1405_710" result="shape"/>
</filter>
<clipPath id="clip0_1405_710">
<rect width="518.093" height="350" fill="white" transform="translate(0 58.0002)"/>
</clipPath>
</defs>
</svg>
